M48
;Layer_Color=9474304
;FILE_FORMAT=4:3
METRIC,LZ
;TYPE=PLATED
T1F00S00C0.400
T2F00S00C0.800
T3F00S00C1.000
;TYPE=NON_PLATED
T4F00S00C3.200
%
T01
X016Y0051275
X0159825Y005665
X015955Y00606
X0159525Y0065
X01595Y00691
X0159525Y0072975
X015975Y00787
X015565Y0078675
X01531Y00772
X01521
X01511
X01501
X01504Y00784
X01501Y00736
X01511
X01521
X01531
X0153375Y0072325
X0156125Y0073
X015615Y006895
X0153375Y0068625
X0153025Y006455
X0156225Y0065225
X0156275Y0060675
X0156325Y0056675
X0152725Y0057325
X0152975Y00599
X01502Y0059975
Y0061725
X015025Y0063325
X0146257Y006415
X014485Y0064125
X01456Y0065375
Y0067725
X014495Y0069725
X014325Y0070675
X01431Y00736
X01441
X01451
X01461
X01471
X01481
X01491
X0145575Y007255
X0147275Y007015
X01421Y00736
X01411
X01401
X01391
X01381
X01371
X01361
X01351
X01341
X01331
X01321
X01311
X01301
X01291
X01281
X01271
X01261
X01251
X01241
X01231
X01221
X01211
X01201
X01191
Y00772
X01201
X01211
X01221
X01231
X01241
X01251
X01261
X01271
X01281
X01291
X01341
X01351
X01361
X01371
X01381
X01391
X01401
X01411
X01421
X01431
X01441
X01451
X01411Y00784
X01376
X01343
X01251
X0122
X012155Y00724
X01216Y00696
X0121625Y0066575
X012225Y0064475
X01221Y00628
X0121Y00624
X012Y0062
X012Y00599
X0121
X01221
X01233Y005915
X0123525Y006095
X0124609Y0061153
X01248Y0062975
X012375Y0063525
X0119575Y0063925
X01289Y0063775
X0130375Y00638
X0129675Y0066275
Y0067925
X0128725Y0069925
X012725Y0070425
X013135Y00702
X012965Y0072625
X0137575Y00722
X01376Y00697
Y00662
X013835Y0063625
X0139775Y00635
X0140875Y0062875
X0140675Y0061
X0139475Y00611
X0141575Y0059175
X0143Y00602
X01452
X0146232Y0060578
X014585Y005795
X01485Y00591
X01493Y005675
X0150175Y00548
X0150275Y00519
X0148925Y00529
X015295Y005455
X01548Y0051475
X01418Y00516
X014172Y00528
X01407Y00528
X01407Y0054
X01406Y005515
X0136325Y0054125
X0134325Y00542
X0131025Y0054175
X0130975Y0056125
X01329Y005705
X01331Y0059
X0130475Y00591
X0131781Y0060553
X0128325Y0062475
X01272Y00592
X012895Y0057125
X012805Y0055275
X0125975Y0055325
X0123275Y00553
X0120675Y0055375
X0133Y00516
X0136425Y0059075
X0134275Y0063475
X0144375Y00625
X01189Y00615
X01189Y00599
X0116456Y0060528
X01133Y00593
X0111975Y0058925
X01106Y0057875
X011055Y0055275
X0107975Y0055325
X0105625Y005545
X0101525Y0055725
X0102425Y0053575
X00999Y0054
X0097975Y00538
X00979Y0055775
X00988Y00586
X00974Y00592
X0100255Y0060503
X0101Y00585
X0102375Y006345
X01052Y00639
X01063Y00635
X0107325Y00639
X010608Y0061128
X01052Y0062
X01056Y00663
X0105575Y00694
X0105625Y0072275
X01061Y00736
X01071
X01081
X01091
X01101
X01111
X01121
X01131
X01141
X01151
X01161
X01171
X01181
Y00772
X01183Y00784
X01131Y00772
X01121
X01111
X01101
X01091
X01081
X01071
X01061
X01051
X01041
X01031
X01021
X01023Y00784
X01062
X01092
X01051Y00736
X01041
X01031
X01021
X01011
X01001
X00991
X00981
X00971
X00961
X00951
X00941
X00931
X00921
X00911
X00901
X00891
X00881
X00871
X00861
X00851
X00841
X00831
X00821
X00811
X00801
X0081625Y007255
X0080875Y006985
X00833Y0070125
X0081625Y00676
X008165Y00647
X00824Y00638
X008085Y0063775
X0080375Y0062475
X00814Y00593
X0082Y0058
X00829Y00566
X0085
X0084775Y0054125
X0082575Y0054075
X0080925Y0054
X0082Y00553
X0081425Y005185
X008Y00515
X00887
X00887Y00527
X00898Y00527
X00898Y00538
X0088975Y0054425
X0089675Y0059425
X0091079Y0061003
X0092455Y0061078
X00926Y00629
X00916Y00635
X0089475Y0064275
X008955Y0066525
X00895Y00696
Y00725
X00891Y00772
X00901
X00911
X00921
X00931
X00941
X00951
X00961
X00971
X00932Y00784
X00903
X00881Y00772
X00871
X00861
X00863Y00784
X00811Y00772
X00801
X00864Y0063475
X00867Y0060075
X008455Y0059275
X0083854Y0060603
X0093725Y005755
X009645Y0062425
X009695Y0064025
X009845Y00641
X009775Y006515
X0097725Y006755
X0096675Y006975
X0095275Y0070625
X0097625Y0072575
X00992Y0070075
X011135Y007075
X0112775Y0069725
X0113675Y0067675
Y0065075
X0114225Y0063975
X0112875Y0064025
X01124Y0062475
X010855Y00589
X011315Y00553
X01157Y0055425
X01182Y0055325
X011535Y0070175
X0113625Y0072575
X00791Y00736
X00781
X00771
X00761
X00751
X00741
X00731
X00721
X00711
X00701
X00691
X00681
X00671
X00661
X00651
X00641
X00631
X00621
X00611
X00601
X00591
X00581
X0057375Y0072075
X0057325Y0068325
X005755Y0062875
X0057675Y00576
X00577Y00544
Y0051
X00622
X00621Y00544
X006205Y0057575
X00663Y00576
Y00544
X0066375Y0051125
X007095Y005065
X0071775Y0054
X006965Y005635
X00697Y005865
X0066903Y0060528
X00653Y00605
X0064525Y00624
X0064825Y0063775
X006635Y00639
X0065625Y0065325
X00656Y0067525
X006475Y006985
X0063275Y0070575
X0065625Y00726
X006735Y0070175
X00736Y00719
Y0067525
Y0064175
X00756Y00635
X00766Y00629
X00765Y00611
X0075275
X0075125Y00586
X00786Y005845
X0079175Y005415
X007865Y0051925
X007585Y0051825
X0076025Y00546
X0070425Y00634
X00701Y00772
X00711
X00721
X00731
X00741
X00751
X00761
X00771
X00781
X00791
X00776Y00784
X00746
X00702
X00651Y00773
X00641Y00772
X00631
X00621
X00611
X00601
X00591
X00581
X0056125Y007895
X0056325Y00751
X005145Y0073125
Y00683
X00514Y00627
X005145Y005755
X00514Y0051
X0051375Y007875
X006095Y0079075
X007925Y007055
T02
X0069295Y0054025
X0071835Y0056565
X0074375Y0054025
T03
X011951Y005403
X012205
X012456
X012459Y005657
X012205
X011951
X012713
Y005403
X011697
Y005657
X011443
Y005403
X011186
X010935
Y005657
X011189
X010681
X010427
Y005403
X010681
T04
X01577Y00535
Y00765
X00535
Y00535
M30
