%FSLAX43Y43*%
%MOMM*%
G71*
G01*
G75*
G04 Layer_Color=8421504*
%ADD10R,0.800X0.800*%
%ADD11R,1.500X1.400*%
%ADD12R,0.800X0.800*%
%ADD13R,2.500X0.700*%
%ADD14R,1.100X1.100*%
%ADD15R,1.400X1.500*%
%ADD16R,2.000X0.350*%
%ADD17C,0.400*%
%ADD18C,0.200*%
%ADD19C,1.500*%
%ADD20R,1.500X1.500*%
%ADD21C,1.600*%
%ADD22R,1.600X1.600*%
%ADD23C,3.200*%
%ADD24C,0.800*%
%ADD25C,0.250*%
%ADD26C,0.600*%
%ADD27C,0.100*%
D10*
X69300Y51800D02*
D03*
X70900D02*
D03*
X72800D02*
D03*
X74400D02*
D03*
X84500Y58000D02*
D03*
X82900D02*
D03*
X84500Y55300D02*
D03*
X82900D02*
D03*
Y52900D02*
D03*
X84500D02*
D03*
X82900Y51475D02*
D03*
X84500D02*
D03*
X94400Y58500D02*
D03*
X96000D02*
D03*
X94400Y56600D02*
D03*
X96000D02*
D03*
Y52900D02*
D03*
X94400D02*
D03*
X96000Y51475D02*
D03*
X94400D02*
D03*
X136100Y53000D02*
D03*
X134500D02*
D03*
Y51600D02*
D03*
X136100D02*
D03*
Y57900D02*
D03*
X134500D02*
D03*
X136100Y55300D02*
D03*
X134500D02*
D03*
X146000Y59100D02*
D03*
X147600D02*
D03*
X146000Y56700D02*
D03*
X147600D02*
D03*
Y51600D02*
D03*
X146000D02*
D03*
X147600Y53100D02*
D03*
X146000D02*
D03*
X78700Y78100D02*
D03*
X80300D02*
D03*
X94400D02*
D03*
X96000D02*
D03*
X110500D02*
D03*
X112100D02*
D03*
X142300D02*
D03*
X143900D02*
D03*
X126400D02*
D03*
X128000D02*
D03*
X62500Y78200D02*
D03*
X64100D02*
D03*
D11*
X77600Y56700D02*
D03*
Y54700D02*
D03*
D12*
X80000Y55300D02*
D03*
Y56900D02*
D03*
X153100Y76200D02*
D03*
Y74600D02*
D03*
X152100Y76200D02*
D03*
Y74600D02*
D03*
X151100Y76200D02*
D03*
Y74600D02*
D03*
X150100Y76200D02*
D03*
Y74600D02*
D03*
X149100Y76200D02*
D03*
Y74600D02*
D03*
X148100Y76200D02*
D03*
Y74600D02*
D03*
X147100Y76200D02*
D03*
Y74600D02*
D03*
X146100Y76200D02*
D03*
Y74600D02*
D03*
X145100Y76200D02*
D03*
Y74600D02*
D03*
X144100Y76200D02*
D03*
Y74600D02*
D03*
X143100Y76200D02*
D03*
Y74600D02*
D03*
X142100Y76200D02*
D03*
Y74600D02*
D03*
X141100Y76200D02*
D03*
Y74600D02*
D03*
X140100Y76200D02*
D03*
Y74600D02*
D03*
X139100Y76200D02*
D03*
Y74600D02*
D03*
X138100Y76200D02*
D03*
Y74600D02*
D03*
X137100Y76200D02*
D03*
Y74600D02*
D03*
X136100Y76200D02*
D03*
Y74600D02*
D03*
X135100Y76200D02*
D03*
Y74600D02*
D03*
X134100Y76200D02*
D03*
Y74600D02*
D03*
X133100Y76200D02*
D03*
Y74600D02*
D03*
X132100Y76200D02*
D03*
Y74600D02*
D03*
X131100Y76200D02*
D03*
Y74600D02*
D03*
X130100Y76200D02*
D03*
Y74600D02*
D03*
X129100Y76200D02*
D03*
Y74600D02*
D03*
X128100Y76200D02*
D03*
Y74600D02*
D03*
X127100Y76200D02*
D03*
Y74600D02*
D03*
X126100Y76200D02*
D03*
Y74600D02*
D03*
X125100Y76200D02*
D03*
Y74600D02*
D03*
X124100Y76200D02*
D03*
Y74600D02*
D03*
X123100Y76200D02*
D03*
Y74600D02*
D03*
X122100Y76200D02*
D03*
Y74600D02*
D03*
X121100Y76200D02*
D03*
Y74600D02*
D03*
X120100Y76200D02*
D03*
Y74600D02*
D03*
X119100Y76200D02*
D03*
Y74600D02*
D03*
X118100Y76200D02*
D03*
Y74600D02*
D03*
X117100Y76200D02*
D03*
Y74600D02*
D03*
X116100Y76200D02*
D03*
Y74600D02*
D03*
X115100Y76200D02*
D03*
Y74600D02*
D03*
X114100Y76200D02*
D03*
Y74600D02*
D03*
X113100Y76200D02*
D03*
Y74600D02*
D03*
X112100Y76200D02*
D03*
Y74600D02*
D03*
X111100Y76200D02*
D03*
Y74600D02*
D03*
X110100Y76200D02*
D03*
Y74600D02*
D03*
X109100Y76200D02*
D03*
Y74600D02*
D03*
X108100Y76200D02*
D03*
Y74600D02*
D03*
X107100Y76200D02*
D03*
Y74600D02*
D03*
X106100Y76200D02*
D03*
Y74600D02*
D03*
X105100Y76200D02*
D03*
Y74600D02*
D03*
X104100Y76200D02*
D03*
Y74600D02*
D03*
X103100Y76200D02*
D03*
Y74600D02*
D03*
X102100Y76200D02*
D03*
Y74600D02*
D03*
X101100Y76200D02*
D03*
Y74600D02*
D03*
X100100Y76200D02*
D03*
Y74600D02*
D03*
X99100Y76200D02*
D03*
Y74600D02*
D03*
X98100Y76200D02*
D03*
Y74600D02*
D03*
X97100Y76200D02*
D03*
Y74600D02*
D03*
X96100Y76200D02*
D03*
Y74600D02*
D03*
X95100Y76200D02*
D03*
Y74600D02*
D03*
X94100Y76200D02*
D03*
Y74600D02*
D03*
X93100Y76200D02*
D03*
Y74600D02*
D03*
X92100Y76200D02*
D03*
Y74600D02*
D03*
X91100Y76200D02*
D03*
Y74600D02*
D03*
X90100Y76200D02*
D03*
Y74600D02*
D03*
X89100Y76200D02*
D03*
Y74600D02*
D03*
X88100Y76200D02*
D03*
Y74600D02*
D03*
X87100Y76200D02*
D03*
Y74600D02*
D03*
X86100Y76200D02*
D03*
Y74600D02*
D03*
X85100Y76200D02*
D03*
Y74600D02*
D03*
X84100Y76200D02*
D03*
Y74600D02*
D03*
X83100Y76200D02*
D03*
Y74600D02*
D03*
X82100Y76200D02*
D03*
Y74600D02*
D03*
X81100Y76200D02*
D03*
Y74600D02*
D03*
X80100Y76200D02*
D03*
Y74600D02*
D03*
X79100Y76200D02*
D03*
Y74600D02*
D03*
X78100Y76200D02*
D03*
Y74600D02*
D03*
X77100Y76200D02*
D03*
Y74600D02*
D03*
X76100Y76200D02*
D03*
Y74600D02*
D03*
X75100Y76200D02*
D03*
Y74600D02*
D03*
X74100Y76200D02*
D03*
Y74600D02*
D03*
X73100Y76200D02*
D03*
Y74600D02*
D03*
X72100Y76200D02*
D03*
Y74600D02*
D03*
X71100Y76200D02*
D03*
Y74600D02*
D03*
X70100D02*
D03*
Y76200D02*
D03*
X69100D02*
D03*
Y74600D02*
D03*
X68100Y76200D02*
D03*
Y74600D02*
D03*
X67100D02*
D03*
Y76200D02*
D03*
X66100Y74600D02*
D03*
Y76200D02*
D03*
X65100D02*
D03*
Y74600D02*
D03*
X64100Y76200D02*
D03*
Y74600D02*
D03*
X63100D02*
D03*
Y76200D02*
D03*
X62100D02*
D03*
Y74600D02*
D03*
X61100Y76200D02*
D03*
Y74600D02*
D03*
X60100Y76200D02*
D03*
Y74600D02*
D03*
X59100D02*
D03*
Y76200D02*
D03*
X58100Y74600D02*
D03*
Y76200D02*
D03*
D13*
X91875Y51465D02*
D03*
Y52735D02*
D03*
Y54005D02*
D03*
Y55275D02*
D03*
Y56545D02*
D03*
Y57815D02*
D03*
Y59085D02*
D03*
X86975Y51465D02*
D03*
Y52735D02*
D03*
Y54005D02*
D03*
Y55275D02*
D03*
Y56545D02*
D03*
Y57815D02*
D03*
Y59085D02*
D03*
X143500Y51540D02*
D03*
Y52810D02*
D03*
Y54080D02*
D03*
Y55350D02*
D03*
Y56620D02*
D03*
Y57890D02*
D03*
Y59160D02*
D03*
X138600Y51540D02*
D03*
Y52810D02*
D03*
Y54080D02*
D03*
Y55350D02*
D03*
Y56620D02*
D03*
Y57890D02*
D03*
Y59160D02*
D03*
D14*
X94650Y54700D02*
D03*
X96550D02*
D03*
X146400Y54850D02*
D03*
X148300D02*
D03*
X146550Y71300D02*
D03*
X144650D02*
D03*
X130550D02*
D03*
X128650D02*
D03*
X114550D02*
D03*
X112650D02*
D03*
X64650D02*
D03*
X66550D02*
D03*
X82550D02*
D03*
X80650D02*
D03*
X98550D02*
D03*
X96650D02*
D03*
D15*
X151700Y62400D02*
D03*
X153700D02*
D03*
X66600Y78100D02*
D03*
X68600D02*
D03*
X82800D02*
D03*
X84800D02*
D03*
X98800D02*
D03*
X100800D02*
D03*
X114800D02*
D03*
X116800D02*
D03*
X130800D02*
D03*
X132800D02*
D03*
X146800D02*
D03*
X148800D02*
D03*
D16*
X142700Y69375D02*
D03*
Y68725D02*
D03*
Y68075D02*
D03*
Y67425D02*
D03*
Y66775D02*
D03*
Y66125D02*
D03*
Y65475D02*
D03*
Y64825D02*
D03*
Y64175D02*
D03*
Y63525D02*
D03*
Y62875D02*
D03*
Y62225D02*
D03*
X148500Y69375D02*
D03*
Y68725D02*
D03*
Y68075D02*
D03*
Y67425D02*
D03*
Y66775D02*
D03*
Y66125D02*
D03*
Y65475D02*
D03*
Y64825D02*
D03*
Y64175D02*
D03*
Y63525D02*
D03*
Y62875D02*
D03*
Y62225D02*
D03*
X126700Y69375D02*
D03*
Y68725D02*
D03*
Y68075D02*
D03*
Y67425D02*
D03*
Y66775D02*
D03*
Y66125D02*
D03*
Y65475D02*
D03*
Y64825D02*
D03*
Y64175D02*
D03*
Y63525D02*
D03*
Y62875D02*
D03*
Y62225D02*
D03*
X132500Y69375D02*
D03*
Y68725D02*
D03*
Y68075D02*
D03*
Y67425D02*
D03*
Y66775D02*
D03*
Y66125D02*
D03*
Y65475D02*
D03*
Y64825D02*
D03*
Y64175D02*
D03*
Y63525D02*
D03*
Y62875D02*
D03*
Y62225D02*
D03*
X110700Y69375D02*
D03*
Y68725D02*
D03*
Y68075D02*
D03*
Y67425D02*
D03*
Y66775D02*
D03*
Y66125D02*
D03*
Y65475D02*
D03*
Y64825D02*
D03*
Y64175D02*
D03*
Y63525D02*
D03*
Y62875D02*
D03*
Y62225D02*
D03*
X116500Y69375D02*
D03*
Y68725D02*
D03*
Y68075D02*
D03*
Y67425D02*
D03*
Y66775D02*
D03*
Y66125D02*
D03*
Y65475D02*
D03*
Y64825D02*
D03*
Y64175D02*
D03*
Y63525D02*
D03*
Y62875D02*
D03*
Y62225D02*
D03*
X62700Y69375D02*
D03*
Y68725D02*
D03*
Y68075D02*
D03*
Y67425D02*
D03*
Y66775D02*
D03*
Y66125D02*
D03*
Y65475D02*
D03*
Y64825D02*
D03*
Y64175D02*
D03*
Y63525D02*
D03*
Y62875D02*
D03*
Y62225D02*
D03*
X68500Y69375D02*
D03*
Y68725D02*
D03*
Y68075D02*
D03*
Y67425D02*
D03*
Y66775D02*
D03*
Y66125D02*
D03*
Y65475D02*
D03*
Y64825D02*
D03*
Y64175D02*
D03*
Y63525D02*
D03*
Y62875D02*
D03*
Y62225D02*
D03*
X78700Y69375D02*
D03*
Y68725D02*
D03*
Y68075D02*
D03*
Y67425D02*
D03*
Y66775D02*
D03*
Y66125D02*
D03*
Y65475D02*
D03*
Y64825D02*
D03*
Y64175D02*
D03*
Y63525D02*
D03*
Y62875D02*
D03*
Y62225D02*
D03*
X84500Y69375D02*
D03*
Y68725D02*
D03*
Y68075D02*
D03*
Y67425D02*
D03*
Y66775D02*
D03*
Y66125D02*
D03*
Y65475D02*
D03*
Y64825D02*
D03*
Y64175D02*
D03*
Y63525D02*
D03*
Y62875D02*
D03*
Y62225D02*
D03*
X94700Y69375D02*
D03*
Y68725D02*
D03*
Y68075D02*
D03*
Y67425D02*
D03*
Y66775D02*
D03*
Y66125D02*
D03*
Y65475D02*
D03*
Y64825D02*
D03*
Y64175D02*
D03*
Y63525D02*
D03*
Y62875D02*
D03*
Y62225D02*
D03*
X100500Y69375D02*
D03*
Y68725D02*
D03*
Y68075D02*
D03*
Y67425D02*
D03*
Y66775D02*
D03*
Y66125D02*
D03*
Y65475D02*
D03*
Y64825D02*
D03*
Y64175D02*
D03*
Y63525D02*
D03*
Y62875D02*
D03*
Y62225D02*
D03*
M02*
