%FSLAX43Y43*%
%MOMM*%
G71*
G01*
G75*
G04 Layer_Physical_Order=1*
G04 Layer_Color=255*
%ADD10R,0.800X0.800*%
%ADD11R,0.800X0.800*%
%ADD12R,1.500X1.400*%
%ADD13R,2.500X0.700*%
%ADD14R,1.100X1.100*%
%ADD15R,1.400X1.500*%
%ADD16R,2.000X0.350*%
%ADD17C,0.400*%
%ADD18C,0.200*%
%ADD19C,1.500*%
%ADD20R,1.500X1.500*%
%ADD21C,1.600*%
%ADD22R,1.600X1.600*%
%ADD23C,3.200*%
%ADD24C,0.800*%
G36*
X161200Y50000D02*
X50000D01*
Y88500D01*
X161200D01*
Y50000D01*
D02*
G37*
%LPC*%
G36*
X75000Y76800D02*
X74200D01*
Y76200D01*
Y75600D01*
X75000D01*
Y76200D01*
Y76800D01*
D02*
G37*
G36*
X76000D02*
X75200D01*
Y76200D01*
Y75600D01*
X76000D01*
Y76200D01*
Y76800D01*
D02*
G37*
G36*
X73000D02*
X72200D01*
Y76200D01*
Y75600D01*
X73000D01*
Y76200D01*
Y76800D01*
D02*
G37*
G36*
X74000D02*
X73200D01*
Y76200D01*
Y75600D01*
X74000D01*
Y76200D01*
Y76800D01*
D02*
G37*
G36*
X79000D02*
X78200D01*
Y76200D01*
Y75600D01*
X79000D01*
Y76200D01*
Y76800D01*
D02*
G37*
G36*
X80000D02*
X79200D01*
Y76200D01*
Y75600D01*
X80000D01*
Y76200D01*
Y76800D01*
D02*
G37*
G36*
X77000D02*
X76200D01*
Y76200D01*
Y75600D01*
X77000D01*
Y76200D01*
Y76800D01*
D02*
G37*
G36*
X78000D02*
X77200D01*
Y76200D01*
Y75600D01*
X78000D01*
Y76200D01*
Y76800D01*
D02*
G37*
G36*
X72000D02*
X71200D01*
Y76200D01*
Y75600D01*
X72000D01*
Y76200D01*
Y76800D01*
D02*
G37*
G36*
X66000D02*
X65200D01*
Y76200D01*
Y75600D01*
X66000D01*
Y76200D01*
Y76800D01*
D02*
G37*
G36*
X67000D02*
X66200D01*
Y76200D01*
Y75600D01*
X67000D01*
Y76200D01*
Y76800D01*
D02*
G37*
G36*
X64000D02*
X63200D01*
Y76200D01*
Y75600D01*
X64000D01*
Y76200D01*
Y76800D01*
D02*
G37*
G36*
X65000D02*
X64200D01*
Y76200D01*
Y75600D01*
X65000D01*
Y76200D01*
Y76800D01*
D02*
G37*
G36*
X70000D02*
X69200D01*
Y76200D01*
Y75600D01*
X70000D01*
Y76200D01*
Y76800D01*
D02*
G37*
G36*
X71000D02*
X70200D01*
Y76200D01*
Y75600D01*
X71000D01*
Y76200D01*
Y76800D01*
D02*
G37*
G36*
X68000D02*
X67200D01*
Y76200D01*
Y75600D01*
X68000D01*
Y76200D01*
Y76800D01*
D02*
G37*
G36*
X69000D02*
X68200D01*
Y76200D01*
Y75600D01*
X69000D01*
Y76200D01*
Y76800D01*
D02*
G37*
G36*
X92000D02*
X91200D01*
Y76200D01*
Y75600D01*
X92000D01*
Y76200D01*
Y76800D01*
D02*
G37*
G36*
X93000D02*
X92200D01*
Y76200D01*
Y75600D01*
X93000D01*
Y76200D01*
Y76800D01*
D02*
G37*
G36*
X90000D02*
X89200D01*
Y76200D01*
Y75600D01*
X90000D01*
Y76200D01*
Y76800D01*
D02*
G37*
G36*
X91000D02*
X90200D01*
Y76200D01*
Y75600D01*
X91000D01*
Y76200D01*
Y76800D01*
D02*
G37*
G36*
X96000D02*
X95200D01*
Y76200D01*
Y75600D01*
X96000D01*
Y76200D01*
Y76800D01*
D02*
G37*
G36*
X97000D02*
X96200D01*
Y76200D01*
Y75600D01*
X97000D01*
Y76200D01*
Y76800D01*
D02*
G37*
G36*
X94000D02*
X93200D01*
Y76200D01*
Y75600D01*
X94000D01*
Y76200D01*
Y76800D01*
D02*
G37*
G36*
X95000D02*
X94200D01*
Y76200D01*
Y75600D01*
X95000D01*
Y76200D01*
Y76800D01*
D02*
G37*
G36*
X89000D02*
X88200D01*
Y76200D01*
Y75600D01*
X89000D01*
Y76200D01*
Y76800D01*
D02*
G37*
G36*
X83000D02*
X82200D01*
Y76200D01*
Y75600D01*
X83000D01*
Y76200D01*
Y76800D01*
D02*
G37*
G36*
X84000D02*
X83200D01*
Y76200D01*
Y75600D01*
X84000D01*
Y76200D01*
Y76800D01*
D02*
G37*
G36*
X81000D02*
X80200D01*
Y76200D01*
Y75600D01*
X81000D01*
Y76200D01*
Y76800D01*
D02*
G37*
G36*
X82000D02*
X81200D01*
Y76200D01*
Y75600D01*
X82000D01*
Y76200D01*
Y76800D01*
D02*
G37*
G36*
X87000D02*
X86200D01*
Y76200D01*
Y75600D01*
X87000D01*
Y76200D01*
Y76800D01*
D02*
G37*
G36*
X88000D02*
X87200D01*
Y76200D01*
Y75600D01*
X88000D01*
Y76200D01*
Y76800D01*
D02*
G37*
G36*
X85000D02*
X84200D01*
Y76200D01*
Y75600D01*
X85000D01*
Y76200D01*
Y76800D01*
D02*
G37*
G36*
X86000D02*
X85200D01*
Y76200D01*
Y75600D01*
X86000D01*
Y76200D01*
Y76800D01*
D02*
G37*
G36*
X151600Y62300D02*
X150800D01*
Y61450D01*
X151600D01*
Y62300D01*
D02*
G37*
G36*
X152600D02*
X151800D01*
Y61450D01*
X152600D01*
Y62300D01*
D02*
G37*
G36*
X77500Y55600D02*
X76650D01*
Y54800D01*
X77500D01*
Y55600D01*
D02*
G37*
G36*
X78550D02*
X77700D01*
Y54800D01*
X78550D01*
Y55600D01*
D02*
G37*
G36*
X144550Y71200D02*
X143900D01*
Y70550D01*
X144550D01*
Y71200D01*
D02*
G37*
G36*
X145400D02*
X144750D01*
Y70550D01*
X145400D01*
Y71200D01*
D02*
G37*
G36*
X151600Y63350D02*
X150800D01*
Y62500D01*
X151600D01*
Y63350D01*
D02*
G37*
G36*
X152600D02*
X151800D01*
Y62500D01*
X152600D01*
Y63350D01*
D02*
G37*
G36*
X78550Y54600D02*
X77700D01*
Y53800D01*
X78550D01*
Y54600D01*
D02*
G37*
G36*
X71500Y51700D02*
X71000D01*
Y51200D01*
X71500D01*
Y51700D01*
D02*
G37*
G36*
X53500Y55309D02*
X53147Y55274D01*
X52808Y55171D01*
X52495Y55004D01*
X52221Y54779D01*
X51996Y54505D01*
X51829Y54192D01*
X51726Y53853D01*
X51691Y53500D01*
X51726Y53147D01*
X51829Y52808D01*
X51996Y52495D01*
X52221Y52221D01*
X52495Y51996D01*
X52808Y51829D01*
X53147Y51726D01*
X53500Y51691D01*
X53853Y51726D01*
X54192Y51829D01*
X54505Y51996D01*
X54779Y52221D01*
X55004Y52495D01*
X55171Y52808D01*
X55274Y53147D01*
X55309Y53500D01*
X55274Y53853D01*
X55171Y54192D01*
X55004Y54505D01*
X54779Y54779D01*
X54505Y55004D01*
X54192Y55171D01*
X53853Y55274D01*
X53500Y55309D01*
D02*
G37*
G36*
X69295Y54983D02*
X69047Y54951D01*
X68816Y54855D01*
X68617Y54703D01*
X68465Y54504D01*
X68369Y54273D01*
X68337Y54025D01*
X68369Y53777D01*
X68465Y53546D01*
X68617Y53347D01*
X68816Y53195D01*
X68892Y53164D01*
Y52400D01*
X68700D01*
Y51200D01*
X69900D01*
Y52400D01*
X69708D01*
Y53168D01*
X69774Y53195D01*
X69973Y53347D01*
X70125Y53546D01*
X70221Y53777D01*
X70253Y54025D01*
X70221Y54273D01*
X70125Y54504D01*
X69973Y54703D01*
X69774Y54855D01*
X69543Y54951D01*
X69295Y54983D01*
D02*
G37*
G36*
X70800Y51700D02*
X70300D01*
Y51200D01*
X70800D01*
Y51700D01*
D02*
G37*
G36*
X71500Y52400D02*
X71000D01*
Y51900D01*
X71500D01*
Y52400D01*
D02*
G37*
G36*
X77500Y54600D02*
X76650D01*
Y53800D01*
X77500D01*
Y54600D01*
D02*
G37*
G36*
X157700Y55309D02*
X157347Y55274D01*
X157008Y55171D01*
X156695Y55004D01*
X156421Y54779D01*
X156196Y54505D01*
X156029Y54192D01*
X155926Y53853D01*
X155891Y53500D01*
X155926Y53147D01*
X156029Y52808D01*
X156196Y52495D01*
X156421Y52221D01*
X156695Y51996D01*
X157008Y51829D01*
X157347Y51726D01*
X157700Y51691D01*
X158053Y51726D01*
X158392Y51829D01*
X158705Y51996D01*
X158979Y52221D01*
X159204Y52495D01*
X159371Y52808D01*
X159474Y53147D01*
X159509Y53500D01*
X159474Y53853D01*
X159371Y54192D01*
X159204Y54505D01*
X158979Y54779D01*
X158705Y55004D01*
X158392Y55171D01*
X158053Y55274D01*
X157700Y55309D01*
D02*
G37*
G36*
X70800Y52400D02*
X70300D01*
Y51900D01*
X70800D01*
Y52400D01*
D02*
G37*
G36*
X58000Y76100D02*
X57500D01*
Y75600D01*
X58000D01*
Y76100D01*
D02*
G37*
G36*
X59000Y76800D02*
X58200D01*
Y76200D01*
Y75600D01*
X59000D01*
Y76200D01*
Y76800D01*
D02*
G37*
G36*
X144700D02*
X144200D01*
Y76200D01*
Y75600D01*
X144500D01*
Y75600D01*
X145000D01*
Y76200D01*
Y76800D01*
X144700D01*
Y76800D01*
D02*
G37*
G36*
X146000D02*
X145500D01*
Y76800D01*
X145200D01*
Y76200D01*
Y75600D01*
X145700D01*
Y75600D01*
X146000D01*
Y76200D01*
Y76800D01*
D02*
G37*
G36*
X62000D02*
X61200D01*
Y76200D01*
Y75600D01*
X62000D01*
Y76200D01*
Y76800D01*
D02*
G37*
G36*
X63000D02*
X62200D01*
Y76200D01*
Y75600D01*
X63000D01*
Y76200D01*
Y76800D01*
D02*
G37*
G36*
X60000D02*
X59200D01*
Y76200D01*
Y75600D01*
X60000D01*
Y76200D01*
Y76800D01*
D02*
G37*
G36*
X61000D02*
X60200D01*
Y76200D01*
Y75600D01*
X61000D01*
Y76200D01*
Y76800D01*
D02*
G37*
G36*
X144000D02*
X143500D01*
Y76800D01*
X143200D01*
Y76200D01*
Y75600D01*
X143700D01*
Y75600D01*
X144000D01*
Y76200D01*
Y76800D01*
D02*
G37*
G36*
X137700D02*
X137200D01*
Y76200D01*
Y75600D01*
X137500D01*
Y75600D01*
X138000D01*
Y76200D01*
Y76800D01*
X137700D01*
Y76800D01*
D02*
G37*
G36*
X139000Y76800D02*
X138200D01*
Y76200D01*
Y75600D01*
X139000D01*
Y76200D01*
Y76800D01*
D02*
G37*
G36*
X145400Y72050D02*
X144750D01*
Y71400D01*
X145400D01*
Y72050D01*
D02*
G37*
G36*
X151550Y88058D02*
X151550Y88058D01*
X63150D01*
X62994Y88027D01*
X62862Y87938D01*
X62862Y87938D01*
X62612Y87688D01*
X62523Y87556D01*
X62518Y87530D01*
X62492Y87400D01*
X62492Y87400D01*
Y87200D01*
X62300D01*
Y86000D01*
X63500D01*
Y87200D01*
D01*
Y87200D01*
X63542Y87242D01*
X63900D01*
Y87200D01*
X63900D01*
Y86000D01*
X65100D01*
Y86192D01*
X66100D01*
Y85550D01*
X66692D01*
Y82450D01*
X57500D01*
Y81250D01*
X92500D01*
Y81250D01*
X95700D01*
Y81250D01*
X121700D01*
Y81250D01*
X133500D01*
Y81250D01*
X137500D01*
Y81250D01*
X153700D01*
Y82450D01*
X147508D01*
Y85550D01*
X147900D01*
Y87242D01*
X148100D01*
Y86600D01*
X149900D01*
Y87242D01*
X151381D01*
X154992Y83631D01*
Y64069D01*
X154273Y63350D01*
X152800D01*
Y61450D01*
X153792D01*
Y61131D01*
X146729D01*
X146681Y61248D01*
X147288Y61855D01*
X147300Y61850D01*
Y61850D01*
X147300Y61850D01*
X149700D01*
Y62500D01*
Y63150D01*
Y63425D01*
X147300D01*
Y63306D01*
X147275Y63181D01*
X147158Y63158D01*
X147059Y63091D01*
X147059Y63091D01*
X145973Y62006D01*
X143900D01*
Y62125D01*
X142700D01*
Y62325D01*
X143900D01*
Y62500D01*
Y63150D01*
Y63800D01*
Y64450D01*
Y65100D01*
Y65750D01*
Y66400D01*
Y67050D01*
Y67700D01*
Y68350D01*
Y68901D01*
X144017Y68950D01*
X144569Y68398D01*
Y64659D01*
X144417Y64558D01*
X144285Y64359D01*
X144238Y64125D01*
X144285Y63891D01*
X144417Y63692D01*
X144616Y63560D01*
X144850Y63513D01*
X145084Y63560D01*
X145283Y63692D01*
X145415Y63891D01*
X145462Y64125D01*
X145415Y64359D01*
X145283Y64558D01*
X145181Y64626D01*
Y68525D01*
X145158Y68642D01*
X145131Y68682D01*
X145091Y68741D01*
X145091Y68741D01*
X144241Y69591D01*
X144142Y69658D01*
X144025Y69681D01*
X144025Y69681D01*
X143900D01*
Y69750D01*
X141849D01*
X141800Y69867D01*
X143783Y71850D01*
X143900Y71801D01*
Y71400D01*
X144550D01*
Y72050D01*
X144149D01*
X144100Y72167D01*
X144951Y73018D01*
X145100Y72988D01*
X145334Y73035D01*
X145533Y73167D01*
X145536Y73173D01*
X145663D01*
X145667Y73167D01*
X145866Y73035D01*
X146100Y72988D01*
X146249Y73018D01*
X147100Y72167D01*
X147051Y72050D01*
X145800D01*
Y70550D01*
X146119D01*
Y64734D01*
X146023Y64715D01*
X145825Y64583D01*
X145692Y64384D01*
X145645Y64150D01*
X145692Y63916D01*
X145825Y63717D01*
X146023Y63585D01*
X146257Y63538D01*
X146491Y63585D01*
X146690Y63717D01*
X146822Y63916D01*
X146869Y64150D01*
X146822Y64384D01*
X146731Y64521D01*
Y70550D01*
X147300D01*
Y70801D01*
X147417Y70850D01*
X148194Y70073D01*
Y69750D01*
X147300D01*
Y69000D01*
Y68350D01*
Y67700D01*
Y67050D01*
Y66400D01*
Y65750D01*
Y65100D01*
Y64450D01*
Y63800D01*
Y63625D01*
X149700D01*
Y63800D01*
Y63869D01*
X150775D01*
X150775Y63869D01*
X150892Y63892D01*
X150991Y63959D01*
X152816Y65784D01*
X152816Y65784D01*
X152883Y65883D01*
X152883Y65883D01*
X152883Y65883D01*
X152906Y66000D01*
X152906Y66000D01*
Y72927D01*
X153004Y73007D01*
X153100Y72988D01*
X153334Y73035D01*
X153533Y73167D01*
X153665Y73366D01*
X153712Y73600D01*
X153665Y73834D01*
X153629Y73888D01*
X153689Y74000D01*
X153700D01*
Y75200D01*
X145500D01*
Y75200D01*
X144700D01*
Y75200D01*
X143500D01*
Y75200D01*
X137700D01*
Y75200D01*
X57500D01*
Y74000D01*
X57511D01*
X57571Y73888D01*
X57535Y73834D01*
X57488Y73600D01*
X57535Y73366D01*
X57667Y73167D01*
X57866Y73035D01*
X58100Y72988D01*
X58196Y73007D01*
X58294Y72927D01*
Y66200D01*
X58294Y66200D01*
X58317Y66083D01*
X58384Y65984D01*
X60409Y63959D01*
X60508Y63892D01*
X60625Y63869D01*
X60625Y63869D01*
X60981D01*
X61018Y63748D01*
X61009Y63741D01*
X60484Y63216D01*
X60417Y63117D01*
X60394Y63000D01*
X60394Y63000D01*
Y61675D01*
X60394Y61675D01*
X60417Y61558D01*
X60484Y61459D01*
X60909Y61034D01*
X60909Y61034D01*
X60968Y60994D01*
X61008Y60967D01*
X61125Y60944D01*
X64740D01*
X64800Y60832D01*
X64735Y60734D01*
X64688Y60500D01*
X64735Y60266D01*
X64867Y60067D01*
X65066Y59935D01*
X65300Y59888D01*
X65449Y59918D01*
X65983Y59384D01*
X66083Y59317D01*
X66200Y59294D01*
X66200Y59294D01*
X78873D01*
X80550Y57617D01*
X80501Y57500D01*
X79400D01*
Y57108D01*
X78550D01*
Y57600D01*
X76650D01*
Y56973D01*
X72694D01*
X72665Y57044D01*
X72513Y57243D01*
X72314Y57395D01*
X72083Y57491D01*
X71835Y57523D01*
X71587Y57491D01*
X71356Y57395D01*
X71157Y57243D01*
X71005Y57044D01*
X70909Y56813D01*
X70877Y56565D01*
X70909Y56317D01*
X71005Y56086D01*
X71157Y55887D01*
X71356Y55735D01*
X71587Y55639D01*
X71835Y55607D01*
X72083Y55639D01*
X72314Y55735D01*
X72513Y55887D01*
X72665Y56086D01*
X72694Y56157D01*
X76650D01*
Y55800D01*
X78550D01*
Y56292D01*
X79800D01*
X79800Y56292D01*
X79839Y56300D01*
X80401D01*
X80450Y56183D01*
X80167Y55900D01*
X79400D01*
Y54700D01*
X79694D01*
Y52017D01*
X79567Y51932D01*
X79435Y51734D01*
X79388Y51500D01*
X79435Y51266D01*
X79482Y51195D01*
X79422Y51083D01*
X75000D01*
Y51200D01*
X75000D01*
Y52400D01*
X74808D01*
Y53075D01*
X75325D01*
Y54975D01*
X73425D01*
Y53075D01*
X73992D01*
Y52400D01*
X73800D01*
Y51200D01*
X73800D01*
Y51173D01*
X73710Y51083D01*
X73400D01*
Y51200D01*
X73400D01*
Y52400D01*
X72200D01*
Y51200D01*
X72392D01*
Y51000D01*
X72392Y51000D01*
X72418Y50870D01*
X72423Y50844D01*
X72512Y50712D01*
X72837Y50387D01*
X72969Y50298D01*
X72995Y50293D01*
X73125Y50267D01*
X73125Y50267D01*
X126675D01*
X126675Y50267D01*
X126805Y50293D01*
X126831Y50298D01*
X126963Y50387D01*
X126963Y50387D01*
X126963Y50387D01*
X127130Y50553D01*
X127272Y50412D01*
X127272Y50412D01*
X127404Y50323D01*
X127430Y50318D01*
X127560Y50292D01*
X127560Y50292D01*
X150900D01*
X150900Y50292D01*
X151030Y50318D01*
X151056Y50323D01*
X151188Y50412D01*
X151188Y50412D01*
X151188Y50412D01*
X154488Y53712D01*
X154488Y53712D01*
X154577Y53844D01*
X154608Y54000D01*
Y60825D01*
Y62531D01*
X155688Y63612D01*
X155688Y63612D01*
X155777Y63744D01*
X155808Y63900D01*
Y83800D01*
X155777Y83956D01*
X155688Y84088D01*
X155688Y84088D01*
X151838Y87938D01*
X151706Y88027D01*
X151680Y88032D01*
X151550Y88058D01*
D02*
G37*
G36*
X142000Y76800D02*
X141200D01*
Y76200D01*
Y75600D01*
X142000D01*
Y76200D01*
Y76800D01*
D02*
G37*
G36*
X143000D02*
X142200D01*
Y76200D01*
Y75600D01*
X143000D01*
Y76200D01*
Y76800D01*
D02*
G37*
G36*
X140000D02*
X139200D01*
Y76200D01*
Y75600D01*
X140000D01*
Y76200D01*
Y76800D01*
D02*
G37*
G36*
X141000D02*
X140200D01*
Y76200D01*
Y75600D01*
X141000D01*
Y76200D01*
Y76800D01*
D02*
G37*
G36*
X98000Y76800D02*
X97200D01*
Y76200D01*
Y75600D01*
X98000D01*
Y76200D01*
Y76800D01*
D02*
G37*
G36*
X135000D02*
X134200D01*
Y76200D01*
Y75600D01*
X135000D01*
Y76200D01*
Y76800D01*
D02*
G37*
G36*
X134000D02*
X133200D01*
Y76200D01*
Y75600D01*
X134000D01*
Y76200D01*
Y76800D01*
D02*
G37*
G36*
X133000D02*
X132200D01*
Y76200D01*
Y75600D01*
X133000D01*
Y76200D01*
Y76800D01*
D02*
G37*
G36*
X147000D02*
X146200D01*
Y76200D01*
Y75600D01*
X147000D01*
Y76200D01*
Y76800D01*
D02*
G37*
G36*
X137000D02*
X136200D01*
Y76200D01*
Y75600D01*
X137000D01*
Y76200D01*
Y76800D01*
D02*
G37*
G36*
X136000D02*
X135200D01*
Y76200D01*
Y75600D01*
X136000D01*
Y76200D01*
Y76800D01*
D02*
G37*
G36*
X132000D02*
X131200D01*
Y76200D01*
Y75600D01*
X132000D01*
Y76200D01*
Y76800D01*
D02*
G37*
G36*
X128000D02*
X127200D01*
Y76200D01*
Y75600D01*
X128000D01*
Y76200D01*
Y76800D01*
D02*
G37*
G36*
X127000D02*
X126200D01*
Y76200D01*
Y75600D01*
X127000D01*
Y76200D01*
Y76800D01*
D02*
G37*
G36*
X126000D02*
X125200D01*
Y76200D01*
Y75600D01*
X126000D01*
Y76200D01*
Y76800D01*
D02*
G37*
G36*
X131000D02*
X130200D01*
Y76200D01*
Y75600D01*
X131000D01*
Y76200D01*
Y76800D01*
D02*
G37*
G36*
X130000D02*
X129200D01*
Y76200D01*
Y75600D01*
X130000D01*
Y76200D01*
Y76800D01*
D02*
G37*
G36*
X129000D02*
X128200D01*
Y76200D01*
Y75600D01*
X129000D01*
Y76200D01*
Y76800D01*
D02*
G37*
G36*
X148000D02*
X147200D01*
Y76200D01*
Y75600D01*
X148000D01*
Y76200D01*
Y76800D01*
D02*
G37*
G36*
X53500Y86809D02*
X53147Y86774D01*
X52808Y86671D01*
X52495Y86504D01*
X52221Y86279D01*
X51996Y86005D01*
X51829Y85692D01*
X51726Y85353D01*
X51691Y85000D01*
X51726Y84647D01*
X51829Y84308D01*
X51996Y83995D01*
X52221Y83721D01*
X52495Y83496D01*
X52808Y83329D01*
X53147Y83226D01*
X53500Y83191D01*
X53853Y83226D01*
X54192Y83329D01*
X54505Y83496D01*
X54779Y83721D01*
X55004Y83995D01*
X55171Y84308D01*
X55274Y84647D01*
X55309Y85000D01*
X55274Y85353D01*
X55171Y85692D01*
X55004Y86005D01*
X54779Y86279D01*
X54505Y86504D01*
X54192Y86671D01*
X53853Y86774D01*
X53500Y86809D01*
D02*
G37*
G36*
X133700Y80950D02*
X121500D01*
Y80950D01*
X95500D01*
Y80950D01*
X92700D01*
Y80950D01*
X57500D01*
Y79750D01*
X57500Y79750D01*
X57500D01*
X57550Y79657D01*
X57535Y79634D01*
X57488Y79400D01*
X57535Y79166D01*
X57667Y78967D01*
X57866Y78835D01*
X58100Y78788D01*
X58334Y78835D01*
X58533Y78967D01*
X58536Y78973D01*
X58664D01*
X58667Y78967D01*
X58866Y78835D01*
X59100Y78788D01*
X59334Y78835D01*
X59533Y78967D01*
X59536Y78973D01*
X59664D01*
X59667Y78967D01*
X59866Y78835D01*
X60100Y78788D01*
X60334Y78835D01*
X60533Y78967D01*
X60536Y78973D01*
X60664D01*
X60667Y78967D01*
X60866Y78835D01*
X61100Y78788D01*
X61334Y78835D01*
X61533Y78967D01*
X61536Y78973D01*
X61664D01*
X61667Y78967D01*
X61866Y78835D01*
X62100Y78788D01*
X62334Y78835D01*
X62533Y78967D01*
X62536Y78973D01*
X62664D01*
X62667Y78967D01*
X62866Y78835D01*
X63100Y78788D01*
X63334Y78835D01*
X63533Y78967D01*
X63536Y78973D01*
X63664D01*
X63667Y78967D01*
X63866Y78835D01*
X64100Y78788D01*
X64334Y78835D01*
X64533Y78967D01*
X64536Y78973D01*
X64663D01*
X64667Y78967D01*
X64866Y78835D01*
X65100Y78788D01*
X65334Y78835D01*
X65533Y78967D01*
X65536Y78973D01*
X65663D01*
X65667Y78967D01*
X65866Y78835D01*
X66100Y78788D01*
X66334Y78835D01*
X66533Y78967D01*
X66536Y78973D01*
X66663D01*
X66667Y78967D01*
X66866Y78835D01*
X67100Y78788D01*
X67334Y78835D01*
X67533Y78967D01*
X67536Y78973D01*
X67663D01*
X67667Y78967D01*
X67866Y78835D01*
X68100Y78788D01*
X68334Y78835D01*
X68533Y78967D01*
X68536Y78973D01*
X68663D01*
X68667Y78967D01*
X68866Y78835D01*
X69100Y78788D01*
X69334Y78835D01*
X69533Y78967D01*
X69536Y78973D01*
X69663D01*
X69667Y78967D01*
X69866Y78835D01*
X70100Y78788D01*
X70334Y78835D01*
X70533Y78967D01*
X70536Y78973D01*
X70663D01*
X70667Y78967D01*
X70866Y78835D01*
X71100Y78788D01*
X71334Y78835D01*
X71533Y78967D01*
X71536Y78973D01*
X71663D01*
X71667Y78967D01*
X71866Y78835D01*
X72100Y78788D01*
X72334Y78835D01*
X72533Y78967D01*
X72536Y78973D01*
X72663D01*
X72667Y78967D01*
X72866Y78835D01*
X73100Y78788D01*
X73334Y78835D01*
X73533Y78967D01*
X73536Y78973D01*
X73663D01*
X73667Y78967D01*
X73866Y78835D01*
X74100Y78788D01*
X74334Y78835D01*
X74533Y78967D01*
X74536Y78973D01*
X74663D01*
X74667Y78967D01*
X74866Y78835D01*
X75100Y78788D01*
X75334Y78835D01*
X75533Y78967D01*
X75536Y78973D01*
X75663D01*
X75667Y78967D01*
X75866Y78835D01*
X76100Y78788D01*
X76334Y78835D01*
X76533Y78967D01*
X76536Y78973D01*
X76663D01*
X76667Y78967D01*
X76866Y78835D01*
X77100Y78788D01*
X77334Y78835D01*
X77533Y78967D01*
X77536Y78973D01*
X77663D01*
X77667Y78967D01*
X77866Y78835D01*
X78100Y78788D01*
X78334Y78835D01*
X78533Y78967D01*
X78536Y78973D01*
X78663D01*
X78667Y78967D01*
X78866Y78835D01*
X79100Y78788D01*
X79334Y78835D01*
X79533Y78967D01*
X79536Y78973D01*
X79663D01*
X79667Y78967D01*
X79866Y78835D01*
X80100Y78788D01*
X80334Y78835D01*
X80533Y78967D01*
X80536Y78973D01*
X80663D01*
X80667Y78967D01*
X80866Y78835D01*
X81100Y78788D01*
X81334Y78835D01*
X81533Y78967D01*
X81536Y78973D01*
X81663D01*
X81667Y78967D01*
X81866Y78835D01*
X82100Y78788D01*
X82334Y78835D01*
X82533Y78967D01*
X82536Y78973D01*
X82663D01*
X82667Y78967D01*
X82866Y78835D01*
X83100Y78788D01*
X83334Y78835D01*
X83533Y78967D01*
X83536Y78973D01*
X83663D01*
X83667Y78967D01*
X83866Y78835D01*
X84100Y78788D01*
X84334Y78835D01*
X84533Y78967D01*
X84536Y78973D01*
X84663D01*
X84667Y78967D01*
X84866Y78835D01*
X85100Y78788D01*
X85334Y78835D01*
X85533Y78967D01*
X85536Y78973D01*
X85663D01*
X85667Y78967D01*
X85866Y78835D01*
X86100Y78788D01*
X86334Y78835D01*
X86533Y78967D01*
X86536Y78973D01*
X86663D01*
X86667Y78967D01*
X86866Y78835D01*
X87100Y78788D01*
X87334Y78835D01*
X87533Y78967D01*
X87536Y78973D01*
X87663D01*
X87667Y78967D01*
X87866Y78835D01*
X88100Y78788D01*
X88334Y78835D01*
X88533Y78967D01*
X88536Y78973D01*
X88663D01*
X88667Y78967D01*
X88866Y78835D01*
X89100Y78788D01*
X89334Y78835D01*
X89533Y78967D01*
X89536Y78973D01*
X89663D01*
X89667Y78967D01*
X89866Y78835D01*
X90100Y78788D01*
X90334Y78835D01*
X90533Y78967D01*
X90536Y78973D01*
X90663D01*
X90667Y78967D01*
X90866Y78835D01*
X91100Y78788D01*
X91334Y78835D01*
X91533Y78967D01*
X91536Y78973D01*
X91663D01*
X91667Y78967D01*
X91866Y78835D01*
X92100Y78788D01*
X92334Y78835D01*
X92533Y78967D01*
X92536Y78973D01*
X92663D01*
X92667Y78967D01*
X92866Y78835D01*
X93100Y78788D01*
X93334Y78835D01*
X93533Y78967D01*
X93536Y78973D01*
X93663D01*
X93667Y78967D01*
X93866Y78835D01*
X94100Y78788D01*
X94334Y78835D01*
X94533Y78967D01*
X94536Y78973D01*
X94663D01*
X94667Y78967D01*
X94866Y78835D01*
X95100Y78788D01*
X95334Y78835D01*
X95533Y78967D01*
X95536Y78973D01*
X95663D01*
X95667Y78967D01*
X95866Y78835D01*
X96100Y78788D01*
X96334Y78835D01*
X96533Y78967D01*
X96536Y78973D01*
X96663D01*
X96667Y78967D01*
X96866Y78835D01*
X97100Y78788D01*
X97334Y78835D01*
X97533Y78967D01*
X97536Y78973D01*
X97663D01*
X97667Y78967D01*
X97866Y78835D01*
X98100Y78788D01*
X98334Y78835D01*
X98533Y78967D01*
X98536Y78973D01*
X98663D01*
X98667Y78967D01*
X98866Y78835D01*
X99100Y78788D01*
X99334Y78835D01*
X99533Y78967D01*
X99536Y78973D01*
X99663D01*
X99667Y78967D01*
X99866Y78835D01*
X100100Y78788D01*
X100334Y78835D01*
X100533Y78967D01*
X100536Y78973D01*
X100663D01*
X100667Y78967D01*
X100866Y78835D01*
X101100Y78788D01*
X101334Y78835D01*
X101533Y78967D01*
X101536Y78973D01*
X101663D01*
X101667Y78967D01*
X101866Y78835D01*
X102100Y78788D01*
X102334Y78835D01*
X102533Y78967D01*
X102536Y78973D01*
X102663D01*
X102667Y78967D01*
X102866Y78835D01*
X103100Y78788D01*
X103334Y78835D01*
X103533Y78967D01*
X103536Y78973D01*
X103663D01*
X103667Y78967D01*
X103866Y78835D01*
X104100Y78788D01*
X104334Y78835D01*
X104533Y78967D01*
X104536Y78973D01*
X104663D01*
X104667Y78967D01*
X104866Y78835D01*
X105100Y78788D01*
X105334Y78835D01*
X105533Y78967D01*
X105536Y78973D01*
X105663D01*
X105667Y78967D01*
X105866Y78835D01*
X106100Y78788D01*
X106334Y78835D01*
X106533Y78967D01*
X106536Y78973D01*
X106663D01*
X106667Y78967D01*
X106866Y78835D01*
X107100Y78788D01*
X107334Y78835D01*
X107533Y78967D01*
X107536Y78973D01*
X107663D01*
X107667Y78967D01*
X107866Y78835D01*
X108100Y78788D01*
X108334Y78835D01*
X108533Y78967D01*
X108536Y78973D01*
X108663D01*
X108667Y78967D01*
X108866Y78835D01*
X109100Y78788D01*
X109334Y78835D01*
X109533Y78967D01*
X109536Y78973D01*
X109663D01*
X109667Y78967D01*
X109866Y78835D01*
X110100Y78788D01*
X110334Y78835D01*
X110533Y78967D01*
X110536Y78973D01*
X110663D01*
X110667Y78967D01*
X110866Y78835D01*
X111100Y78788D01*
X111334Y78835D01*
X111533Y78967D01*
X111536Y78973D01*
X111663D01*
X111667Y78967D01*
X111866Y78835D01*
X112100Y78788D01*
X112334Y78835D01*
X112533Y78967D01*
X112536Y78973D01*
X112663D01*
X112667Y78967D01*
X112866Y78835D01*
X113100Y78788D01*
X113334Y78835D01*
X113533Y78967D01*
X113536Y78973D01*
X113663D01*
X113667Y78967D01*
X113866Y78835D01*
X114100Y78788D01*
X114334Y78835D01*
X114533Y78967D01*
X114536Y78973D01*
X114663D01*
X114667Y78967D01*
X114866Y78835D01*
X115100Y78788D01*
X115334Y78835D01*
X115533Y78967D01*
X115536Y78973D01*
X115663D01*
X115667Y78967D01*
X115866Y78835D01*
X116100Y78788D01*
X116334Y78835D01*
X116533Y78967D01*
X116536Y78973D01*
X116663D01*
X116667Y78967D01*
X116866Y78835D01*
X117100Y78788D01*
X117334Y78835D01*
X117533Y78967D01*
X117536Y78973D01*
X117663D01*
X117667Y78967D01*
X117866Y78835D01*
X118100Y78788D01*
X118334Y78835D01*
X118533Y78967D01*
X118536Y78973D01*
X118663D01*
X118667Y78967D01*
X118866Y78835D01*
X119100Y78788D01*
X119334Y78835D01*
X119533Y78967D01*
X119536Y78973D01*
X119663D01*
X119667Y78967D01*
X119866Y78835D01*
X120100Y78788D01*
X120334Y78835D01*
X120533Y78967D01*
X120536Y78973D01*
X120663D01*
X120667Y78967D01*
X120866Y78835D01*
X121100Y78788D01*
X121334Y78835D01*
X121533Y78967D01*
X121536Y78973D01*
X121663D01*
X121667Y78967D01*
X121866Y78835D01*
X122100Y78788D01*
X122334Y78835D01*
X122533Y78967D01*
X122536Y78973D01*
X122663D01*
X122667Y78967D01*
X122866Y78835D01*
X123100Y78788D01*
X123334Y78835D01*
X123533Y78967D01*
X123536Y78973D01*
X123663D01*
X123667Y78967D01*
X123866Y78835D01*
X124100Y78788D01*
X124334Y78835D01*
X124533Y78967D01*
X124536Y78973D01*
X124663D01*
X124667Y78967D01*
X124866Y78835D01*
X125100Y78788D01*
X125334Y78835D01*
X125533Y78967D01*
X125536Y78973D01*
X125663D01*
X125667Y78967D01*
X125866Y78835D01*
X126100Y78788D01*
X126334Y78835D01*
X126533Y78967D01*
X126536Y78973D01*
X126663D01*
X126667Y78967D01*
X126866Y78835D01*
X127100Y78788D01*
X127334Y78835D01*
X127533Y78967D01*
X127536Y78973D01*
X127663D01*
X127667Y78967D01*
X127866Y78835D01*
X128100Y78788D01*
X128334Y78835D01*
X128533Y78967D01*
X128536Y78973D01*
X128663D01*
X128667Y78967D01*
X128866Y78835D01*
X129100Y78788D01*
X129334Y78835D01*
X129533Y78967D01*
X129536Y78973D01*
X129663D01*
X129667Y78967D01*
X129866Y78835D01*
X130100Y78788D01*
X130334Y78835D01*
X130533Y78967D01*
X130536Y78973D01*
X130663D01*
X130667Y78967D01*
X130866Y78835D01*
X131100Y78788D01*
X131334Y78835D01*
X131533Y78967D01*
X131536Y78973D01*
X131663D01*
X131667Y78967D01*
X131866Y78835D01*
X132100Y78788D01*
X132334Y78835D01*
X132533Y78967D01*
X132536Y78973D01*
X132663D01*
X132667Y78967D01*
X132866Y78835D01*
X133100Y78788D01*
X133334Y78835D01*
X133533Y78967D01*
X133536Y78973D01*
X133663D01*
X133667Y78967D01*
X133866Y78835D01*
X134100Y78788D01*
X134334Y78835D01*
X134533Y78967D01*
X134536Y78973D01*
X134663D01*
X134667Y78967D01*
X134866Y78835D01*
X135100Y78788D01*
X135334Y78835D01*
X135533Y78967D01*
X135536Y78973D01*
X135663D01*
X135667Y78967D01*
X135866Y78835D01*
X136100Y78788D01*
X136334Y78835D01*
X136533Y78967D01*
X136536Y78973D01*
X136663D01*
X136667Y78967D01*
X136866Y78835D01*
X137100Y78788D01*
X137334Y78835D01*
X137533Y78967D01*
X137536Y78973D01*
X137663D01*
X137667Y78967D01*
X137866Y78835D01*
X138100Y78788D01*
X138334Y78835D01*
X138533Y78967D01*
X138536Y78973D01*
X138663D01*
X138667Y78967D01*
X138866Y78835D01*
X139100Y78788D01*
X139334Y78835D01*
X139533Y78967D01*
X139536Y78973D01*
X139663D01*
X139667Y78967D01*
X139866Y78835D01*
X140100Y78788D01*
X140334Y78835D01*
X140533Y78967D01*
X140536Y78973D01*
X140663D01*
X140667Y78967D01*
X140866Y78835D01*
X141100Y78788D01*
X141334Y78835D01*
X141533Y78967D01*
X141536Y78973D01*
X141663D01*
X141667Y78967D01*
X141866Y78835D01*
X142100Y78788D01*
X142334Y78835D01*
X142533Y78967D01*
X142536Y78973D01*
X142663D01*
X142667Y78967D01*
X142866Y78835D01*
X143100Y78788D01*
X143334Y78835D01*
X143533Y78967D01*
X143536Y78973D01*
X143663D01*
X143667Y78967D01*
X143866Y78835D01*
X144100Y78788D01*
X144334Y78835D01*
X144533Y78967D01*
X144536Y78973D01*
X144663D01*
X144667Y78967D01*
X144866Y78835D01*
X145100Y78788D01*
X145334Y78835D01*
X145533Y78967D01*
X145536Y78973D01*
X145663D01*
X145667Y78967D01*
X145866Y78835D01*
X146100Y78788D01*
X146334Y78835D01*
X146533Y78967D01*
X146536Y78973D01*
X146663D01*
X146667Y78967D01*
X146866Y78835D01*
X147100Y78788D01*
X147334Y78835D01*
X147533Y78967D01*
X147536Y78973D01*
X147663D01*
X147667Y78967D01*
X147866Y78835D01*
X148100Y78788D01*
X148334Y78835D01*
X148533Y78967D01*
X148536Y78973D01*
X148663D01*
X148667Y78967D01*
X148866Y78835D01*
X149100Y78788D01*
X149334Y78835D01*
X149533Y78967D01*
X149536Y78973D01*
X149663D01*
X149667Y78967D01*
X149866Y78835D01*
X150100Y78788D01*
X150334Y78835D01*
X150533Y78967D01*
X150536Y78973D01*
X150663D01*
X150667Y78967D01*
X150866Y78835D01*
X151100Y78788D01*
X151334Y78835D01*
X151533Y78967D01*
X151536Y78973D01*
X151663D01*
X151667Y78967D01*
X151866Y78835D01*
X152100Y78788D01*
X152334Y78835D01*
X152533Y78967D01*
X152536Y78973D01*
X152663D01*
X152667Y78967D01*
X152866Y78835D01*
X153100Y78788D01*
X153334Y78835D01*
X153533Y78967D01*
X153665Y79166D01*
X153712Y79400D01*
X153665Y79634D01*
X153650Y79657D01*
X153700Y79750D01*
X153700D01*
X153700Y79750D01*
Y80950D01*
X137700D01*
Y80950D01*
X133700D01*
Y80950D01*
D02*
G37*
G36*
X153700Y76800D02*
X153200D01*
Y76300D01*
X153700D01*
Y76800D01*
D02*
G37*
G36*
X148900Y86400D02*
X148100D01*
Y85550D01*
X148900D01*
Y86400D01*
D02*
G37*
G36*
X149900D02*
X149100D01*
Y85550D01*
X149900D01*
Y86400D01*
D02*
G37*
G36*
X157700Y86809D02*
X157347Y86774D01*
X157008Y86671D01*
X156695Y86504D01*
X156421Y86279D01*
X156196Y86005D01*
X156029Y85692D01*
X155926Y85353D01*
X155891Y85000D01*
X155926Y84647D01*
X156029Y84308D01*
X156196Y83995D01*
X156421Y83721D01*
X156695Y83496D01*
X157008Y83329D01*
X157347Y83226D01*
X157700Y83191D01*
X158053Y83226D01*
X158392Y83329D01*
X158705Y83496D01*
X158979Y83721D01*
X159204Y83995D01*
X159371Y84308D01*
X159474Y84647D01*
X159509Y85000D01*
X159474Y85353D01*
X159371Y85692D01*
X159204Y86005D01*
X158979Y86279D01*
X158705Y86504D01*
X158392Y86671D01*
X158053Y86774D01*
X157700Y86809D01*
D02*
G37*
G36*
X58000Y76800D02*
X57500D01*
Y76300D01*
X58000D01*
Y76800D01*
D02*
G37*
G36*
X151000D02*
X150200D01*
Y76200D01*
Y75600D01*
X151000D01*
Y76200D01*
Y76800D01*
D02*
G37*
G36*
X150000D02*
X149200D01*
Y76200D01*
Y75600D01*
X150000D01*
Y76200D01*
Y76800D01*
D02*
G37*
G36*
X149000D02*
X148200D01*
Y76200D01*
Y75600D01*
X149000D01*
Y76200D01*
Y76800D01*
D02*
G37*
G36*
X153700Y76100D02*
X153200D01*
Y75600D01*
X153700D01*
Y76100D01*
D02*
G37*
G36*
X153000Y76800D02*
X152200D01*
Y76200D01*
Y75600D01*
X153000D01*
Y76200D01*
Y76800D01*
D02*
G37*
G36*
X152000D02*
X151200D01*
Y76200D01*
Y75600D01*
X152000D01*
Y76200D01*
Y76800D01*
D02*
G37*
G36*
X108000D02*
X107200D01*
Y76200D01*
Y75600D01*
X108000D01*
Y76200D01*
Y76800D01*
D02*
G37*
G36*
X107000D02*
X106200D01*
Y76200D01*
Y75600D01*
X107000D01*
Y76200D01*
Y76800D01*
D02*
G37*
G36*
X106000D02*
X105200D01*
Y76200D01*
Y75600D01*
X106000D01*
Y76200D01*
Y76800D01*
D02*
G37*
G36*
X111000D02*
X110200D01*
Y76200D01*
Y75600D01*
X111000D01*
Y76200D01*
Y76800D01*
D02*
G37*
G36*
X110000D02*
X109200D01*
Y76200D01*
Y75600D01*
X110000D01*
Y76200D01*
Y76800D01*
D02*
G37*
G36*
X109000D02*
X108200D01*
Y76200D01*
Y75600D01*
X109000D01*
Y76200D01*
Y76800D01*
D02*
G37*
G36*
X105000D02*
X104200D01*
Y76200D01*
Y75600D01*
X105000D01*
Y76200D01*
Y76800D01*
D02*
G37*
G36*
X100000D02*
X99200D01*
Y76200D01*
Y75600D01*
X100000D01*
Y76200D01*
Y76800D01*
D02*
G37*
G36*
X101000D02*
X100200D01*
Y76200D01*
Y75600D01*
X101000D01*
Y76200D01*
Y76800D01*
D02*
G37*
G36*
X102000D02*
X101200D01*
Y76200D01*
Y75600D01*
X102000D01*
Y76200D01*
Y76800D01*
D02*
G37*
G36*
X104000D02*
X103200D01*
Y76200D01*
Y75600D01*
X104000D01*
Y76200D01*
Y76800D01*
D02*
G37*
G36*
X103000D02*
X102200D01*
Y76200D01*
Y75600D01*
X103000D01*
Y76200D01*
Y76800D01*
D02*
G37*
G36*
X99000D02*
X98200D01*
Y76200D01*
Y75600D01*
X99000D01*
Y76200D01*
Y76800D01*
D02*
G37*
G36*
X112000D02*
X111200D01*
Y76200D01*
Y75600D01*
X112000D01*
Y76200D01*
Y76800D01*
D02*
G37*
G36*
X122000D02*
X121200D01*
Y76200D01*
Y75600D01*
X122000D01*
Y76200D01*
Y76800D01*
D02*
G37*
G36*
X121000D02*
X120200D01*
Y76200D01*
Y75600D01*
X121000D01*
Y76200D01*
Y76800D01*
D02*
G37*
G36*
X120000D02*
X119200D01*
Y76200D01*
Y75600D01*
X120000D01*
Y76200D01*
Y76800D01*
D02*
G37*
G36*
X125000D02*
X124200D01*
Y76200D01*
Y75600D01*
X125000D01*
Y76200D01*
Y76800D01*
D02*
G37*
G36*
X124000D02*
X123200D01*
Y76200D01*
Y75600D01*
X124000D01*
Y76200D01*
Y76800D01*
D02*
G37*
G36*
X123000D02*
X122200D01*
Y76200D01*
Y75600D01*
X123000D01*
Y76200D01*
Y76800D01*
D02*
G37*
G36*
X119000D02*
X118200D01*
Y76200D01*
Y75600D01*
X119000D01*
Y76200D01*
Y76800D01*
D02*
G37*
G36*
X115000D02*
X114200D01*
Y76200D01*
Y75600D01*
X115000D01*
Y76200D01*
Y76800D01*
D02*
G37*
G36*
X116000D02*
X115200D01*
Y76200D01*
Y75600D01*
X116000D01*
Y76200D01*
Y76800D01*
D02*
G37*
G36*
X113000D02*
X112200D01*
Y76200D01*
Y75600D01*
X113000D01*
Y76200D01*
Y76800D01*
D02*
G37*
G36*
X114000D02*
X113200D01*
Y76200D01*
Y75600D01*
X114000D01*
Y76200D01*
Y76800D01*
D02*
G37*
G36*
X117000D02*
X116200D01*
Y76200D01*
Y75600D01*
X117000D01*
Y76200D01*
Y76800D01*
D02*
G37*
G36*
X118000D02*
X117200D01*
Y76200D01*
Y75600D01*
X118000D01*
Y76200D01*
Y76800D01*
D02*
G37*
%LPD*%
G36*
X82300Y86908D02*
X81300D01*
Y87100D01*
X80100D01*
Y85900D01*
X81300D01*
Y86092D01*
X82300D01*
Y85550D01*
X82692D01*
Y82450D01*
X67508D01*
Y85550D01*
X67900D01*
Y87242D01*
X68100D01*
Y86600D01*
X69900D01*
Y87242D01*
X78692D01*
Y87100D01*
X78500D01*
Y85900D01*
X79700D01*
Y87100D01*
X79508D01*
Y87242D01*
X82300D01*
Y86908D01*
D02*
G37*
G36*
X98300D02*
X97000D01*
Y87100D01*
X95800D01*
Y85900D01*
X97000D01*
Y86092D01*
X98300D01*
Y85550D01*
X98692D01*
Y82450D01*
X95500D01*
Y82450D01*
X92700D01*
Y82450D01*
X83508D01*
Y85550D01*
X84100D01*
Y87242D01*
X84300D01*
Y86600D01*
X86100D01*
Y87242D01*
X94392D01*
Y87100D01*
X94200D01*
Y85900D01*
X95400D01*
Y87100D01*
X95208D01*
Y87242D01*
X98300D01*
Y86908D01*
D02*
G37*
G36*
X153792Y54169D02*
X150731Y51108D01*
X148200D01*
Y52200D01*
X148008D01*
Y52500D01*
X148200D01*
Y53700D01*
X147577D01*
X147150Y54127D01*
Y55600D01*
X145650D01*
Y54533D01*
X145503Y54386D01*
X144950D01*
Y54630D01*
X142050D01*
Y53530D01*
X144950D01*
Y53774D01*
X145400D01*
Y53700D01*
X145400D01*
Y53116D01*
X144950D01*
Y53360D01*
X142050D01*
X142050Y53360D01*
Y53360D01*
X142001Y53334D01*
X141954Y53365D01*
X141720Y53412D01*
X141486Y53365D01*
X141287Y53233D01*
X141273Y53211D01*
X141146D01*
X141132Y53232D01*
X140977Y53336D01*
Y53463D01*
X141133Y53567D01*
X141265Y53766D01*
X141312Y54000D01*
X141265Y54234D01*
X141133Y54433D01*
X140934Y54565D01*
X140700Y54612D01*
X140466Y54565D01*
X140267Y54433D01*
X140172Y54289D01*
X140050Y54326D01*
Y54630D01*
X138700D01*
Y54080D01*
Y53530D01*
X139731D01*
X139758Y53466D01*
X139688Y53360D01*
X137150D01*
Y53116D01*
X136700D01*
Y53600D01*
X135500D01*
Y52400D01*
X136700D01*
Y52504D01*
X137150D01*
Y52260D01*
X139761D01*
X139788Y52196D01*
X139718Y52090D01*
X137150D01*
Y51846D01*
X136700D01*
Y52200D01*
X135500D01*
Y51108D01*
X135100D01*
Y52200D01*
X134908D01*
Y52400D01*
X135100D01*
Y53600D01*
X133900D01*
Y52400D01*
X134092D01*
Y52200D01*
X133900D01*
Y51108D01*
X133527D01*
X133468Y51220D01*
X133565Y51366D01*
X133612Y51600D01*
X133565Y51834D01*
X133433Y52033D01*
X133306Y52117D01*
Y55673D01*
X133947Y56314D01*
X137150D01*
Y56070D01*
X140050D01*
Y56314D01*
X140694D01*
Y55900D01*
X140694Y55900D01*
X140717Y55783D01*
X140784Y55684D01*
X141334Y55134D01*
D01*
X141334D01*
Y55134D01*
D01*
X141334D01*
Y55134D01*
X141334D01*
X141334Y55134D01*
Y55134D01*
X141334Y55134D01*
Y55134D01*
X141433Y55067D01*
X141550Y55044D01*
X142050D01*
Y54800D01*
X144950D01*
Y55900D01*
X142050D01*
Y55656D01*
X141677D01*
X141306Y56027D01*
Y56540D01*
X141300Y56570D01*
X141306Y56600D01*
Y57584D01*
X142050D01*
Y57340D01*
X144950D01*
Y58440D01*
X142050D01*
Y58196D01*
X141306D01*
Y58700D01*
X141306Y58700D01*
X141283Y58817D01*
X141216Y58916D01*
X140756Y59376D01*
X140657Y59443D01*
X140540Y59466D01*
X140540Y59466D01*
X140050D01*
Y59594D01*
X142050D01*
Y58610D01*
X144950D01*
Y58854D01*
X145400D01*
Y58500D01*
X146600D01*
Y59700D01*
X145833D01*
X145686Y59847D01*
X145765Y59966D01*
X145778Y60032D01*
X145896Y60081D01*
X145998Y60013D01*
X146232Y59966D01*
X146466Y60013D01*
X146665Y60145D01*
X146797Y60344D01*
X146832Y60519D01*
X153792D01*
Y54169D01*
D02*
G37*
G36*
X90756Y59762D02*
X90763Y59757D01*
X90727Y59635D01*
X90425D01*
Y58535D01*
X93325D01*
Y58894D01*
X93800D01*
Y57900D01*
X95000D01*
Y58894D01*
X95400D01*
Y58086D01*
X95383Y58083D01*
X95284Y58016D01*
X94467Y57200D01*
X93800D01*
Y56851D01*
X93325D01*
Y57095D01*
X90425D01*
Y55995D01*
X93325D01*
Y56239D01*
X93800D01*
Y56000D01*
X95000D01*
Y56867D01*
X95283Y57150D01*
X95400Y57101D01*
Y56000D01*
X96600D01*
Y56294D01*
X102200D01*
X102200Y56294D01*
X102317Y56317D01*
X102416Y56384D01*
X103727Y57694D01*
X104176D01*
X104185Y57567D01*
X104009Y57544D01*
X103766Y57444D01*
X103557Y57283D01*
X103396Y57074D01*
X103296Y56831D01*
X103261Y56570D01*
X103296Y56309D01*
X103396Y56066D01*
X103557Y55857D01*
X103766Y55697D01*
X104009Y55596D01*
X104270Y55561D01*
X104531Y55596D01*
X104774Y55697D01*
X104983Y55857D01*
X105144Y56066D01*
X105244Y56309D01*
X105279Y56570D01*
X105244Y56831D01*
X105144Y57074D01*
X104983Y57283D01*
X104774Y57444D01*
X104531Y57544D01*
X104355Y57567D01*
X104364Y57694D01*
X105253D01*
X105918Y57029D01*
X105836Y56831D01*
X105801Y56570D01*
X105836Y56309D01*
X105937Y56066D01*
X106097Y55857D01*
X106306Y55697D01*
X106549Y55596D01*
X106810Y55561D01*
X107071Y55596D01*
X107314Y55697D01*
X107523Y55857D01*
X107684Y56066D01*
X107784Y56309D01*
X107819Y56570D01*
X107784Y56831D01*
X107684Y57074D01*
X107523Y57283D01*
X107314Y57444D01*
X107071Y57544D01*
X106810Y57579D01*
X106549Y57544D01*
X106351Y57462D01*
X105736Y58077D01*
X105784Y58194D01*
X107293D01*
X108458Y57029D01*
X108376Y56831D01*
X108341Y56570D01*
X108376Y56309D01*
X108477Y56066D01*
X108637Y55857D01*
X108846Y55697D01*
X109089Y55596D01*
X109350Y55561D01*
X109611Y55596D01*
X109854Y55697D01*
X110063Y55857D01*
X110224Y56066D01*
X110324Y56309D01*
X110359Y56570D01*
X110324Y56831D01*
X110224Y57074D01*
X110063Y57283D01*
X109854Y57444D01*
X109611Y57544D01*
X109350Y57579D01*
X109089Y57544D01*
X108891Y57462D01*
X107636Y58716D01*
X107537Y58783D01*
X107420Y58806D01*
X107420Y58806D01*
X101517D01*
X101433Y58933D01*
X101234Y59065D01*
X101002Y59111D01*
X100965Y59233D01*
X101127Y59394D01*
X112214D01*
X112688Y59300D01*
X112735Y59066D01*
X112867Y58867D01*
X113066Y58735D01*
X113300Y58688D01*
X113429Y58714D01*
X113489Y58602D01*
X112349Y57462D01*
X112151Y57544D01*
X111890Y57579D01*
X111629Y57544D01*
X111386Y57444D01*
X111177Y57283D01*
X111017Y57074D01*
X110916Y56831D01*
X110881Y56570D01*
X110916Y56309D01*
X111017Y56066D01*
X111177Y55857D01*
X111386Y55697D01*
X111629Y55596D01*
X111890Y55561D01*
X112151Y55596D01*
X112394Y55697D01*
X112603Y55857D01*
X112763Y56066D01*
X112864Y56309D01*
X112899Y56570D01*
X112864Y56831D01*
X112782Y57029D01*
X114347Y58594D01*
X115856D01*
X115904Y58477D01*
X114889Y57462D01*
X114691Y57544D01*
X114430Y57579D01*
X114169Y57544D01*
X113926Y57444D01*
X113717Y57283D01*
X113557Y57074D01*
X113456Y56831D01*
X113421Y56570D01*
X113456Y56309D01*
X113557Y56066D01*
X113717Y55857D01*
X113926Y55697D01*
X114169Y55596D01*
X114430Y55561D01*
X114691Y55596D01*
X114934Y55697D01*
X115143Y55857D01*
X115303Y56066D01*
X115404Y56309D01*
X115439Y56570D01*
X115404Y56831D01*
X115322Y57029D01*
X116387Y58094D01*
X117896D01*
X117944Y57977D01*
X117429Y57462D01*
X117231Y57544D01*
X116970Y57579D01*
X116709Y57544D01*
X116466Y57444D01*
X116257Y57283D01*
X116096Y57074D01*
X115996Y56831D01*
X115961Y56570D01*
X115996Y56309D01*
X116096Y56066D01*
X116257Y55857D01*
X116466Y55697D01*
X116709Y55596D01*
X116970Y55561D01*
X117231Y55596D01*
X117474Y55697D01*
X117683Y55857D01*
X117843Y56066D01*
X117944Y56309D01*
X117979Y56570D01*
X117944Y56831D01*
X117862Y57029D01*
X118427Y57594D01*
X119044D01*
X119069Y57470D01*
X119006Y57444D01*
X118797Y57283D01*
X118636Y57074D01*
X118536Y56831D01*
X118501Y56570D01*
X118536Y56309D01*
X118636Y56066D01*
X118797Y55857D01*
X119006Y55697D01*
X119249Y55596D01*
X119510Y55561D01*
X119771Y55596D01*
X120014Y55697D01*
X120223Y55857D01*
X120383Y56066D01*
X120484Y56309D01*
X120519Y56570D01*
X120484Y56831D01*
X120402Y57029D01*
X122316Y58944D01*
X122316Y58944D01*
X122356Y59003D01*
X122383Y59043D01*
X122406Y59160D01*
X122406Y59160D01*
X122406Y59160D01*
Y59160D01*
Y59383D01*
X122533Y59467D01*
X122665Y59666D01*
X122712Y59900D01*
X122665Y60134D01*
X122623Y60197D01*
Y60228D01*
X122741Y60277D01*
X123181Y59837D01*
X123280Y59770D01*
X123397Y59747D01*
X123397Y59747D01*
X130928D01*
X130928Y59747D01*
X131045Y59770D01*
X131144Y59837D01*
X131396Y60089D01*
X131547Y59988D01*
X131781Y59941D01*
X132016Y59988D01*
X132199Y60110D01*
X132280Y60012D01*
X130873Y58606D01*
X123780D01*
X123780Y58606D01*
X123663Y58583D01*
X123564Y58516D01*
X123564Y58516D01*
X122509Y57462D01*
X122311Y57544D01*
X122050Y57579D01*
X121789Y57544D01*
X121546Y57444D01*
X121337Y57283D01*
X121176Y57074D01*
X121076Y56831D01*
X121041Y56570D01*
X121076Y56309D01*
X121176Y56066D01*
X121337Y55857D01*
X121546Y55697D01*
X121789Y55596D01*
X122050Y55561D01*
X122311Y55596D01*
X122554Y55697D01*
X122763Y55857D01*
X122924Y56066D01*
X123024Y56309D01*
X123059Y56570D01*
X123024Y56831D01*
X122942Y57029D01*
X123907Y57994D01*
X125416D01*
X125464Y57877D01*
X125049Y57462D01*
X124851Y57544D01*
X124590Y57579D01*
X124329Y57544D01*
X124086Y57444D01*
X123877Y57283D01*
X123716Y57074D01*
X123616Y56831D01*
X123581Y56570D01*
X123616Y56309D01*
X123716Y56066D01*
X123877Y55857D01*
X124086Y55697D01*
X124329Y55596D01*
X124590Y55561D01*
X124851Y55596D01*
X125094Y55697D01*
X125303Y55857D01*
X125464Y56066D01*
X125564Y56309D01*
X125599Y56570D01*
X125564Y56831D01*
X125482Y57029D01*
X126047Y57594D01*
X126664D01*
X126689Y57470D01*
X126626Y57444D01*
X126417Y57283D01*
X126257Y57074D01*
X126156Y56831D01*
X126135Y56670D01*
X128125D01*
X128104Y56831D01*
X128003Y57074D01*
X127843Y57283D01*
X127634Y57444D01*
X127571Y57470D01*
X127596Y57594D01*
X133900D01*
Y57300D01*
X135100D01*
Y58401D01*
X135217Y58450D01*
X135500Y58167D01*
Y57300D01*
X136700D01*
Y57584D01*
X137150D01*
Y57340D01*
X140050D01*
Y58440D01*
X137150D01*
Y58196D01*
X136700D01*
Y58500D01*
X136033D01*
X135316Y59216D01*
X135217Y59283D01*
X135100Y59306D01*
X135100Y59306D01*
X133617D01*
X133533Y59433D01*
X133473Y59473D01*
X133510Y59594D01*
X137150D01*
Y58610D01*
X140050D01*
Y58854D01*
X140413D01*
X140694Y58573D01*
Y56926D01*
X140050D01*
Y57170D01*
X137150D01*
Y56926D01*
X133820D01*
X133703Y56903D01*
X133604Y56836D01*
X132784Y56016D01*
X132717Y55917D01*
X132694Y55800D01*
X132694Y55800D01*
Y52117D01*
X132567Y52033D01*
X132435Y51834D01*
X132388Y51600D01*
X132435Y51366D01*
X132532Y51220D01*
X132473Y51108D01*
X127729D01*
X127538Y51299D01*
Y53117D01*
X127634Y53157D01*
X127843Y53317D01*
X128003Y53526D01*
X128104Y53769D01*
X128139Y54030D01*
X128104Y54291D01*
X128003Y54534D01*
X127843Y54743D01*
X127634Y54903D01*
X127391Y55004D01*
X127130Y55039D01*
X126869Y55004D01*
X126626Y54903D01*
X126417Y54743D01*
X126257Y54534D01*
X126156Y54291D01*
X126121Y54030D01*
X126156Y53769D01*
X126257Y53526D01*
X126417Y53317D01*
X126626Y53157D01*
X126722Y53117D01*
Y51299D01*
X126506Y51083D01*
X96600D01*
Y52075D01*
X96408D01*
Y52300D01*
X96600D01*
Y53500D01*
X95977D01*
X95400Y54077D01*
Y55450D01*
X93900D01*
Y54383D01*
X93828Y54311D01*
X93325D01*
Y54555D01*
X90425D01*
Y54163D01*
X90303Y54126D01*
X90233Y54233D01*
X90034Y54365D01*
X89800Y54412D01*
X89566Y54365D01*
X89367Y54233D01*
X89235Y54034D01*
X89188Y53800D01*
X89235Y53566D01*
X89367Y53367D01*
X89448Y53314D01*
Y53187D01*
X89367Y53132D01*
X89313Y53052D01*
X89186D01*
X89133Y53133D01*
X88934Y53265D01*
X88700Y53312D01*
X88466Y53265D01*
X88464Y53264D01*
X88425Y53285D01*
Y53285D01*
X88425Y53285D01*
X85525D01*
Y53041D01*
X85100D01*
Y53500D01*
X83900D01*
Y52300D01*
X85100D01*
Y52429D01*
X85525D01*
Y52185D01*
X88333D01*
X88423Y52095D01*
Y52037D01*
X88391Y52015D01*
X85525D01*
Y51781D01*
X85100D01*
Y52075D01*
X83900D01*
Y51083D01*
X83500D01*
Y52075D01*
X83308D01*
Y52300D01*
X83500D01*
Y53500D01*
X82300D01*
Y52300D01*
X82492D01*
Y52075D01*
X82300D01*
Y51083D01*
X80577D01*
X80518Y51195D01*
X80565Y51266D01*
X80612Y51500D01*
X80565Y51734D01*
X80432Y51932D01*
X80306Y52017D01*
Y54700D01*
X80600D01*
Y55467D01*
X81427Y56294D01*
X82383D01*
X82467Y56167D01*
X82666Y56035D01*
X82708Y56026D01*
X82696Y55900D01*
X82300D01*
X82300Y55900D01*
Y55900D01*
X82234Y55865D01*
X82234Y55865D01*
X82000Y55912D01*
X81766Y55865D01*
X81567Y55733D01*
X81435Y55534D01*
X81388Y55300D01*
X81435Y55066D01*
X81567Y54867D01*
X81766Y54735D01*
X82000Y54688D01*
X82234Y54735D01*
X82234Y54735D01*
X82300Y54700D01*
Y54700D01*
X82300Y54700D01*
X83500D01*
Y55900D01*
X83104D01*
X83092Y56026D01*
X83134Y56035D01*
X83333Y56167D01*
X83465Y56366D01*
X83478Y56431D01*
X83600Y56468D01*
X84050Y56017D01*
X84001Y55900D01*
X83900D01*
Y54700D01*
X85100D01*
Y54969D01*
X85525D01*
Y54725D01*
X88425D01*
Y55825D01*
X85525D01*
Y55581D01*
X85100D01*
Y55900D01*
X85100D01*
Y56008D01*
X85234Y56035D01*
X85413Y56154D01*
X85525Y56094D01*
Y55995D01*
X88425D01*
Y56239D01*
X89094D01*
Y55825D01*
X89094Y55825D01*
X89117Y55708D01*
X89184Y55609D01*
X89734Y55059D01*
X89833Y54992D01*
X89950Y54969D01*
X90425D01*
Y54725D01*
X93325D01*
Y55825D01*
X90425D01*
Y55581D01*
X90077D01*
X89706Y55952D01*
Y56540D01*
X89705Y56542D01*
X89706Y56545D01*
Y57509D01*
X90425D01*
Y57265D01*
X93325D01*
Y58365D01*
X90425D01*
Y58121D01*
X89706D01*
Y58325D01*
X89706Y58325D01*
X89683Y58442D01*
X89616Y58541D01*
X89616Y58541D01*
X88856Y59301D01*
X88757Y59368D01*
X88640Y59391D01*
X88640Y59391D01*
X88425D01*
Y59635D01*
X85525D01*
Y58535D01*
X88425D01*
Y58701D01*
X88542Y58750D01*
X89094Y58198D01*
Y57825D01*
X89094Y57825D01*
X89094Y57825D01*
Y56851D01*
X88425D01*
Y57095D01*
X85525D01*
Y57095D01*
X85339Y57095D01*
X85234Y57165D01*
X85000Y57212D01*
X84766Y57165D01*
X84567Y57033D01*
X84435Y56834D01*
X84405Y56686D01*
X84284Y56649D01*
X83500Y57433D01*
Y58201D01*
X83617Y58250D01*
X83900Y57967D01*
Y57400D01*
X85100D01*
Y57509D01*
X85525D01*
Y57265D01*
X88425D01*
Y58365D01*
X85525D01*
Y58121D01*
X85100D01*
Y58600D01*
X84133D01*
X83216Y59516D01*
X83117Y59583D01*
X83000Y59606D01*
X83000Y59606D01*
X82966D01*
X82929Y59727D01*
X83013Y59784D01*
X83402Y60172D01*
X83422Y60170D01*
X83620Y60038D01*
X83854Y59991D01*
X84088Y60038D01*
X84287Y60170D01*
X84419Y60369D01*
X84444Y60494D01*
X90023D01*
X90756Y59762D01*
D02*
G37*
G36*
X114300Y86908D02*
X113100D01*
Y87100D01*
X111900D01*
Y85900D01*
X113100D01*
Y86092D01*
X114300D01*
Y85550D01*
X114692D01*
Y82450D01*
X99508D01*
Y85550D01*
X100100D01*
Y87242D01*
X100300D01*
Y86600D01*
X102100D01*
Y87242D01*
X110392D01*
Y87100D01*
X110300D01*
Y85900D01*
X111500D01*
Y87100D01*
X111208D01*
Y87242D01*
X114300D01*
Y86908D01*
D02*
G37*
G36*
X105667Y73167D02*
X105866Y73035D01*
X106100Y72988D01*
X106196Y73007D01*
X106294Y72927D01*
Y66000D01*
X106294Y66000D01*
X106317Y65883D01*
X106384Y65784D01*
X107583Y64584D01*
X107523Y64472D01*
X107325Y64512D01*
X107091Y64465D01*
X106892Y64333D01*
X106760Y64134D01*
X106743Y64052D01*
X106626Y64003D01*
X106534Y64065D01*
X106300Y64112D01*
X106066Y64065D01*
X105867Y63932D01*
X105735Y63734D01*
X105688Y63500D01*
X105215Y63406D01*
X104744D01*
X104627Y63382D01*
X104528Y63316D01*
X104528Y63316D01*
X104168Y62956D01*
X101977D01*
X101841Y63091D01*
X101742Y63158D01*
X101700Y63166D01*
Y63425D01*
X99300D01*
Y63306D01*
X99275Y63181D01*
X99158Y63158D01*
X99059Y63091D01*
X99059Y63091D01*
X97973Y62006D01*
X95900D01*
Y62125D01*
X94700D01*
Y62325D01*
X95900D01*
Y62500D01*
Y63150D01*
Y63800D01*
Y64450D01*
Y65100D01*
Y65750D01*
Y66400D01*
Y67050D01*
Y67700D01*
Y68350D01*
Y68701D01*
X96017Y68750D01*
X96694Y68073D01*
Y64576D01*
X96517Y64458D01*
X96385Y64259D01*
X96338Y64025D01*
X96385Y63791D01*
X96517Y63592D01*
X96716Y63460D01*
X96950Y63413D01*
X97184Y63460D01*
X97383Y63592D01*
X97515Y63791D01*
X97562Y64025D01*
X97515Y64259D01*
X97383Y64458D01*
X97306Y64509D01*
Y68200D01*
X97306Y68200D01*
X97283Y68317D01*
X97216Y68416D01*
X97216Y68416D01*
X96041Y69591D01*
X95942Y69658D01*
X95900Y69666D01*
Y69750D01*
X93849D01*
X93800Y69867D01*
X95783Y71850D01*
X95900Y71801D01*
Y71400D01*
X96550D01*
Y72050D01*
X96149D01*
X96100Y72167D01*
X96951Y73018D01*
X97100Y72988D01*
X97334Y73035D01*
X97533Y73167D01*
X97536Y73173D01*
X97663D01*
X97667Y73167D01*
X97866Y73035D01*
X98100Y72988D01*
X98249Y73018D01*
X99100Y72167D01*
X99051Y72050D01*
X97800D01*
Y70550D01*
X98144D01*
Y64617D01*
X98017Y64533D01*
X97885Y64334D01*
X97838Y64100D01*
X97885Y63866D01*
X98017Y63667D01*
X98216Y63535D01*
X98450Y63488D01*
X98684Y63535D01*
X98883Y63667D01*
X99015Y63866D01*
X99062Y64100D01*
X99015Y64334D01*
X98883Y64533D01*
X98756Y64617D01*
Y70550D01*
X99300D01*
Y70701D01*
X99417Y70750D01*
X100194Y69973D01*
Y69750D01*
X99300D01*
Y69000D01*
Y68350D01*
Y67700D01*
Y67050D01*
Y66400D01*
Y65750D01*
Y65100D01*
Y64450D01*
Y63800D01*
Y63625D01*
X101700D01*
Y63800D01*
Y63869D01*
X102775D01*
X102775Y63869D01*
X102892Y63892D01*
X102991Y63959D01*
X104816Y65784D01*
X104816Y65784D01*
X104883Y65883D01*
X104883Y65883D01*
X104883Y65883D01*
X104906Y66000D01*
X104906Y66000D01*
Y72927D01*
X105004Y73007D01*
X105100Y72988D01*
X105334Y73035D01*
X105533Y73167D01*
X105536Y73173D01*
X105663D01*
X105667Y73167D01*
D02*
G37*
G36*
X137667D02*
X137866Y73035D01*
X138100Y72988D01*
X138196Y73007D01*
X138294Y72927D01*
Y66000D01*
X138294Y66000D01*
X138317Y65883D01*
X138384Y65784D01*
X139971Y64197D01*
X139911Y64085D01*
X139775Y64112D01*
X139541Y64065D01*
X139342Y63933D01*
X139210Y63734D01*
X139163Y63500D01*
X139210Y63266D01*
X139292Y63143D01*
X139232Y63031D01*
X134002D01*
X133941Y63091D01*
X133842Y63158D01*
X133725Y63181D01*
D01*
D01*
D01*
X133725Y63181D01*
D01*
X133700Y63206D01*
Y63250D01*
Y63425D01*
X131300D01*
Y63176D01*
X131208Y63158D01*
X131109Y63091D01*
X130073Y62056D01*
X127900D01*
Y62125D01*
X126700D01*
Y62325D01*
X127900D01*
Y62500D01*
Y63150D01*
Y63800D01*
Y64450D01*
Y65100D01*
Y65750D01*
Y66400D01*
Y67050D01*
Y67700D01*
Y68350D01*
Y68901D01*
X128017Y68950D01*
X128594Y68373D01*
Y64292D01*
X128467Y64208D01*
X128335Y64009D01*
X128288Y63775D01*
X128335Y63541D01*
X128467Y63342D01*
X128666Y63210D01*
X128900Y63163D01*
X129134Y63210D01*
X129333Y63342D01*
X129465Y63541D01*
X129512Y63775D01*
X129465Y64009D01*
X129333Y64208D01*
X129206Y64292D01*
Y68500D01*
X129206Y68500D01*
X129183Y68617D01*
X129116Y68716D01*
X128241Y69591D01*
X128142Y69658D01*
X128025Y69681D01*
X128025Y69681D01*
X127900D01*
Y69750D01*
X125849D01*
X125800Y69867D01*
X127783Y71850D01*
X127900Y71801D01*
Y71400D01*
X128550D01*
Y72050D01*
X128149D01*
X128100Y72167D01*
X128951Y73018D01*
X129100Y72988D01*
X129334Y73035D01*
X129533Y73167D01*
X129536Y73173D01*
X129663D01*
X129667Y73167D01*
X129866Y73035D01*
X130100Y72988D01*
X130249Y73018D01*
X131100Y72167D01*
X131051Y72050D01*
X129800D01*
Y70550D01*
X130094D01*
Y64334D01*
X129942Y64233D01*
X129810Y64034D01*
X129763Y63800D01*
X129810Y63566D01*
X129942Y63367D01*
X130141Y63235D01*
X130375Y63188D01*
X130609Y63235D01*
X130808Y63367D01*
X130940Y63566D01*
X130987Y63800D01*
X130940Y64034D01*
X130808Y64233D01*
X130706Y64301D01*
Y70550D01*
X131300D01*
Y70801D01*
X131417Y70850D01*
X132194Y70073D01*
Y69750D01*
X131300D01*
Y69000D01*
Y68350D01*
Y67700D01*
Y67050D01*
Y66400D01*
Y65750D01*
Y65100D01*
Y64450D01*
Y63800D01*
Y63625D01*
X133700D01*
Y63800D01*
Y63869D01*
X134775D01*
X134775Y63869D01*
X134892Y63892D01*
X134991Y63959D01*
X136816Y65784D01*
X136883Y65883D01*
X136906Y66000D01*
Y72927D01*
X137004Y73007D01*
X137100Y72988D01*
X137334Y73035D01*
X137533Y73167D01*
X137536Y73173D01*
X137663D01*
X137667Y73167D01*
D02*
G37*
G36*
X121667D02*
X121866Y73035D01*
X122100Y72988D01*
X122196Y73007D01*
X122294Y72927D01*
Y66000D01*
X122294Y66000D01*
X122317Y65883D01*
X122384Y65784D01*
X123946Y64222D01*
X123886Y64110D01*
X123750Y64137D01*
X123516Y64090D01*
X123317Y63958D01*
X123185Y63759D01*
X123138Y63525D01*
X123185Y63291D01*
X123317Y63092D01*
X123516Y62960D01*
X123654Y62932D01*
X123642Y62806D01*
X122711D01*
X122665Y63034D01*
X122533Y63233D01*
X122334Y63365D01*
X122100Y63412D01*
X121951Y63382D01*
X121916Y63416D01*
X121817Y63483D01*
X121700Y63506D01*
X121700Y63506D01*
X118134D01*
X118017Y63483D01*
X117918Y63416D01*
X117817Y63316D01*
X117700Y63364D01*
Y63425D01*
X115300D01*
Y63250D01*
Y63181D01*
X115175D01*
X115058Y63158D01*
X114959Y63091D01*
X114959Y63091D01*
X113873Y62006D01*
X111900D01*
Y62125D01*
X110700D01*
Y62325D01*
X111900D01*
Y62500D01*
Y63150D01*
Y63800D01*
Y64450D01*
Y65100D01*
Y65750D01*
Y66400D01*
Y67050D01*
Y67700D01*
Y68350D01*
Y68901D01*
X112017Y68950D01*
X112594Y68373D01*
Y64559D01*
X112442Y64458D01*
X112310Y64259D01*
X112263Y64025D01*
X112310Y63791D01*
X112442Y63592D01*
X112641Y63460D01*
X112875Y63413D01*
X113109Y63460D01*
X113308Y63592D01*
X113440Y63791D01*
X113487Y64025D01*
X113440Y64259D01*
X113308Y64458D01*
X113206Y64526D01*
Y68500D01*
X113206Y68500D01*
X113183Y68617D01*
X113116Y68716D01*
X112241Y69591D01*
X112142Y69658D01*
X112025Y69681D01*
X112025Y69681D01*
X111900D01*
Y69750D01*
X109849D01*
X109800Y69867D01*
X111783Y71850D01*
X111900Y71801D01*
Y71400D01*
X112550D01*
Y72050D01*
X112149D01*
X112100Y72167D01*
X112951Y73018D01*
X113100Y72988D01*
X113334Y73035D01*
X113533Y73167D01*
X113536Y73173D01*
X113663D01*
X113667Y73167D01*
X113866Y73035D01*
X114100Y72988D01*
X114249Y73018D01*
X115100Y72167D01*
X115051Y72050D01*
X113800D01*
Y70550D01*
X114244D01*
Y64602D01*
X114225Y64587D01*
X113991Y64540D01*
X113792Y64408D01*
X113660Y64209D01*
X113613Y63975D01*
X113660Y63741D01*
X113792Y63542D01*
X113991Y63410D01*
X114225Y63363D01*
X114459Y63410D01*
X114658Y63542D01*
X114790Y63741D01*
X114837Y63975D01*
X114804Y64140D01*
X114806Y64143D01*
X114833Y64183D01*
X114856Y64300D01*
X114856Y64300D01*
X114856Y64300D01*
Y64300D01*
Y70550D01*
X115300D01*
Y70701D01*
X115417Y70750D01*
X116194Y69973D01*
Y69750D01*
X115300D01*
Y69000D01*
Y68350D01*
Y67700D01*
Y67050D01*
Y66400D01*
Y65750D01*
Y65100D01*
Y64450D01*
Y63800D01*
Y63625D01*
X117700D01*
Y63800D01*
Y63869D01*
X118775D01*
X118775Y63869D01*
X118892Y63892D01*
X118991Y63959D01*
X120816Y65784D01*
X120816Y65784D01*
X120883Y65883D01*
X120906Y66000D01*
X120906Y66000D01*
Y72927D01*
X121004Y73007D01*
X121100Y72988D01*
X121334Y73035D01*
X121533Y73167D01*
X121536Y73173D01*
X121663D01*
X121667Y73167D01*
D02*
G37*
G36*
X89667D02*
X89866Y73035D01*
X90100Y72988D01*
X90194Y72911D01*
Y66000D01*
X90194Y66000D01*
X90217Y65883D01*
X90284Y65784D01*
X91889Y64178D01*
X91829Y64066D01*
X91600Y64112D01*
X91366Y64065D01*
X91167Y63933D01*
X91035Y63734D01*
X90988Y63500D01*
X91035Y63266D01*
X91117Y63143D01*
X91057Y63031D01*
X86102D01*
X86041Y63091D01*
X85942Y63158D01*
X85825Y63181D01*
X85825Y63181D01*
X85700D01*
Y63250D01*
Y63425D01*
X83300D01*
Y63166D01*
X83258Y63158D01*
X83159Y63091D01*
X83159Y63091D01*
X82073Y62006D01*
X79900D01*
Y62125D01*
X78700D01*
Y62325D01*
X79900D01*
Y62500D01*
Y63150D01*
Y63800D01*
Y64450D01*
Y65100D01*
Y65750D01*
Y66400D01*
Y67050D01*
Y67700D01*
Y68350D01*
Y69000D01*
Y69069D01*
X80098D01*
X80588Y68579D01*
Y64322D01*
X80417Y64208D01*
X80285Y64009D01*
X80238Y63775D01*
X80285Y63541D01*
X80417Y63342D01*
X80616Y63210D01*
X80850Y63163D01*
X81084Y63210D01*
X81283Y63342D01*
X81415Y63541D01*
X81462Y63775D01*
X81415Y64009D01*
X81283Y64208D01*
X81200Y64263D01*
Y68706D01*
X81177Y68823D01*
X81150Y68863D01*
X81110Y68922D01*
X81110Y68922D01*
X80441Y69591D01*
X80342Y69658D01*
X80225Y69681D01*
X80225Y69681D01*
X79900D01*
Y69750D01*
X77849D01*
X77800Y69867D01*
X79783Y71850D01*
X79900Y71801D01*
Y71400D01*
X80550D01*
Y72050D01*
X80149D01*
X80100Y72167D01*
X80951Y73018D01*
X81100Y72988D01*
X81334Y73035D01*
X81533Y73167D01*
X81536Y73173D01*
X81663D01*
X81667Y73167D01*
X81866Y73035D01*
X82100Y72988D01*
X82249Y73018D01*
X83100Y72167D01*
X83051Y72050D01*
X81800D01*
Y70550D01*
X82094D01*
Y64317D01*
X81967Y64233D01*
X81835Y64034D01*
X81788Y63800D01*
X81835Y63566D01*
X81967Y63367D01*
X82166Y63235D01*
X82400Y63188D01*
X82634Y63235D01*
X82833Y63367D01*
X82965Y63566D01*
X83012Y63800D01*
X82965Y64034D01*
X82833Y64233D01*
X82706Y64317D01*
Y70550D01*
X83300D01*
Y70801D01*
X83417Y70850D01*
X84194Y70073D01*
Y69750D01*
X83300D01*
Y69000D01*
Y68350D01*
Y67700D01*
Y67050D01*
Y66400D01*
Y65750D01*
Y65100D01*
Y64450D01*
Y63800D01*
Y63625D01*
X85700D01*
Y63800D01*
Y63869D01*
X86775D01*
X86775Y63869D01*
X86892Y63892D01*
X86991Y63959D01*
X88816Y65784D01*
X88816Y65784D01*
X88883Y65883D01*
X88883Y65883D01*
X88883Y65883D01*
X88906Y66000D01*
X88906Y66000D01*
Y72927D01*
X89004Y73007D01*
X89100Y72988D01*
X89334Y73035D01*
X89533Y73167D01*
X89536Y73173D01*
X89663D01*
X89667Y73167D01*
D02*
G37*
G36*
X130300Y86908D02*
X129000D01*
Y87100D01*
X127800D01*
Y85900D01*
X129000D01*
Y86092D01*
X130300D01*
Y85550D01*
X130692D01*
Y82450D01*
X121500D01*
Y82450D01*
X115508D01*
Y85550D01*
X116100D01*
Y87242D01*
X116300D01*
Y86600D01*
X118100D01*
Y87242D01*
X126292D01*
Y87100D01*
X126200D01*
Y85900D01*
X127400D01*
Y87100D01*
X127108D01*
Y87242D01*
X130300D01*
Y86908D01*
D02*
G37*
G36*
X146100D02*
X144700D01*
Y87100D01*
X143500D01*
Y85900D01*
X144700D01*
Y86092D01*
X146100D01*
Y85550D01*
X146692D01*
Y82450D01*
X137700D01*
Y82450D01*
X133700D01*
Y82450D01*
X131508D01*
Y85550D01*
X132100D01*
Y87242D01*
X132300D01*
Y86600D01*
X134100D01*
Y87242D01*
X141992D01*
Y87100D01*
X141900D01*
Y85900D01*
X143100D01*
Y87100D01*
X142808D01*
Y87242D01*
X146100D01*
Y86908D01*
D02*
G37*
G36*
X65667Y73167D02*
X65866Y73035D01*
X66100Y72988D01*
X66249Y73018D01*
X67100Y72167D01*
X67051Y72050D01*
X65800D01*
Y70550D01*
X66094D01*
Y64451D01*
X65917Y64333D01*
X65785Y64134D01*
X65738Y63900D01*
X65785Y63666D01*
X65917Y63467D01*
X66116Y63335D01*
X66350Y63288D01*
X66584Y63335D01*
X66783Y63467D01*
X66915Y63666D01*
X66962Y63900D01*
X66915Y64134D01*
X66783Y64333D01*
X66706Y64384D01*
Y70550D01*
X67300D01*
Y70701D01*
X67417Y70750D01*
X68194Y69973D01*
Y69750D01*
X67300D01*
Y69000D01*
Y68350D01*
Y67700D01*
Y67050D01*
Y66400D01*
Y65750D01*
Y65100D01*
Y64450D01*
Y63800D01*
Y63625D01*
X69700D01*
Y63800D01*
Y63869D01*
X70875D01*
X70875Y63869D01*
X70992Y63892D01*
X71091Y63959D01*
X72816Y65684D01*
X72883Y65783D01*
X72906Y65900D01*
X72906Y65900D01*
X72906Y65900D01*
Y65900D01*
Y72927D01*
X73004Y73007D01*
X73100Y72988D01*
X73334Y73035D01*
X73533Y73167D01*
X73536Y73173D01*
X73663D01*
X73667Y73167D01*
X73866Y73035D01*
X74100Y72988D01*
X74196Y73007D01*
X74294Y72927D01*
Y65700D01*
X74294Y65700D01*
X74317Y65583D01*
X74384Y65484D01*
X75635Y64233D01*
X75598Y64111D01*
X75366Y64065D01*
X75167Y63933D01*
X75035Y63734D01*
X74988Y63500D01*
X75035Y63266D01*
X75167Y63068D01*
X75107Y62956D01*
X70052D01*
X69916Y63091D01*
X69817Y63158D01*
X69700Y63181D01*
Y63250D01*
Y63425D01*
X67300D01*
Y63150D01*
Y62500D01*
Y61956D01*
X63900D01*
Y62125D01*
X62700D01*
Y62325D01*
X63900D01*
Y62500D01*
Y63150D01*
Y63800D01*
Y64450D01*
Y65100D01*
Y65750D01*
Y66400D01*
Y67050D01*
Y67700D01*
Y68350D01*
Y68901D01*
X64017Y68950D01*
X64562Y68406D01*
Y64321D01*
X64392Y64208D01*
X64260Y64009D01*
X64213Y63775D01*
X64260Y63541D01*
X64392Y63342D01*
X64591Y63210D01*
X64825Y63163D01*
X65059Y63210D01*
X65258Y63342D01*
X65390Y63541D01*
X65437Y63775D01*
X65390Y64009D01*
X65258Y64208D01*
X65173Y64264D01*
Y68533D01*
X65173Y68533D01*
X65150Y68650D01*
X65084Y68749D01*
X65084Y68749D01*
X64241Y69591D01*
X64142Y69658D01*
X64025Y69681D01*
X64025Y69681D01*
X63900D01*
Y69750D01*
X61849D01*
X61800Y69867D01*
X63783Y71850D01*
X63900Y71801D01*
Y71400D01*
X64550D01*
Y72050D01*
X64149D01*
X64100Y72167D01*
X64951Y73018D01*
X65100Y72988D01*
X65334Y73035D01*
X65533Y73167D01*
X65536Y73173D01*
X65663D01*
X65667Y73167D01*
D02*
G37*
%LPC*%
G36*
X148200Y54750D02*
X147550D01*
Y54100D01*
X148200D01*
Y54750D01*
D02*
G37*
G36*
X149050D02*
X148400D01*
Y54100D01*
X149050D01*
Y54750D01*
D02*
G37*
G36*
X97300Y54600D02*
X96650D01*
Y53950D01*
X97300D01*
Y54600D01*
D02*
G37*
G36*
X118100Y86400D02*
X117300D01*
Y85550D01*
X118100D01*
Y86400D01*
D02*
G37*
G36*
X96450Y54600D02*
X95800D01*
Y53950D01*
X96450D01*
Y54600D01*
D02*
G37*
G36*
X86875Y54555D02*
X85525D01*
Y54105D01*
X86875D01*
Y54555D01*
D02*
G37*
G36*
X117100Y86400D02*
X116300D01*
Y85550D01*
X117100D01*
Y86400D01*
D02*
G37*
G36*
X102100D02*
X101300D01*
Y85550D01*
X102100D01*
Y86400D01*
D02*
G37*
G36*
X96450Y55450D02*
X95800D01*
Y54800D01*
X96450D01*
Y55450D01*
D02*
G37*
G36*
X135100Y55200D02*
X134600D01*
Y54700D01*
X135100D01*
Y55200D01*
D02*
G37*
G36*
X88425Y54555D02*
X87075D01*
Y54105D01*
X88425D01*
Y54555D01*
D02*
G37*
G36*
X138500Y54630D02*
X137150D01*
Y54180D01*
X138500D01*
Y54630D01*
D02*
G37*
G36*
X134400Y55200D02*
X133900D01*
Y54700D01*
X134400D01*
Y55200D01*
D02*
G37*
G36*
X133100Y86400D02*
X132300D01*
Y85550D01*
X133100D01*
Y86400D01*
D02*
G37*
G36*
X111860Y55039D02*
X111599Y55004D01*
X111356Y54903D01*
X111147Y54743D01*
X110987Y54534D01*
X110886Y54291D01*
X110851Y54030D01*
X110886Y53769D01*
X110987Y53526D01*
X111147Y53317D01*
X111356Y53157D01*
X111599Y53056D01*
X111860Y53021D01*
X112121Y53056D01*
X112364Y53157D01*
X112573Y53317D01*
X112733Y53526D01*
X112834Y53769D01*
X112869Y54030D01*
X112834Y54291D01*
X112733Y54534D01*
X112573Y54743D01*
X112364Y54903D01*
X112121Y55004D01*
X111860Y55039D01*
D02*
G37*
G36*
X114430D02*
X114169Y55004D01*
X113926Y54903D01*
X113717Y54743D01*
X113557Y54534D01*
X113456Y54291D01*
X113421Y54030D01*
X113456Y53769D01*
X113557Y53526D01*
X113717Y53317D01*
X113926Y53157D01*
X114169Y53056D01*
X114430Y53021D01*
X114691Y53056D01*
X114934Y53157D01*
X115143Y53317D01*
X115303Y53526D01*
X115404Y53769D01*
X115439Y54030D01*
X115404Y54291D01*
X115303Y54534D01*
X115143Y54743D01*
X114934Y54903D01*
X114691Y55004D01*
X114430Y55039D01*
D02*
G37*
G36*
X116970D02*
X116709Y55004D01*
X116466Y54903D01*
X116257Y54743D01*
X116096Y54534D01*
X115996Y54291D01*
X115961Y54030D01*
X115996Y53769D01*
X116096Y53526D01*
X116257Y53317D01*
X116466Y53157D01*
X116709Y53056D01*
X116970Y53021D01*
X117231Y53056D01*
X117474Y53157D01*
X117683Y53317D01*
X117843Y53526D01*
X117944Y53769D01*
X117979Y54030D01*
X117944Y54291D01*
X117843Y54534D01*
X117683Y54743D01*
X117474Y54903D01*
X117231Y55004D01*
X116970Y55039D01*
D02*
G37*
G36*
X134100Y86400D02*
X133300D01*
Y85550D01*
X134100D01*
Y86400D01*
D02*
G37*
G36*
X106810Y55039D02*
X106549Y55004D01*
X106306Y54903D01*
X106097Y54743D01*
X105937Y54534D01*
X105836Y54291D01*
X105801Y54030D01*
X105836Y53769D01*
X105937Y53526D01*
X106097Y53317D01*
X106306Y53157D01*
X106549Y53056D01*
X106810Y53021D01*
X107071Y53056D01*
X107314Y53157D01*
X107523Y53317D01*
X107684Y53526D01*
X107784Y53769D01*
X107819Y54030D01*
X107784Y54291D01*
X107684Y54534D01*
X107523Y54743D01*
X107314Y54903D01*
X107071Y55004D01*
X106810Y55039D01*
D02*
G37*
G36*
X109350D02*
X109089Y55004D01*
X108846Y54903D01*
X108637Y54743D01*
X108477Y54534D01*
X108376Y54291D01*
X108341Y54030D01*
X108376Y53769D01*
X108477Y53526D01*
X108637Y53317D01*
X108846Y53157D01*
X109089Y53056D01*
X109350Y53021D01*
X109611Y53056D01*
X109854Y53157D01*
X110063Y53317D01*
X110224Y53526D01*
X110324Y53769D01*
X110359Y54030D01*
X110324Y54291D01*
X110224Y54534D01*
X110063Y54743D01*
X109854Y54903D01*
X109611Y55004D01*
X109350Y55039D01*
D02*
G37*
G36*
X119510D02*
X119249Y55004D01*
X119006Y54903D01*
X118797Y54743D01*
X118636Y54534D01*
X118536Y54291D01*
X118501Y54030D01*
X118536Y53769D01*
X118636Y53526D01*
X118797Y53317D01*
X119006Y53157D01*
X119249Y53056D01*
X119510Y53021D01*
X119771Y53056D01*
X120014Y53157D01*
X120223Y53317D01*
X120383Y53526D01*
X120484Y53769D01*
X120519Y54030D01*
X120484Y54291D01*
X120383Y54534D01*
X120223Y54743D01*
X120014Y54903D01*
X119771Y55004D01*
X119510Y55039D01*
D02*
G37*
G36*
X86875Y53905D02*
X85525D01*
Y53455D01*
X86875D01*
Y53905D01*
D02*
G37*
G36*
X88425D02*
X87075D01*
Y53455D01*
X88425D01*
Y53905D01*
D02*
G37*
G36*
X138500Y53980D02*
X137150D01*
Y53530D01*
X138500D01*
Y53980D01*
D02*
G37*
G36*
X122050Y55039D02*
X121789Y55004D01*
X121546Y54903D01*
X121337Y54743D01*
X121176Y54534D01*
X121076Y54291D01*
X121041Y54030D01*
X121076Y53769D01*
X121176Y53526D01*
X121337Y53317D01*
X121546Y53157D01*
X121789Y53056D01*
X122050Y53021D01*
X122311Y53056D01*
X122554Y53157D01*
X122763Y53317D01*
X122924Y53526D01*
X123024Y53769D01*
X123059Y54030D01*
X123024Y54291D01*
X122924Y54534D01*
X122763Y54743D01*
X122554Y54903D01*
X122311Y55004D01*
X122050Y55039D01*
D02*
G37*
G36*
X124560D02*
X124299Y55004D01*
X124056Y54903D01*
X123847Y54743D01*
X123687Y54534D01*
X123586Y54291D01*
X123551Y54030D01*
X123586Y53769D01*
X123687Y53526D01*
X123847Y53317D01*
X124056Y53157D01*
X124299Y53056D01*
X124560Y53021D01*
X124821Y53056D01*
X125064Y53157D01*
X125273Y53317D01*
X125434Y53526D01*
X125534Y53769D01*
X125569Y54030D01*
X125534Y54291D01*
X125434Y54534D01*
X125273Y54743D01*
X125064Y54903D01*
X124821Y55004D01*
X124560Y55039D01*
D02*
G37*
G36*
X105270Y55030D02*
X103270D01*
Y53030D01*
X105270D01*
Y55030D01*
D02*
G37*
G36*
X96550Y71200D02*
X95900D01*
Y70550D01*
X96550D01*
Y71200D01*
D02*
G37*
G36*
X81400D02*
X80750D01*
Y70550D01*
X81400D01*
Y71200D01*
D02*
G37*
G36*
X112550D02*
X111900D01*
Y70550D01*
X112550D01*
Y71200D01*
D02*
G37*
G36*
X97400D02*
X96750D01*
Y70550D01*
X97400D01*
Y71200D01*
D02*
G37*
G36*
X64550D02*
X63900D01*
Y70550D01*
X64550D01*
Y71200D01*
D02*
G37*
G36*
X69900Y86400D02*
X69100D01*
Y85550D01*
X69900D01*
Y86400D01*
D02*
G37*
G36*
X80550Y71200D02*
X79900D01*
Y70550D01*
X80550D01*
Y71200D01*
D02*
G37*
G36*
X65400D02*
X64750D01*
Y70550D01*
X65400D01*
Y71200D01*
D02*
G37*
G36*
X113400D02*
X112750D01*
Y70550D01*
X113400D01*
Y71200D01*
D02*
G37*
G36*
X97400Y72050D02*
X96750D01*
Y71400D01*
X97400D01*
Y72050D01*
D02*
G37*
G36*
X81400D02*
X80750D01*
Y71400D01*
X81400D01*
Y72050D01*
D02*
G37*
G36*
X129400D02*
X128750D01*
Y71400D01*
X129400D01*
Y72050D01*
D02*
G37*
G36*
X113400D02*
X112750D01*
Y71400D01*
X113400D01*
Y72050D01*
D02*
G37*
G36*
X129400Y71200D02*
X128750D01*
Y70550D01*
X129400D01*
Y71200D01*
D02*
G37*
G36*
X128550D02*
X127900D01*
Y70550D01*
X128550D01*
Y71200D01*
D02*
G37*
G36*
X65400Y72050D02*
X64750D01*
Y71400D01*
X65400D01*
Y72050D01*
D02*
G37*
G36*
X68900Y86400D02*
X68100D01*
Y85550D01*
X68900D01*
Y86400D01*
D02*
G37*
G36*
X127030Y56470D02*
X126135D01*
X126156Y56309D01*
X126257Y56066D01*
X126417Y55857D01*
X126626Y55697D01*
X126869Y55596D01*
X127030Y55575D01*
Y56470D01*
D02*
G37*
G36*
X135100Y55900D02*
X134600D01*
Y55400D01*
X135100D01*
Y55900D01*
D02*
G37*
G36*
X140050D02*
X137150D01*
Y55656D01*
X136700D01*
Y55900D01*
X135500D01*
Y54700D01*
X136700D01*
Y55044D01*
X137150D01*
Y54800D01*
X140050D01*
Y55900D01*
D02*
G37*
G36*
X128125Y56470D02*
X127230D01*
Y55575D01*
X127391Y55596D01*
X127634Y55697D01*
X127843Y55857D01*
X128003Y56066D01*
X128104Y56309D01*
X128125Y56470D01*
D02*
G37*
G36*
X148200Y55600D02*
X147550D01*
Y54950D01*
X148200D01*
Y55600D01*
D02*
G37*
G36*
X97300Y55450D02*
X96650D01*
Y54800D01*
X97300D01*
Y55450D01*
D02*
G37*
G36*
X134400Y55900D02*
X133900D01*
Y55400D01*
X134400D01*
Y55900D01*
D02*
G37*
G36*
X149050Y55600D02*
X148400D01*
Y54950D01*
X149050D01*
Y55600D01*
D02*
G37*
G36*
X147500Y56600D02*
X147000D01*
Y56100D01*
X147500D01*
Y56600D01*
D02*
G37*
G36*
X101100Y86400D02*
X100300D01*
Y85550D01*
X101100D01*
Y86400D01*
D02*
G37*
G36*
X148500Y59712D02*
X148266Y59665D01*
X148266Y59665D01*
X148200Y59700D01*
Y59700D01*
X148200Y59700D01*
X147000D01*
Y58500D01*
X148200D01*
X148200Y58500D01*
Y58500D01*
X148266Y58535D01*
X148266Y58535D01*
X148500Y58488D01*
X148734Y58535D01*
X148933Y58667D01*
X149065Y58866D01*
X149112Y59100D01*
X149065Y59334D01*
X148933Y59533D01*
X148734Y59665D01*
X148500Y59712D01*
D02*
G37*
G36*
X85100Y86400D02*
X84300D01*
Y85550D01*
X85100D01*
Y86400D01*
D02*
G37*
G36*
X86100D02*
X85300D01*
Y85550D01*
X86100D01*
Y86400D01*
D02*
G37*
G36*
X147500Y57300D02*
X147000D01*
Y56800D01*
X147500D01*
Y57300D01*
D02*
G37*
G36*
X148200Y56600D02*
X147700D01*
Y56100D01*
X148200D01*
Y56600D01*
D02*
G37*
G36*
X146600Y57300D02*
X145400D01*
Y56926D01*
X144950D01*
Y57170D01*
X142050D01*
Y56070D01*
X144950D01*
Y56314D01*
X145400D01*
Y56100D01*
X146600D01*
Y57300D01*
D02*
G37*
G36*
X148200D02*
X147700D01*
Y56800D01*
X148200D01*
Y57300D01*
D02*
G37*
%LPD*%
D10*
X126100Y76200D02*
D03*
Y74600D02*
D03*
X137100Y76200D02*
D03*
Y74600D02*
D03*
X138100Y76200D02*
D03*
Y74600D02*
D03*
X150100Y76200D02*
D03*
Y74600D02*
D03*
X139100Y76200D02*
D03*
Y74600D02*
D03*
X151100Y76200D02*
D03*
Y74600D02*
D03*
X140100Y76200D02*
D03*
Y74600D02*
D03*
X152100Y76200D02*
D03*
Y74600D02*
D03*
X141100Y76200D02*
D03*
Y74600D02*
D03*
X149100Y76200D02*
D03*
Y74600D02*
D03*
X153100Y76200D02*
D03*
Y74600D02*
D03*
X142100Y76200D02*
D03*
Y74600D02*
D03*
X143100Y76200D02*
D03*
Y74600D02*
D03*
X67100Y74600D02*
D03*
Y76200D02*
D03*
X59100Y74600D02*
D03*
Y76200D02*
D03*
X70100Y74600D02*
D03*
Y76200D02*
D03*
X66100Y74600D02*
D03*
Y76200D02*
D03*
X58100D02*
D03*
Y74600D02*
D03*
X63100D02*
D03*
Y76200D02*
D03*
X71100D02*
D03*
Y74600D02*
D03*
X60100Y76200D02*
D03*
Y74600D02*
D03*
X68100Y76200D02*
D03*
Y74600D02*
D03*
X72100Y76200D02*
D03*
Y74600D02*
D03*
X61100Y76200D02*
D03*
Y74600D02*
D03*
X69100Y76200D02*
D03*
Y74600D02*
D03*
X73100Y76200D02*
D03*
Y74600D02*
D03*
X62100Y76200D02*
D03*
Y74600D02*
D03*
X64100Y76200D02*
D03*
Y74600D02*
D03*
X65100Y76200D02*
D03*
Y74600D02*
D03*
X74100Y76200D02*
D03*
Y74600D02*
D03*
X82100Y76200D02*
D03*
Y74600D02*
D03*
X86100Y76200D02*
D03*
Y74600D02*
D03*
X75100Y76200D02*
D03*
Y74600D02*
D03*
X83100Y76200D02*
D03*
Y74600D02*
D03*
X87100Y76200D02*
D03*
Y74600D02*
D03*
X76100Y76200D02*
D03*
Y74600D02*
D03*
X84100Y76200D02*
D03*
Y74600D02*
D03*
X88100Y76200D02*
D03*
Y74600D02*
D03*
X77100Y76200D02*
D03*
Y74600D02*
D03*
X85100Y76200D02*
D03*
Y74600D02*
D03*
X89100Y76200D02*
D03*
Y74600D02*
D03*
X78100Y76200D02*
D03*
Y74600D02*
D03*
X79100Y76200D02*
D03*
Y74600D02*
D03*
X80100Y76200D02*
D03*
Y74600D02*
D03*
X90100Y76200D02*
D03*
Y74600D02*
D03*
X98100Y76200D02*
D03*
Y74600D02*
D03*
X102100Y76200D02*
D03*
Y74600D02*
D03*
X91100Y76200D02*
D03*
Y74600D02*
D03*
X99100Y76200D02*
D03*
Y74600D02*
D03*
X103100Y76200D02*
D03*
Y74600D02*
D03*
X92100Y76200D02*
D03*
Y74600D02*
D03*
X100100Y76200D02*
D03*
Y74600D02*
D03*
X104100Y76200D02*
D03*
Y74600D02*
D03*
X93100Y76200D02*
D03*
Y74600D02*
D03*
X101100Y76200D02*
D03*
Y74600D02*
D03*
X105100Y76200D02*
D03*
Y74600D02*
D03*
X94100Y76200D02*
D03*
Y74600D02*
D03*
X95100Y76200D02*
D03*
Y74600D02*
D03*
X96100Y76200D02*
D03*
Y74600D02*
D03*
X97100Y76200D02*
D03*
Y74600D02*
D03*
X106100Y76200D02*
D03*
Y74600D02*
D03*
X114100Y76200D02*
D03*
Y74600D02*
D03*
X118100Y76200D02*
D03*
Y74600D02*
D03*
X107100Y76200D02*
D03*
Y74600D02*
D03*
X115100Y76200D02*
D03*
Y74600D02*
D03*
X119100Y76200D02*
D03*
Y74600D02*
D03*
X108100Y76200D02*
D03*
Y74600D02*
D03*
X116100Y76200D02*
D03*
Y74600D02*
D03*
X120100Y76200D02*
D03*
Y74600D02*
D03*
X109100Y76200D02*
D03*
Y74600D02*
D03*
X117100Y76200D02*
D03*
Y74600D02*
D03*
X121100Y76200D02*
D03*
Y74600D02*
D03*
X110100Y76200D02*
D03*
Y74600D02*
D03*
X111100Y76200D02*
D03*
Y74600D02*
D03*
X112100Y76200D02*
D03*
Y74600D02*
D03*
X113100Y76200D02*
D03*
Y74600D02*
D03*
X122100Y76200D02*
D03*
Y74600D02*
D03*
X130100Y76200D02*
D03*
Y74600D02*
D03*
X134100Y76200D02*
D03*
Y74600D02*
D03*
X123100Y76200D02*
D03*
Y74600D02*
D03*
X131100Y76200D02*
D03*
Y74600D02*
D03*
X135100Y76200D02*
D03*
Y74600D02*
D03*
X124100Y76200D02*
D03*
Y74600D02*
D03*
X132100Y76200D02*
D03*
Y74600D02*
D03*
X136100Y76200D02*
D03*
Y74600D02*
D03*
X133100Y76200D02*
D03*
Y74600D02*
D03*
X153100Y80350D02*
D03*
Y81850D02*
D03*
X152100Y80350D02*
D03*
Y81850D02*
D03*
X151100Y80350D02*
D03*
Y81850D02*
D03*
X150100Y80350D02*
D03*
Y81850D02*
D03*
X149100Y80350D02*
D03*
Y81850D02*
D03*
X148100Y80350D02*
D03*
Y81850D02*
D03*
X147100Y80350D02*
D03*
Y81850D02*
D03*
X146100Y80350D02*
D03*
Y81850D02*
D03*
X145100Y80350D02*
D03*
Y81850D02*
D03*
X144100Y80350D02*
D03*
Y81850D02*
D03*
X143100Y80350D02*
D03*
Y81850D02*
D03*
X142100Y80350D02*
D03*
Y81850D02*
D03*
X141100Y80350D02*
D03*
Y81850D02*
D03*
X140100Y80350D02*
D03*
Y81850D02*
D03*
X139100Y80350D02*
D03*
Y81850D02*
D03*
X138100Y80350D02*
D03*
Y81850D02*
D03*
X137100Y80350D02*
D03*
Y81850D02*
D03*
X136100Y80350D02*
D03*
Y81850D02*
D03*
X135100Y80350D02*
D03*
Y81850D02*
D03*
X134100Y80350D02*
D03*
Y81850D02*
D03*
X133100Y80350D02*
D03*
Y81850D02*
D03*
X132100Y80350D02*
D03*
Y81850D02*
D03*
X131100Y80350D02*
D03*
Y81850D02*
D03*
X130100Y80350D02*
D03*
Y81850D02*
D03*
X129100Y80350D02*
D03*
Y81850D02*
D03*
X128100Y80350D02*
D03*
Y81850D02*
D03*
X127100Y80350D02*
D03*
Y81850D02*
D03*
X126100Y80350D02*
D03*
Y81850D02*
D03*
X125100Y80350D02*
D03*
Y81850D02*
D03*
X124100Y80350D02*
D03*
Y81850D02*
D03*
X123100Y80350D02*
D03*
Y81850D02*
D03*
X122100Y80350D02*
D03*
Y81850D02*
D03*
X121100Y80350D02*
D03*
Y81850D02*
D03*
X120100Y80350D02*
D03*
Y81850D02*
D03*
X119100Y80350D02*
D03*
Y81850D02*
D03*
X118100Y80350D02*
D03*
Y81850D02*
D03*
X117100Y80350D02*
D03*
Y81850D02*
D03*
X116100Y80350D02*
D03*
Y81850D02*
D03*
X115100Y80350D02*
D03*
Y81850D02*
D03*
X114100Y80350D02*
D03*
Y81850D02*
D03*
X113100Y80350D02*
D03*
Y81850D02*
D03*
X112100Y80350D02*
D03*
Y81850D02*
D03*
X111100Y80350D02*
D03*
Y81850D02*
D03*
X110100Y80350D02*
D03*
Y81850D02*
D03*
X109100Y80350D02*
D03*
Y81850D02*
D03*
X108100Y80350D02*
D03*
Y81850D02*
D03*
X107100Y80350D02*
D03*
Y81850D02*
D03*
X106100Y80350D02*
D03*
Y81850D02*
D03*
X105100Y80350D02*
D03*
Y81850D02*
D03*
X104100Y80350D02*
D03*
Y81850D02*
D03*
X103100Y80350D02*
D03*
Y81850D02*
D03*
X102100Y80350D02*
D03*
Y81850D02*
D03*
X101100Y80350D02*
D03*
Y81850D02*
D03*
X100100Y80350D02*
D03*
Y81850D02*
D03*
X99100Y80350D02*
D03*
Y81850D02*
D03*
X98100Y80350D02*
D03*
Y81850D02*
D03*
X97100Y80350D02*
D03*
Y81850D02*
D03*
X96100Y80350D02*
D03*
Y81850D02*
D03*
X95100Y80350D02*
D03*
Y81850D02*
D03*
X94100Y80350D02*
D03*
Y81850D02*
D03*
X93100Y80350D02*
D03*
Y81850D02*
D03*
X92100Y80350D02*
D03*
Y81850D02*
D03*
X91100Y80350D02*
D03*
Y81850D02*
D03*
X90100Y80350D02*
D03*
Y81850D02*
D03*
X89100Y80350D02*
D03*
Y81850D02*
D03*
X88100Y80350D02*
D03*
Y81850D02*
D03*
X87100Y80350D02*
D03*
Y81850D02*
D03*
X86100Y80350D02*
D03*
Y81850D02*
D03*
X85100Y80350D02*
D03*
Y81850D02*
D03*
X84100Y80350D02*
D03*
Y81850D02*
D03*
X83100Y80350D02*
D03*
Y81850D02*
D03*
X82100Y80350D02*
D03*
Y81850D02*
D03*
X81100Y80350D02*
D03*
Y81850D02*
D03*
X80100Y80350D02*
D03*
Y81850D02*
D03*
X79100Y80350D02*
D03*
Y81850D02*
D03*
X78100Y80350D02*
D03*
Y81850D02*
D03*
X77100Y80350D02*
D03*
Y81850D02*
D03*
X76100Y80350D02*
D03*
Y81850D02*
D03*
X75100Y80350D02*
D03*
Y81850D02*
D03*
X74100Y80350D02*
D03*
Y81850D02*
D03*
X73100Y80350D02*
D03*
Y81850D02*
D03*
X72100Y80350D02*
D03*
Y81850D02*
D03*
X71100Y80350D02*
D03*
Y81850D02*
D03*
X70100Y80350D02*
D03*
Y81850D02*
D03*
X69100Y80350D02*
D03*
Y81850D02*
D03*
X68100Y80350D02*
D03*
Y81850D02*
D03*
X67100Y80350D02*
D03*
Y81850D02*
D03*
X66100Y80350D02*
D03*
Y81850D02*
D03*
X65100Y80350D02*
D03*
Y81850D02*
D03*
X64100Y80350D02*
D03*
Y81850D02*
D03*
X63100Y80350D02*
D03*
Y81850D02*
D03*
X62100Y80350D02*
D03*
Y81850D02*
D03*
X61100Y80350D02*
D03*
Y81850D02*
D03*
X60100Y80350D02*
D03*
Y81850D02*
D03*
X59100Y80350D02*
D03*
Y81850D02*
D03*
X58100Y80350D02*
D03*
Y81850D02*
D03*
X80000Y55300D02*
D03*
Y56900D02*
D03*
X148100Y76200D02*
D03*
Y74600D02*
D03*
X147100Y76200D02*
D03*
Y74600D02*
D03*
X146100Y76200D02*
D03*
Y74600D02*
D03*
X145100Y76200D02*
D03*
Y74600D02*
D03*
X144100Y76200D02*
D03*
Y74600D02*
D03*
X129100Y76200D02*
D03*
Y74600D02*
D03*
X128100Y76200D02*
D03*
Y74600D02*
D03*
X127100Y76200D02*
D03*
Y74600D02*
D03*
X125100Y76200D02*
D03*
Y74600D02*
D03*
X81100Y76200D02*
D03*
Y74600D02*
D03*
D11*
X69300Y51800D02*
D03*
X70900D02*
D03*
X72800D02*
D03*
X74400D02*
D03*
X84500Y58000D02*
D03*
X82900D02*
D03*
X84500Y55300D02*
D03*
X82900D02*
D03*
Y52900D02*
D03*
X84500D02*
D03*
X82900Y51475D02*
D03*
X84500D02*
D03*
X94400Y58500D02*
D03*
X96000D02*
D03*
X94400Y56600D02*
D03*
X96000D02*
D03*
Y52900D02*
D03*
X94400D02*
D03*
X96000Y51475D02*
D03*
X94400D02*
D03*
X136100Y53000D02*
D03*
X134500D02*
D03*
Y51600D02*
D03*
X136100D02*
D03*
Y57900D02*
D03*
X134500D02*
D03*
X136100Y55300D02*
D03*
X134500D02*
D03*
X146000Y59100D02*
D03*
X147600D02*
D03*
X146000Y56700D02*
D03*
X147600D02*
D03*
Y51600D02*
D03*
X146000D02*
D03*
X147600Y53100D02*
D03*
X146000D02*
D03*
X79100Y86500D02*
D03*
X80700D02*
D03*
X94800D02*
D03*
X96400D02*
D03*
X110900D02*
D03*
X112500D02*
D03*
X142500D02*
D03*
X144100D02*
D03*
X126800D02*
D03*
X128400D02*
D03*
X62900Y86600D02*
D03*
X64500D02*
D03*
D12*
X77600Y56700D02*
D03*
Y54700D02*
D03*
D13*
X91875Y51465D02*
D03*
Y52735D02*
D03*
Y54005D02*
D03*
Y55275D02*
D03*
Y56545D02*
D03*
Y57815D02*
D03*
Y59085D02*
D03*
X86975Y51465D02*
D03*
Y52735D02*
D03*
Y54005D02*
D03*
Y55275D02*
D03*
Y56545D02*
D03*
Y57815D02*
D03*
Y59085D02*
D03*
X143500Y51540D02*
D03*
Y52810D02*
D03*
Y54080D02*
D03*
Y55350D02*
D03*
Y56620D02*
D03*
Y57890D02*
D03*
Y59160D02*
D03*
X138600Y51540D02*
D03*
Y52810D02*
D03*
Y54080D02*
D03*
Y55350D02*
D03*
Y56620D02*
D03*
Y57890D02*
D03*
Y59160D02*
D03*
D14*
X94650Y54700D02*
D03*
X96550D02*
D03*
X146400Y54850D02*
D03*
X148300D02*
D03*
X146550Y71300D02*
D03*
X144650D02*
D03*
X130550D02*
D03*
X128650D02*
D03*
X114550D02*
D03*
X112650D02*
D03*
X64650D02*
D03*
X66550D02*
D03*
X82550D02*
D03*
X80650D02*
D03*
X98550D02*
D03*
X96650D02*
D03*
D15*
X151700Y62400D02*
D03*
X153700D02*
D03*
X67000Y86500D02*
D03*
X69000D02*
D03*
X83200D02*
D03*
X85200D02*
D03*
X99200D02*
D03*
X101200D02*
D03*
X115200D02*
D03*
X117200D02*
D03*
X131200D02*
D03*
X133200D02*
D03*
X147000D02*
D03*
X149000D02*
D03*
D16*
X142700Y69375D02*
D03*
Y68725D02*
D03*
Y68075D02*
D03*
Y67425D02*
D03*
Y66775D02*
D03*
Y66125D02*
D03*
Y65475D02*
D03*
Y64825D02*
D03*
Y64175D02*
D03*
Y63525D02*
D03*
Y62875D02*
D03*
Y62225D02*
D03*
X148500Y69375D02*
D03*
Y68725D02*
D03*
Y68075D02*
D03*
Y67425D02*
D03*
Y66775D02*
D03*
Y66125D02*
D03*
Y65475D02*
D03*
Y64825D02*
D03*
Y64175D02*
D03*
Y63525D02*
D03*
Y62875D02*
D03*
Y62225D02*
D03*
X126700Y69375D02*
D03*
Y68725D02*
D03*
Y68075D02*
D03*
Y67425D02*
D03*
Y66775D02*
D03*
Y66125D02*
D03*
Y65475D02*
D03*
Y64825D02*
D03*
Y64175D02*
D03*
Y63525D02*
D03*
Y62875D02*
D03*
Y62225D02*
D03*
X132500Y69375D02*
D03*
Y68725D02*
D03*
Y68075D02*
D03*
Y67425D02*
D03*
Y66775D02*
D03*
Y66125D02*
D03*
Y65475D02*
D03*
Y64825D02*
D03*
Y64175D02*
D03*
Y63525D02*
D03*
Y62875D02*
D03*
Y62225D02*
D03*
X110700Y69375D02*
D03*
Y68725D02*
D03*
Y68075D02*
D03*
Y67425D02*
D03*
Y66775D02*
D03*
Y66125D02*
D03*
Y65475D02*
D03*
Y64825D02*
D03*
Y64175D02*
D03*
Y63525D02*
D03*
Y62875D02*
D03*
Y62225D02*
D03*
X116500Y69375D02*
D03*
Y68725D02*
D03*
Y68075D02*
D03*
Y67425D02*
D03*
Y66775D02*
D03*
Y66125D02*
D03*
Y65475D02*
D03*
Y64825D02*
D03*
Y64175D02*
D03*
Y63525D02*
D03*
Y62875D02*
D03*
Y62225D02*
D03*
X62700Y69375D02*
D03*
Y68725D02*
D03*
Y68075D02*
D03*
Y67425D02*
D03*
Y66775D02*
D03*
Y66125D02*
D03*
Y65475D02*
D03*
Y64825D02*
D03*
Y64175D02*
D03*
Y63525D02*
D03*
Y62875D02*
D03*
Y62225D02*
D03*
X68500Y69375D02*
D03*
Y68725D02*
D03*
Y68075D02*
D03*
Y67425D02*
D03*
Y66775D02*
D03*
Y66125D02*
D03*
Y65475D02*
D03*
Y64825D02*
D03*
Y64175D02*
D03*
Y63525D02*
D03*
Y62875D02*
D03*
Y62225D02*
D03*
X78700Y69375D02*
D03*
Y68725D02*
D03*
Y68075D02*
D03*
Y67425D02*
D03*
Y66775D02*
D03*
Y66125D02*
D03*
Y65475D02*
D03*
Y64825D02*
D03*
Y64175D02*
D03*
Y63525D02*
D03*
Y62875D02*
D03*
Y62225D02*
D03*
X84500Y69375D02*
D03*
Y68725D02*
D03*
Y68075D02*
D03*
Y67425D02*
D03*
Y66775D02*
D03*
Y66125D02*
D03*
Y65475D02*
D03*
Y64825D02*
D03*
Y64175D02*
D03*
Y63525D02*
D03*
Y62875D02*
D03*
Y62225D02*
D03*
X94700Y69375D02*
D03*
Y68725D02*
D03*
Y68075D02*
D03*
Y67425D02*
D03*
Y66775D02*
D03*
Y66125D02*
D03*
Y65475D02*
D03*
Y64825D02*
D03*
Y64175D02*
D03*
Y63525D02*
D03*
Y62875D02*
D03*
Y62225D02*
D03*
X100500Y69375D02*
D03*
Y68725D02*
D03*
Y68075D02*
D03*
Y67425D02*
D03*
Y66775D02*
D03*
Y66125D02*
D03*
Y65475D02*
D03*
Y64825D02*
D03*
Y64175D02*
D03*
Y63525D02*
D03*
Y62875D02*
D03*
Y62225D02*
D03*
D17*
X155400Y63900D02*
Y83800D01*
X154200Y62700D02*
X155400Y63900D01*
X154200Y60825D02*
Y62700D01*
Y54000D02*
Y60825D01*
X151550Y87650D02*
X155400Y83800D01*
X144100Y86500D02*
X147000D01*
X147100Y81850D02*
Y86400D01*
X128400Y86500D02*
X131200D01*
X122100Y81850D02*
X134100D01*
X131100Y86400D02*
X131200Y86500D01*
X131100Y81850D02*
Y86400D01*
X115100Y81850D02*
Y86400D01*
X112500Y86500D02*
X115200D01*
X96400D02*
X99200D01*
X99100Y86400D02*
X99200Y86500D01*
X99100Y81850D02*
Y86400D01*
X80700Y86500D02*
X83200D01*
X83100Y86400D02*
X83200Y86500D01*
X83100Y81850D02*
Y86400D01*
X67100Y81850D02*
Y86400D01*
X66100Y81850D02*
X67100D01*
X142400Y87650D02*
X151550D01*
X126700D02*
X142400D01*
Y86600D02*
Y87650D01*
X110800D02*
X126700D01*
Y86600D02*
Y87650D01*
X79100D02*
X110800D01*
Y86600D02*
Y87650D01*
X94800Y86500D02*
Y87650D01*
X63150Y87650D02*
X79100D01*
Y86500D02*
Y87650D01*
X62900Y86600D02*
Y87400D01*
X63150Y87650D01*
X72100Y81850D02*
X73100D01*
X71100D02*
X72100D01*
X70100D02*
X71100D01*
X69100D02*
X70100D01*
X68100D02*
X69100D01*
X67100D02*
X68100D01*
X65100D02*
X66100D01*
X64100D02*
X65100D01*
X63100D02*
X64100D01*
X62100D02*
X63100D01*
X61100D02*
X62100D01*
X60100D02*
X61100D01*
X59100D02*
X60100D01*
X58100D02*
X59100D01*
X88100D02*
X89100D01*
X87100D02*
X88100D01*
X86100D02*
X87100D01*
X85100D02*
X86100D01*
X84100D02*
X85100D01*
X83100D02*
X84100D01*
X82100D02*
X83100D01*
X81100D02*
X82100D01*
X80100D02*
X81100D01*
X79100D02*
X80100D01*
X78100D02*
X79100D01*
X77100D02*
X78100D01*
X76100D02*
X77100D01*
X75100D02*
X76100D01*
X74100D02*
X75100D01*
X104100D02*
X105100D01*
X103100D02*
X104100D01*
X102100D02*
X103100D01*
X101100D02*
X102100D01*
X100100D02*
X101100D01*
X99100D02*
X100100D01*
X98100D02*
X99100D01*
X97100D02*
X98100D01*
X96100D02*
X97100D01*
X92100D02*
X96100D01*
X91100D02*
X92100D01*
X90100D02*
X91100D01*
X120100D02*
X121100D01*
X119100D02*
X120100D01*
X118100D02*
X119100D01*
X117100D02*
X118100D01*
X116100D02*
X117100D01*
X115100D02*
X116100D01*
X114100D02*
X115100D01*
X113100D02*
X114100D01*
X112100D02*
X113100D01*
X111100D02*
X112100D01*
X110100D02*
X111100D01*
X109100D02*
X110100D01*
X108100D02*
X109100D01*
X107100D02*
X108100D01*
X106100D02*
X107100D01*
X136100D02*
X137100D01*
X135100D02*
X136100D01*
X134100D02*
X135100D01*
X152100Y81850D02*
X153100D01*
X151100D02*
X152100D01*
X150100D02*
X151100D01*
X149100D02*
X150100D01*
X148100D02*
X149100D01*
X147100D02*
X148100D01*
X146100D02*
X147100D01*
X145100D02*
X146100D01*
X144100D02*
X145100D01*
X143100D02*
X144100D01*
X142100D02*
X143100D01*
X141100D02*
X142100D01*
X140100D02*
X141100D01*
X139100D02*
X140100D01*
X138100D02*
X139100D01*
X64500Y86600D02*
X66900D01*
X96000Y51475D02*
Y52900D01*
X94650Y54250D02*
X96000Y52900D01*
X94650Y54250D02*
Y54700D01*
X147600Y51600D02*
Y53100D01*
X146400Y54300D02*
X147600Y53100D01*
X146400Y54300D02*
Y54850D01*
X82900Y51475D02*
Y52900D01*
X134500Y51600D02*
Y53000D01*
X96000Y50675D02*
Y51475D01*
X82900Y50700D02*
Y51475D01*
X72800Y51000D02*
Y51800D01*
X74400D02*
Y54000D01*
X69300Y51800D02*
Y54020D01*
X71835Y56565D02*
X77465D01*
X77600Y56700D01*
X79800D01*
X80000Y56900D01*
X127130Y51130D02*
Y54030D01*
X126675Y50675D02*
X127130Y51130D01*
X96000Y50675D02*
X126675D01*
X127130Y51130D02*
X127560Y50700D01*
X134500D01*
Y51600D01*
Y50700D02*
X147600D01*
Y51600D01*
Y50700D02*
X150900D01*
X154200Y54000D01*
X72800Y51000D02*
X73125Y50675D01*
X96000D01*
D18*
X146479Y60825D02*
X154200D01*
X153100Y73600D02*
Y74600D01*
X153100Y79400D02*
X153100Y79400D01*
X153100Y79400D02*
Y80350D01*
X152200Y73100D02*
Y73500D01*
X152100Y73600D02*
Y74600D01*
X152100Y79400D02*
X152100Y79400D01*
X152100Y79400D02*
Y80350D01*
X151100Y73600D02*
Y74600D01*
X151100Y79400D02*
X151100Y79400D01*
X151100Y79400D02*
Y80350D01*
X150100Y73600D02*
Y74600D01*
Y79400D02*
Y80350D01*
X149100Y73600D02*
Y74600D01*
Y79400D02*
Y80350D01*
X148100Y73600D02*
Y74600D01*
X148100Y79400D02*
X148100Y79400D01*
X148100Y79400D02*
Y80350D01*
X147100Y73600D02*
Y74600D01*
X147100Y79400D02*
X147100Y79400D01*
X147100Y79400D02*
Y80350D01*
X146100Y73600D02*
Y74600D01*
Y79400D02*
Y80350D01*
X145100Y73600D02*
Y74600D01*
X145100Y79400D02*
X145100Y79400D01*
X145100Y79400D02*
Y80350D01*
X144100Y73600D02*
Y74600D01*
Y79400D02*
Y80350D01*
X143100Y73600D02*
Y74600D01*
X143100Y79400D02*
X143100Y79400D01*
X143100Y79400D02*
Y80350D01*
X142100Y73600D02*
Y74600D01*
X142100Y79400D02*
Y80350D01*
X141100Y73600D02*
Y74600D01*
X141100Y79400D02*
X141100Y79400D01*
X141100Y79400D02*
Y80350D01*
X140100Y73600D02*
Y74600D01*
Y79400D02*
Y80350D01*
X139100Y73600D02*
Y74600D01*
X139100Y79400D02*
X139100Y79400D01*
X139100Y79400D02*
Y80350D01*
X138100Y73600D02*
Y74600D01*
X138100Y79400D02*
Y80350D01*
X137100Y73600D02*
Y74600D01*
Y79400D02*
Y80350D01*
X136200Y73000D02*
Y73500D01*
X136100Y73600D02*
Y74600D01*
Y79400D02*
Y80350D01*
X135100Y73600D02*
Y74600D01*
Y79400D02*
Y80350D01*
X134100Y73600D02*
Y74600D01*
Y79400D02*
Y80350D01*
X133100Y73600D02*
Y74600D01*
X133100Y79400D02*
Y80350D01*
X132100Y73600D02*
Y74600D01*
X132100Y79400D02*
X132100Y79400D01*
X132100Y79400D02*
Y80350D01*
X131100Y73600D02*
Y74600D01*
X131100Y79400D02*
X131100Y79400D01*
X131100Y79400D02*
Y80350D01*
X130100Y73600D02*
Y74600D01*
Y79400D02*
Y80350D01*
X129100Y73600D02*
Y74600D01*
X129100Y79400D02*
X129100Y79400D01*
X129100Y79400D02*
Y80350D01*
X128100Y73600D02*
Y74600D01*
X128100Y79400D02*
X128100Y79400D01*
X128100Y79400D02*
Y80350D01*
X127100Y73600D02*
Y74600D01*
Y79400D02*
Y80350D01*
X126100Y73600D02*
Y74600D01*
Y79400D02*
Y80350D01*
X125100Y73600D02*
Y74600D01*
X125100Y79400D02*
X125100Y79400D01*
X125100Y79400D02*
Y80350D01*
X124100Y73600D02*
Y74600D01*
X124100Y79400D02*
X124100Y79400D01*
X124100Y79400D02*
Y80350D01*
X123100Y73600D02*
Y74600D01*
Y79400D02*
Y80350D01*
X122100Y73600D02*
Y74600D01*
Y79400D02*
Y80350D01*
X121100Y73600D02*
Y74600D01*
Y79400D02*
Y80350D01*
X120200Y73200D02*
Y73500D01*
X120100Y73600D02*
Y74600D01*
Y79400D02*
Y80350D01*
X119100Y73600D02*
Y74600D01*
Y79400D02*
Y80350D01*
X118100Y73600D02*
Y74600D01*
Y79400D02*
Y80350D01*
X117100Y73600D02*
Y74600D01*
Y79400D02*
Y80350D01*
X116100Y73600D02*
Y74600D01*
Y79400D02*
Y80350D01*
X115100Y73600D02*
Y74600D01*
Y79400D02*
Y80350D01*
X114100Y73600D02*
Y74600D01*
Y79400D02*
Y80350D01*
X113100Y73600D02*
Y74600D01*
Y79400D02*
Y80350D01*
X112100Y73600D02*
Y74600D01*
Y79400D02*
Y80350D01*
X111100Y73600D02*
Y74600D01*
Y79400D02*
Y80350D01*
X110100Y73600D02*
Y74600D01*
Y79400D02*
Y80350D01*
X109100Y73600D02*
Y74600D01*
Y79400D02*
Y80350D01*
X108100Y73600D02*
Y74600D01*
Y79400D02*
Y80350D01*
X107000Y73100D02*
Y73500D01*
X107100Y73600D02*
Y74600D01*
Y79400D02*
X107100Y79400D01*
Y80350D01*
X106100Y73600D02*
Y74600D01*
Y79400D02*
X106100Y79400D01*
Y80350D01*
X105100Y73600D02*
Y74600D01*
X105100Y79400D02*
X105100Y79400D01*
X105100Y79400D02*
Y80350D01*
X104200Y72900D02*
Y73500D01*
X104100Y73600D02*
Y74600D01*
X104100Y79400D02*
X104100Y79400D01*
X104100Y79400D02*
Y80350D01*
X103100Y73600D02*
Y74600D01*
X103100Y79400D02*
X103100Y79400D01*
X103100Y79400D02*
Y80350D01*
X102100Y73600D02*
Y74600D01*
Y79400D02*
Y80350D01*
X101100Y73600D02*
Y74600D01*
Y79400D02*
Y80350D01*
X100100Y73600D02*
Y74600D01*
Y79400D02*
Y80350D01*
X99100Y73600D02*
Y74600D01*
Y79400D02*
X99100Y79400D01*
Y80350D01*
X98100Y73600D02*
Y74600D01*
Y79400D02*
X98100Y79400D01*
Y80350D01*
X97100Y73600D02*
Y74600D01*
Y79400D02*
Y80350D01*
X96100Y73600D02*
Y74600D01*
X96100Y79400D02*
X96100Y79400D01*
X96100Y79400D02*
Y80350D01*
X95100Y73600D02*
Y74600D01*
Y79400D02*
Y80350D01*
X94100Y73600D02*
Y74600D01*
Y79400D02*
X94100Y79400D01*
Y80350D01*
X93100Y73600D02*
Y74600D01*
Y79400D02*
X93100Y79400D01*
Y80350D01*
X91100Y73600D02*
Y74600D01*
X92100Y73600D02*
Y74600D01*
Y79400D02*
Y80350D01*
X90900Y66400D02*
Y73400D01*
X91100Y73600D01*
Y79400D02*
Y80350D01*
X90100Y73600D02*
X90500Y73200D01*
X90100Y73600D02*
Y74600D01*
Y79400D02*
Y80350D01*
X88600Y73100D02*
X89100Y73600D01*
X88600Y66000D02*
Y73100D01*
X88105Y73600D02*
Y74095D01*
X88100Y73600D02*
X88200Y73500D01*
Y66500D02*
Y73500D01*
X88100Y74100D02*
X88105Y74095D01*
X88100Y73600D02*
Y74100D01*
X88105Y74095D02*
Y74595D01*
X86500Y64800D02*
X88200Y66500D01*
X89100Y73600D02*
Y74600D01*
Y79400D02*
Y80350D01*
X88100Y79400D02*
Y80350D01*
X87100Y73600D02*
Y74600D01*
Y79400D02*
Y80350D01*
X86100Y73600D02*
Y74600D01*
Y79400D02*
Y80350D01*
X85100Y73600D02*
Y74600D01*
Y79400D02*
Y80350D01*
X84100Y73600D02*
Y74600D01*
Y79400D02*
Y80350D01*
X83100Y73600D02*
Y74600D01*
Y79400D02*
Y80350D01*
X82100Y73600D02*
Y74600D01*
Y79400D02*
Y80350D01*
X81100Y73600D02*
Y74600D01*
Y79400D02*
Y80350D01*
X80100Y73600D02*
Y74600D01*
Y79400D02*
Y80350D01*
X79100Y73590D02*
Y74600D01*
Y79400D02*
Y80350D01*
X78100Y73600D02*
Y74600D01*
Y79400D02*
Y80350D01*
X77100Y73600D02*
Y74600D01*
Y79400D02*
Y80350D01*
X76100Y73600D02*
Y74600D01*
Y79400D02*
Y80350D01*
X75000Y66300D02*
Y73500D01*
X75100Y73600D02*
Y74600D01*
Y79400D02*
Y80350D01*
X74100Y73600D02*
Y74600D01*
Y79400D02*
Y80350D01*
X73100Y73600D02*
Y74600D01*
Y79400D02*
Y80350D01*
X72100Y73600D02*
X72200Y73500D01*
X72100Y73600D02*
Y74600D01*
Y79400D02*
Y80350D01*
X71100Y73600D02*
Y74600D01*
Y79400D02*
Y80350D01*
X70100Y73600D02*
Y74600D01*
Y79400D02*
Y80350D01*
X69100Y73600D02*
Y74600D01*
Y79400D02*
Y80350D01*
X68100Y73600D02*
Y74600D01*
Y79400D02*
Y80350D01*
X67100Y73600D02*
Y74600D01*
Y79400D02*
Y80350D01*
X66100Y73600D02*
Y74600D01*
Y79400D02*
Y80350D01*
X65100Y73600D02*
Y74600D01*
Y79400D02*
Y80350D01*
X64100Y73600D02*
Y74600D01*
Y79400D02*
Y80350D01*
X63100Y73600D02*
Y74600D01*
Y79400D02*
Y80350D01*
X62100Y73600D02*
Y74600D01*
Y79400D02*
Y80350D01*
X61100Y73600D02*
Y74600D01*
Y79400D02*
Y80350D01*
X60100Y73590D02*
Y74600D01*
X60100Y79400D02*
Y80350D01*
X59000Y66700D02*
Y73500D01*
X59100Y73600D02*
Y74600D01*
Y79400D02*
Y80350D01*
X58100Y73600D02*
Y74600D01*
Y79400D02*
Y80350D01*
X146232Y60578D02*
X146479Y60825D01*
X146425Y71175D02*
X146550Y71300D01*
X146425Y64318D02*
Y71175D01*
X146257Y64150D02*
X146425Y64318D01*
X114550Y64300D02*
Y71300D01*
X114225Y63975D02*
X114550Y64300D01*
X101850Y62650D02*
X104294D01*
X101625Y62875D02*
X101850Y62650D01*
X100500Y62875D02*
X101625D01*
X104294Y62650D02*
X104744Y63100D01*
X91785Y62725D02*
X92310Y62200D01*
X85975Y62725D02*
X91785D01*
X85825Y62875D02*
X85975Y62725D01*
X144025Y69375D02*
X144875Y68525D01*
Y64200D02*
Y68525D01*
X144700Y64025D02*
X144875Y64200D01*
X130375Y63625D02*
Y63800D01*
Y63625D02*
X130400Y63600D01*
X98550Y71300D02*
X99300D01*
X98450D02*
X98550D01*
X98450Y64100D02*
Y71300D01*
X64867Y63775D02*
Y68533D01*
X64025Y69375D02*
X64867Y68533D01*
X148500Y69375D02*
Y70200D01*
X147400Y71300D02*
X148500Y70200D01*
X146550Y71300D02*
X147400D01*
X142700Y69375D02*
X144025D01*
X132500D02*
Y70200D01*
X131400Y71300D02*
X132500Y70200D01*
X130550Y71300D02*
X131400D01*
X126700Y69375D02*
X128025D01*
X110700D02*
X112025D01*
X116500D02*
Y70100D01*
X115300Y71300D02*
X116500Y70100D01*
X114550Y71300D02*
X115300D01*
X94700Y69375D02*
X95825D01*
X100500D02*
Y70100D01*
X99300Y71300D02*
X100500Y70100D01*
X78700Y69375D02*
X80225D01*
X84500D02*
Y70200D01*
X83400Y71300D02*
X84500Y70200D01*
X82550Y71300D02*
X83400D01*
X151800Y66800D02*
Y72900D01*
X150475Y65475D02*
X151800Y66800D01*
X148500Y65475D02*
X150475D01*
X150625Y64825D02*
X152200Y66400D01*
X148500Y64825D02*
X150625D01*
X152600Y66000D02*
Y73100D01*
X150775Y64175D02*
X152600Y66000D01*
X148500Y64175D02*
X150775D01*
X140875Y66125D02*
X142700D01*
X139800Y67200D02*
X140875Y66125D01*
X139800Y67200D02*
Y72300D01*
X140725Y65475D02*
X142700D01*
X139400Y66800D02*
X140725Y65475D01*
X139400Y66800D02*
Y72900D01*
X140575Y64825D02*
X142700D01*
X139000Y66400D02*
X140575Y64825D01*
X139000Y66400D02*
Y73500D01*
X140425Y64175D02*
X142700D01*
X138600Y66000D02*
X140425Y64175D01*
X138600Y66000D02*
Y73100D01*
X135800Y66900D02*
Y72900D01*
X134375Y65475D02*
X135800Y66900D01*
X132500Y65475D02*
X134375D01*
X134525Y64825D02*
X136200Y66500D01*
X132500Y64825D02*
X134525D01*
X136600Y66000D02*
Y73100D01*
X134775Y64175D02*
X136600Y66000D01*
X132500Y64175D02*
X134775D01*
X124575Y64825D02*
X126700D01*
X123000Y66400D02*
X124575Y64825D01*
X123000Y66400D02*
Y73500D01*
X124725Y65475D02*
X126700D01*
X123400Y66800D02*
X124725Y65475D01*
X123400Y66800D02*
Y72900D01*
X124875Y66125D02*
X126700D01*
X123800Y67200D02*
X124875Y66125D01*
X123800Y67200D02*
Y72300D01*
X122600Y66000D02*
Y73100D01*
X119400Y67200D02*
Y72300D01*
X118325Y66125D02*
X119400Y67200D01*
X116500Y66125D02*
X118325D01*
X119800Y66800D02*
Y72900D01*
X118475Y65475D02*
X119800Y66800D01*
X116500Y65475D02*
X118475D01*
X118625Y64825D02*
X120200Y66400D01*
X116500Y64825D02*
X118625D01*
X120600Y66000D02*
Y73100D01*
X118775Y64175D02*
X120600Y66000D01*
X116500Y64175D02*
X118775D01*
X108675Y64825D02*
X110700D01*
X107000Y66500D02*
X108675Y64825D01*
X106600Y66000D02*
Y73100D01*
X108825Y65475D02*
X110700D01*
X107400Y66900D02*
X108825Y65475D01*
X107400Y66900D02*
Y72900D01*
X108975Y66125D02*
X110700D01*
X107800Y67300D02*
X108975Y66125D01*
X107800Y67300D02*
Y72300D01*
X109100Y66800D02*
X110675D01*
X108200Y67700D02*
X109100Y66800D01*
X108200Y67700D02*
Y71700D01*
X102625Y64825D02*
X104200Y66400D01*
X100500Y64825D02*
X102625D01*
X104600Y66000D02*
Y73100D01*
X102775Y64175D02*
X104600Y66000D01*
X100500Y64175D02*
X102775D01*
X103800Y66800D02*
Y72900D01*
X102475Y65475D02*
X103800Y66800D01*
X100500Y65475D02*
X102475D01*
X103400Y67200D02*
Y72300D01*
X102325Y66125D02*
X103400Y67200D01*
X100500Y66125D02*
X102325D01*
X92625Y65475D02*
X94700D01*
X91300Y66800D02*
X92625Y65475D01*
X91300Y66800D02*
Y72800D01*
X92475Y64825D02*
X94700D01*
X90900Y66400D02*
X92475Y64825D01*
X90500Y66000D02*
Y73200D01*
X92775Y66125D02*
X94700D01*
X91700Y67200D02*
X92775Y66125D01*
X91700Y67200D02*
Y72200D01*
X91300Y72800D02*
X92100Y73600D01*
X91700Y72200D02*
X93100Y73600D01*
X92925Y66775D02*
X94700D01*
X92100Y67600D02*
X92925Y66775D01*
X92100Y67600D02*
Y71600D01*
X94100Y73600D01*
X93251Y67425D02*
X94700D01*
X92600Y68076D02*
X93251Y67425D01*
X92600Y68076D02*
Y71100D01*
X95100Y73600D01*
X93425Y68075D02*
X94700D01*
X93000Y68500D02*
X93425Y68075D01*
X93000Y68500D02*
Y70500D01*
X96100Y73600D01*
X104600Y73100D02*
X105100Y73600D01*
X103100D02*
X103800Y72900D01*
X102100Y73600D02*
X103400Y72300D01*
X100500Y66775D02*
X102175D01*
X103000Y67600D01*
Y71700D01*
X101100Y73600D02*
X103000Y71700D01*
X100500Y67425D02*
X102025D01*
X102600Y68000D01*
Y71100D01*
X100100Y73600D02*
X102600Y71100D01*
X100500Y68075D02*
X101875D01*
X102200Y68400D01*
Y70500D01*
X99100Y73600D02*
X102200Y70500D01*
X106100Y73600D02*
X106600Y73100D01*
X107400Y72900D02*
X108100Y73600D01*
X107800Y72300D02*
X109100Y73600D01*
X110675Y66800D02*
X110700Y66775D01*
X108200Y71700D02*
X110100Y73600D01*
X109275Y67425D02*
X110700D01*
X108600Y68100D02*
X109275Y67425D01*
X108600Y68100D02*
Y71100D01*
X111100Y73600D01*
X109325Y68075D02*
X110700D01*
X109000Y68400D02*
X109325Y68075D01*
X109000Y68400D02*
Y70500D01*
X112100Y73600D01*
X120600Y73100D02*
X121100Y73600D01*
X119100D02*
X119800Y72900D01*
X118100Y73600D02*
X119400Y72300D01*
X116500Y66775D02*
X118175D01*
X119000Y67600D01*
Y71700D01*
X117100Y73600D02*
X119000Y71700D01*
X116500Y67425D02*
X117925D01*
X118600Y68100D01*
Y71100D01*
X116100Y73600D02*
X118600Y71100D01*
X116500Y68075D02*
X117775D01*
X118200Y68500D01*
Y70500D01*
X115100Y73600D02*
X118200Y70500D01*
X122100Y73600D02*
X122600Y73100D01*
X123400Y72900D02*
X124100Y73600D01*
X123800Y72300D02*
X125100Y73600D01*
X125025Y66775D02*
X126700D01*
X124200Y67600D02*
X125025Y66775D01*
X124200Y67600D02*
Y71700D01*
X126100Y73600D01*
X125275Y67425D02*
X126700D01*
X124600Y68100D02*
X125275Y67425D01*
X124600Y68100D02*
Y71100D01*
X127100Y73600D01*
X125425Y68075D02*
X126700D01*
X125000Y68500D02*
X125425Y68075D01*
X125000Y68500D02*
Y70500D01*
X128100Y73600D01*
X136600Y73100D02*
X137100Y73600D01*
X135100D02*
X135800Y72900D01*
X132500Y66125D02*
X134225D01*
X135400Y67300D01*
Y72300D01*
X134100Y73600D02*
X135400Y72300D01*
X132500Y66775D02*
X134075D01*
X135000Y67700D01*
Y71700D01*
X133100Y73600D02*
X135000Y71700D01*
X132500Y67425D02*
X133925D01*
X134600Y68100D01*
Y71100D01*
X132100Y73600D02*
X134600Y71100D01*
X132500Y68075D02*
X133775D01*
X134200Y68500D01*
Y70500D01*
X131100Y73600D02*
X134200Y70500D01*
X138100Y73600D02*
X138600Y73100D01*
X139400Y72900D02*
X140100Y73600D01*
X139800Y72300D02*
X141100Y73600D01*
X141025Y66775D02*
X142700D01*
X140200Y67600D02*
X141025Y66775D01*
X140200Y67600D02*
Y71700D01*
X142100Y73600D01*
X141275Y67425D02*
X142700D01*
X140600Y68100D02*
X141275Y67425D01*
X140600Y68100D02*
Y71100D01*
X143100Y73600D01*
X141425Y68075D02*
X142700D01*
X141000Y68500D02*
X141425Y68075D01*
X141000Y68500D02*
Y70500D01*
X144100Y73600D01*
X152600Y73100D02*
X153100Y73600D01*
X151100D02*
X151800Y72900D01*
X148500Y66125D02*
X150325D01*
X151400Y67200D01*
Y72300D01*
X150100Y73600D02*
X151400Y72300D01*
X148500Y66775D02*
X149975D01*
X151000Y67800D01*
Y71700D01*
X149100Y73600D02*
X151000Y71700D01*
X148500Y67425D02*
X149825D01*
X150600Y68200D01*
Y71100D01*
X148100Y73600D02*
X150600Y71100D01*
X148500Y68075D02*
X149775D01*
X150200Y68500D01*
Y70500D01*
X147100Y73600D02*
X150200Y70500D01*
X148500Y68725D02*
X149625D01*
X149800Y68900D01*
Y69900D01*
X146100Y73600D02*
X149800Y69900D01*
X141575Y68725D02*
X142700D01*
X141400Y68900D02*
X141575Y68725D01*
X141400Y68900D02*
Y69900D01*
X145100Y73600D01*
X125575Y68725D02*
X126700D01*
X125400Y68900D02*
X125575Y68725D01*
X125400Y68900D02*
Y69900D01*
X133800Y68900D02*
Y69900D01*
X133625Y68725D02*
X133800Y68900D01*
X132500Y68725D02*
X133625D01*
X130100Y73600D02*
X133800Y69900D01*
X125400D02*
X129100Y73600D01*
X116500Y68725D02*
X117625D01*
X117800Y68900D01*
Y69900D01*
X114100Y73600D02*
X117800Y69900D01*
X109575Y68725D02*
X110700D01*
X109400Y68900D02*
X109575Y68725D01*
X109400Y68900D02*
Y69900D01*
X113100Y73600D01*
X100500Y68725D02*
X101625D01*
X101800Y68900D01*
Y69900D01*
X98100Y73600D02*
X101800Y69900D01*
X93575Y68725D02*
X94700D01*
X93400Y68900D02*
X93575Y68725D01*
X93400Y68900D02*
Y69900D01*
X97100Y73600D01*
X84500Y64175D02*
X86775D01*
X88600Y66000D01*
X84500Y64825D02*
X84525Y64800D01*
X86500D01*
X84500Y65475D02*
X86375D01*
X87800Y66900D01*
Y72900D01*
X87100Y73600D02*
X87800Y72900D01*
X84500Y66125D02*
X86325D01*
X87400Y67200D01*
Y72300D01*
X86100Y73600D02*
X87400Y72300D01*
X84500Y66775D02*
X86275D01*
X87000Y67500D01*
Y71700D01*
X85100Y73600D02*
X87000Y71700D01*
X84500Y67425D02*
X86025D01*
X86600Y68000D01*
Y71100D01*
X84100Y73600D02*
X86600Y71100D01*
X84500Y68075D02*
X85875D01*
X86200Y68400D01*
Y70500D01*
X83100Y73600D02*
X86200Y70500D01*
X76125Y64175D02*
X78700D01*
X74600Y65700D02*
X76125Y64175D01*
X74600Y65700D02*
Y73100D01*
X74100Y73600D02*
X74600Y73100D01*
X76475Y64825D02*
X78700D01*
X75000Y66300D02*
X76475Y64825D01*
X76725Y65475D02*
X78700D01*
X75400Y66800D02*
X76725Y65475D01*
X75400Y66800D02*
Y72900D01*
X76100Y73600D01*
X76875Y66125D02*
X78700D01*
X75800Y67200D02*
X76875Y66125D01*
X75800Y67200D02*
Y72300D01*
X77100Y73600D01*
X77025Y66775D02*
X78700D01*
X76200Y67600D02*
X77025Y66775D01*
X76200Y67600D02*
Y71700D01*
X78100Y73600D01*
X77275Y67425D02*
X78700D01*
X76600Y68100D02*
X77275Y67425D01*
X76600Y68100D02*
Y71000D01*
X79100Y73500D01*
X77000Y70500D02*
X80100Y73600D01*
X77000Y68500D02*
Y70500D01*
Y68500D02*
X77425Y68075D01*
X78700D01*
X84500Y68725D02*
X85625D01*
X85800Y68900D01*
Y69900D01*
X82100Y73600D02*
X85800Y69900D01*
X77575Y68725D02*
X78700D01*
X77400Y68900D02*
X77575Y68725D01*
X77400Y68900D02*
Y69900D01*
X81100Y73600D01*
X66400Y71350D02*
X67300Y71300D01*
X68500Y70100D01*
Y69375D02*
Y70100D01*
X61225Y63525D02*
X62700D01*
X61100Y62600D02*
X61375Y62875D01*
X62700D01*
X99275D02*
X100500D01*
X115175D02*
X116500D01*
X117809D01*
X131325D02*
X132500D01*
X133725D01*
X146100Y61700D02*
X147275Y62875D01*
X148500D01*
X147225Y62225D02*
X148500D01*
X146300Y61300D02*
X147225Y62225D01*
X131325D02*
X132500D01*
X115325D02*
X116500D01*
X114400Y61300D02*
X115325Y62225D01*
X99325D02*
X100500D01*
X98400Y61300D02*
X99325Y62225D01*
X68500Y64175D02*
X70875D01*
X72600Y65900D01*
Y73100D01*
X73100Y73600D01*
X68500Y64825D02*
X70625D01*
X72200Y66400D01*
Y73200D01*
X68500Y65475D02*
X70475D01*
X71800Y66800D01*
Y72900D01*
X71100Y73600D02*
X71800Y72900D01*
X71400Y67200D02*
Y72300D01*
X70325Y66125D02*
X71400Y67200D01*
X68500Y66125D02*
X70325D01*
X70100Y73600D02*
X71400Y72300D01*
X68500Y66775D02*
X70175D01*
X71000Y67600D01*
Y71700D01*
X69100Y73600D02*
X71000Y71700D01*
X68500Y67425D02*
X70025D01*
X70600Y68000D01*
Y71100D01*
X68100Y73600D02*
X70600Y71100D01*
X68500Y68075D02*
X69775D01*
X70200Y68500D01*
Y70500D01*
X67100Y73600D02*
X70200Y70500D01*
X68500Y68725D02*
X69625D01*
X69800Y68900D01*
Y69900D01*
X66100Y73600D02*
X69800Y69900D01*
X60625Y64175D02*
X62700D01*
X58600Y66200D02*
X60625Y64175D01*
X58600Y66200D02*
Y73100D01*
X58100Y73600D02*
X58600Y73100D01*
X60875Y64825D02*
X62700D01*
X59000Y66700D02*
X60875Y64825D01*
X61025Y65475D02*
X62700D01*
X59400Y67100D02*
X61025Y65475D01*
X59400Y67100D02*
Y72800D01*
X60100Y73500D01*
X61075Y66125D02*
X62700D01*
X59800Y67400D02*
X61075Y66125D01*
X59800Y67400D02*
Y72300D01*
X61100Y73600D01*
X61125Y66775D02*
X62700D01*
X60200Y67700D02*
X61125Y66775D01*
X60200Y67700D02*
Y71700D01*
X61375Y67425D02*
X62700D01*
X60600Y68200D02*
X61375Y67425D01*
X60600Y68200D02*
Y71100D01*
X61601Y68075D02*
X62700D01*
X61000Y68676D02*
X61601Y68075D01*
X61000Y68676D02*
Y70500D01*
X61675Y68725D02*
X62700D01*
X61400Y69000D02*
X61675Y68725D01*
X61400Y69000D02*
Y69900D01*
X65100Y73600D01*
X61000Y70500D02*
X64100Y73600D01*
X60600Y71100D02*
X63100Y73600D01*
X60200Y71700D02*
X62100Y73600D01*
X66400Y63900D02*
Y71350D01*
X77075Y63525D02*
X78700D01*
X77000Y63600D02*
X77075Y63525D01*
X75700Y63600D02*
X77000D01*
X75600Y63500D02*
X75700Y63600D01*
X68500Y62875D02*
X69700D01*
X68500Y62225D02*
X68503Y62228D01*
X76075Y61300D02*
X76300D01*
X69825Y61828D02*
X75547D01*
X76075Y61300D01*
X68503Y62228D02*
X75716D01*
X76144Y61800D01*
X69700Y62875D02*
X69925Y62650D01*
X75860D01*
X76310Y62200D01*
X60700Y63000D02*
X61225Y63525D01*
X76600Y62875D02*
X78700D01*
X61100Y61900D02*
Y62600D01*
X60700Y61675D02*
Y63000D01*
X61100Y61900D02*
X61350Y61650D01*
X69647D02*
X69825Y61828D01*
X60700Y61675D02*
X61125Y61250D01*
X75125D02*
X75275Y61100D01*
X91600Y63500D02*
X91700Y63600D01*
X92600Y62875D02*
X94700D01*
X90500Y66000D02*
X92325Y64175D01*
X94700D01*
X91700Y63600D02*
X93000D01*
X93075Y63525D01*
X94700D01*
X76310Y62200D02*
X77000D01*
X84500Y62225D02*
X84503Y62228D01*
X91716D01*
X92144Y61800D01*
X75275Y61100D02*
X75525D01*
X75800Y60825D01*
Y60810D02*
Y60825D01*
X84500Y62875D02*
X85825D01*
X76500Y61100D02*
X76700Y60900D01*
X82566D01*
X76144Y61800D02*
X76825D01*
X77325Y61300D01*
X82400D01*
X77000Y62200D02*
X77500Y61700D01*
X91624Y61725D02*
X92124Y61225D01*
X91079Y61003D02*
Y61146D01*
X91025Y61200D02*
X91079Y61146D01*
X91301Y61224D02*
X92147Y60378D01*
X61350Y61650D02*
X69647D01*
X61125Y61250D02*
X75125D01*
X83854Y60603D02*
X83857Y60600D01*
X106600Y66000D02*
X108425Y64175D01*
X110700D01*
X109015Y63625D02*
X109115Y63525D01*
X110700D01*
X98100Y61700D02*
X99275Y62875D01*
X92310Y62200D02*
X93066D01*
X92144Y61800D02*
X92900D01*
X93066Y62200D02*
X93566Y61700D01*
X92900Y61800D02*
X93400Y61300D01*
X140875Y62875D02*
X142700D01*
X122600Y66000D02*
X124425Y64175D01*
X126700D01*
X123750Y63525D02*
X123900Y63675D01*
X125200D01*
X125350Y63525D01*
X126700D01*
X139775Y63500D02*
X139850Y63575D01*
X141200D01*
X141250Y63525D01*
X142700D01*
X133725Y62875D02*
X133875Y62725D01*
X141141Y62175D02*
X141616Y61700D01*
X140975Y61775D02*
X141450Y61300D01*
X131325Y62225D02*
X131325Y62225D01*
X130200Y61750D02*
X131325Y62875D01*
X124885Y61875D02*
X125410Y61350D01*
X124501Y61153D02*
X124609D01*
X124510Y62275D02*
X125051D01*
X124344Y61875D02*
X124885D01*
X125051Y62275D02*
X125576Y61750D01*
X140629Y61000D02*
X140675D01*
X133875Y62725D02*
X140035D01*
X140585Y62175D01*
X141141D01*
X140419Y61775D02*
X140975D01*
X82797Y60000D02*
X83397Y60600D01*
X100233Y60525D02*
X100255Y60503D01*
X100175Y60525D02*
X100233D01*
X83397Y60600D02*
X83857D01*
X116128Y60528D02*
X116456D01*
X125576Y61750D02*
X130200D01*
X125410Y61350D02*
X130366D01*
X131241Y62225D01*
X131325D01*
X124911Y60950D02*
X130531D01*
X131256Y61675D01*
X133750D01*
X133925Y61850D01*
X139779D01*
X140629Y61000D01*
X132500Y62225D02*
X132525Y62250D01*
X139944D01*
X140419Y61775D01*
X131422Y61275D02*
X139300D01*
X139475Y61100D01*
X131750Y60875D02*
X131781Y60844D01*
Y60553D02*
Y60844D01*
Y60553D02*
X132103Y60875D01*
X138710D01*
X139285Y60300D01*
X140965D01*
X141565Y60900D01*
X146200D01*
X146232Y60578D02*
Y60868D01*
X146200Y60900D02*
X146232Y60868D01*
X62700Y69375D02*
X64025D01*
X130400Y63600D02*
Y71150D01*
X130550Y71300D01*
X141550Y55350D02*
X143500D01*
X141000Y55900D02*
X141550Y55350D01*
X140540Y59160D02*
X141000Y58700D01*
X138600Y59160D02*
X140540D01*
X141010Y57890D02*
X143500D01*
X141000Y56600D02*
Y58700D01*
X138600Y56620D02*
X140920D01*
X140940Y56600D01*
X141000Y55900D02*
Y56540D01*
X123384Y61250D02*
X124181Y60453D01*
X130600D01*
X131422Y61275D01*
X136150Y55350D02*
X138600D01*
X136290Y52810D02*
X138600D01*
X136100Y53000D02*
X136290Y52810D01*
X136160Y51540D02*
X138600D01*
X136100Y51600D02*
X136160Y51540D01*
X143500D02*
X145940D01*
X143500Y52810D02*
X145710D01*
X146000Y53100D01*
X143500Y54080D02*
X145630D01*
X146400Y54850D01*
X91885Y51475D02*
X94400D01*
X94235Y52735D02*
X94400Y52900D01*
X91875Y52735D02*
X94235D01*
X84500Y52900D02*
X84665Y52735D01*
X86975D01*
X91875Y54005D02*
X93955D01*
X94650Y54700D01*
X82400Y63800D02*
Y71150D01*
X82550Y71300D01*
X81400Y59300D02*
X83000D01*
X84485Y57815D01*
X86975D01*
X93566Y61700D02*
X98100D01*
X93400Y61300D02*
X98400D01*
X92600Y60900D02*
X98800D01*
X99600Y61700D01*
X98978Y60378D02*
X99825Y61225D01*
X100500Y62225D02*
X104435D01*
X104910Y62700D01*
X105500D01*
X104744Y63100D02*
X105666D01*
X108971Y62875D02*
X110700D01*
X108721Y63125D02*
X108971Y62875D01*
X105500Y62700D02*
X105875Y62325D01*
X105666Y63100D02*
X106041Y62725D01*
X105875Y62325D02*
X108390D01*
X106041Y62725D02*
X108556D01*
X106400Y63125D02*
X108721D01*
X107600Y63625D02*
X109015D01*
X107325Y63900D02*
X107600Y63625D01*
X105350Y61850D02*
X108150D01*
X105200Y62000D02*
X105350Y61850D01*
X106080Y61128D02*
Y61270D01*
X99825Y61225D02*
X108191D01*
X114000Y61700D02*
X115175Y62875D01*
X108750Y60100D02*
X115700D01*
X108191Y61225D02*
X108916Y60500D01*
X108150Y61850D02*
X109100Y60900D01*
X108390Y62325D02*
X109415Y61300D01*
X108556Y62725D02*
X109581Y61700D01*
X115700Y60100D02*
X116128Y60528D01*
X89950Y55275D02*
X91875D01*
X89400Y55825D02*
X89950Y55275D01*
X88640Y59085D02*
X89400Y58325D01*
X86975Y59085D02*
X88640D01*
X89410Y57815D02*
X91875D01*
X89400Y57825D02*
X89410Y57815D01*
X89400Y57825D02*
Y58325D01*
X86975Y56545D02*
X89395D01*
X89400D02*
Y57825D01*
Y55825D02*
Y56540D01*
X143500Y56620D02*
X145920D01*
X123397Y60053D02*
X130928D01*
X131750Y60875D01*
X80000Y51400D02*
X80000Y51400D01*
X80000Y51400D02*
Y51500D01*
X133000Y51600D02*
Y55800D01*
X133820Y56620D01*
X138600D01*
X80000Y51400D02*
Y55300D01*
X88675Y51475D02*
X88700Y51500D01*
Y51500D01*
X84500Y51475D02*
X88675D01*
X86975Y52735D02*
X88665D01*
X90865D02*
X91875D01*
X89800Y53800D02*
X90865Y52735D01*
X90535Y51465D02*
X91875D01*
X88665Y52735D02*
X88700Y52700D01*
X89800Y52200D02*
X90535Y51465D01*
X89800Y52200D02*
Y52700D01*
X141860Y51540D02*
X143500D01*
X141800Y51600D02*
X141860Y51540D01*
X141710Y52810D02*
X141720Y52800D01*
X141710Y52810D02*
X143500D01*
X138600Y51540D02*
X139640D01*
X140700Y52600D01*
Y52800D01*
X138600Y52810D02*
X139610D01*
X140700Y54000D02*
X140800D01*
X139610Y52810D02*
X140800Y54000D01*
X136210Y57890D02*
X138600D01*
X85000Y56600D02*
Y56800D01*
X85255Y56545D01*
X86975D01*
X81300Y56600D02*
X83100D01*
X80000Y55300D02*
X81300Y56600D01*
X84500Y55300D02*
X84525Y55275D01*
X86975D01*
X83200Y57300D02*
X84500Y56000D01*
Y55700D02*
Y56000D01*
X81300Y57300D02*
X83200D01*
X75800Y60810D02*
X76210Y60400D01*
X82631D01*
X79000Y59600D02*
X81300Y57300D01*
X65300Y60500D02*
X66200Y59600D01*
X79000D01*
X66903Y60528D02*
X67431Y60000D01*
X82797D01*
X143500Y59160D02*
X145940D01*
X145200Y59900D02*
Y60200D01*
Y59900D02*
X145940Y59160D01*
X146000Y59100D01*
X96524Y59200D02*
X97400D01*
X92147Y60378D02*
X98978D01*
X91875Y56545D02*
X94245D01*
X95500Y57800D01*
X99100D01*
X82000Y55300D02*
X82900D01*
X82000Y58000D02*
X82900D01*
X96000Y58800D02*
X96500Y58300D01*
X98900D02*
Y58500D01*
X98800Y58600D02*
X98900Y58500D01*
X96500Y58300D02*
X98900D01*
X96000Y56600D02*
X102200D01*
X101000Y58500D02*
X107420D01*
X147600Y59100D02*
X148500D01*
X133100Y59000D02*
X135100D01*
X136210Y57890D01*
X107420Y58500D02*
X109350Y56570D01*
X102200Y56600D02*
X103600Y58000D01*
X105380D01*
X106810Y56570D01*
X124590D02*
X125920Y57900D01*
X134500D01*
X122050Y56570D02*
X123780Y58300D01*
X131000D01*
X141616Y61700D02*
X146100D01*
X141450Y61300D02*
X146300D01*
X109581Y61700D02*
X114000D01*
X109415Y61300D02*
X114400D01*
X108916Y60500D02*
X114900D01*
X115650Y61250D01*
X109100Y60900D02*
X114734D01*
X115484Y61650D01*
X142700Y59900D02*
X143000Y60200D01*
X131000Y58300D02*
X132600Y59900D01*
X142700D01*
X95476Y59200D02*
X95476Y59200D01*
X96524D01*
X96524Y59200D01*
X92700Y59085D02*
X92815Y59200D01*
X94400Y58500D02*
Y59200D01*
X92815D02*
X94400D01*
X95476D01*
X99628Y59978D02*
X100175Y60525D01*
X90972Y59978D02*
X99628D01*
X124800Y62975D02*
X124900Y62875D01*
X126700D01*
X99600Y61700D02*
X105200D01*
X113200Y59300D02*
X113300D01*
X112800Y59700D02*
X113200Y59300D01*
X101000Y59700D02*
X112800D01*
X108422Y60428D02*
X108750Y60100D01*
X99100Y57800D02*
X101000Y59700D01*
X100255Y60503D02*
X100330Y60428D01*
X108422D01*
X116456Y60528D02*
X116628Y60700D01*
X122750D01*
X123397Y60053D01*
X83854Y60603D02*
X84051Y60800D01*
X90150D01*
X90972Y59978D01*
X111890Y56570D02*
X114220Y58900D01*
X114430Y56570D02*
X116260Y58400D01*
X116500Y62225D02*
X117725D01*
X118300Y62800D01*
X115484Y61650D02*
X117950D01*
X118900Y61500D02*
Y61600D01*
X115650Y61250D02*
X123384D01*
X114220Y58900D02*
X117900D01*
X118900Y59900D01*
X116260Y58400D02*
X118500D01*
X120000Y59900D01*
X119800Y62200D02*
X120000Y62000D01*
X117950Y61650D02*
X118500Y62200D01*
X119800D01*
X123954Y61700D02*
X124501Y61153D01*
X116970Y56570D02*
X118300Y57900D01*
X119500D01*
X121000Y59400D01*
Y59900D01*
X120000Y62000D02*
X120300Y61700D01*
X123954D01*
X120600Y62800D02*
X121000Y62400D01*
X118300Y62800D02*
X120600D01*
X121000Y62400D02*
X121300Y62100D01*
X124119D01*
X124344Y61875D01*
X119510Y56570D02*
X122100Y59160D01*
Y59900D01*
X124285Y62500D02*
X124510Y62275D01*
X122400Y62500D02*
X124285D01*
X122100Y62800D02*
X122400Y62500D01*
X117809Y62875D02*
X118134Y63200D01*
X121700D02*
X122100Y62800D01*
X118134Y63200D02*
X121700D01*
X80894Y63775D02*
Y68706D01*
X80225Y69375D02*
X80894Y68706D01*
X82631Y60400D02*
X83556Y61325D01*
X91025D01*
X82566Y60900D02*
X83391Y61725D01*
X91624D01*
X82400Y61300D02*
X83325Y62225D01*
X84500D01*
X77500Y61700D02*
X82200D01*
X83375Y62875D01*
X84500D01*
X97000Y64025D02*
Y68200D01*
X95825Y69375D02*
X97000Y68200D01*
X112900Y64025D02*
Y68500D01*
X112025Y69375D02*
X112900Y68500D01*
X128900Y63775D02*
Y68500D01*
X128025Y69375D02*
X128900Y68500D01*
D19*
X69295Y54025D02*
D03*
X71835Y56565D02*
D03*
D20*
X74375Y54025D02*
D03*
D21*
X122050Y54030D02*
D03*
X119510D02*
D03*
X116970D02*
D03*
X122050Y56570D02*
D03*
X119510D02*
D03*
X116970D02*
D03*
X124590D02*
D03*
X124560Y54030D02*
D03*
X127130D02*
D03*
Y56570D02*
D03*
X114430D02*
D03*
Y54030D02*
D03*
X111860D02*
D03*
X111890Y56570D02*
D03*
X104270D02*
D03*
X106810D02*
D03*
X109350D02*
D03*
X106810Y54030D02*
D03*
X109350D02*
D03*
D22*
X104270D02*
D03*
D23*
X53500Y53500D02*
D03*
Y85000D02*
D03*
X157700Y53500D02*
D03*
Y85000D02*
D03*
D24*
X63000Y85100D02*
D03*
Y83500D02*
D03*
X59000D02*
D03*
X65400Y84900D02*
D03*
X61000Y87200D02*
D03*
X56400Y87000D02*
D03*
X51400Y87100D02*
D03*
X154000Y83300D02*
D03*
X154300Y81200D02*
D03*
Y77900D02*
D03*
Y75600D02*
D03*
X157200Y77000D02*
D03*
Y81400D02*
D03*
X159900Y87300D02*
D03*
X154900Y87000D02*
D03*
X151100Y83400D02*
D03*
X152300Y85000D02*
D03*
X148500Y83300D02*
D03*
X149000Y84700D02*
D03*
X151000Y86400D02*
D03*
X133200Y84700D02*
D03*
X132700Y83400D02*
D03*
X138100Y83500D02*
D03*
X145300Y83400D02*
D03*
X145100Y85100D02*
D03*
X140900Y86200D02*
D03*
X138100D02*
D03*
X135400D02*
D03*
X117500Y84600D02*
D03*
X116500Y83300D02*
D03*
X122500Y83500D02*
D03*
X129400D02*
D03*
X129300Y85100D02*
D03*
X125200Y86400D02*
D03*
X122400Y86300D02*
D03*
X119600D02*
D03*
X113300Y83400D02*
D03*
Y85400D02*
D03*
X106600Y83300D02*
D03*
X100700Y83400D02*
D03*
X101100Y84700D02*
D03*
X109400Y86400D02*
D03*
X106500D02*
D03*
X103300Y86500D02*
D03*
X69100Y84700D02*
D03*
X85300Y84600D02*
D03*
X84800Y83200D02*
D03*
X90300Y83400D02*
D03*
X97200Y83300D02*
D03*
Y85000D02*
D03*
X90200Y86300D02*
D03*
X93100Y86500D02*
D03*
X87600Y86300D02*
D03*
X77900Y83400D02*
D03*
X81400Y85100D02*
D03*
X81500Y83300D02*
D03*
X73600Y83400D02*
D03*
X77700Y86500D02*
D03*
X74300D02*
D03*
X68900Y83300D02*
D03*
X71000Y86400D02*
D03*
X153100Y73600D02*
D03*
Y79400D02*
D03*
X152100Y73600D02*
D03*
Y79400D02*
D03*
X151100Y73600D02*
D03*
Y79400D02*
D03*
X150100Y73600D02*
D03*
Y79400D02*
D03*
X149100Y73600D02*
D03*
Y79400D02*
D03*
X148100Y73600D02*
D03*
Y79400D02*
D03*
X147100Y73600D02*
D03*
Y79400D02*
D03*
X146100Y73600D02*
D03*
Y79400D02*
D03*
X145100Y73600D02*
D03*
Y79400D02*
D03*
X144100Y73600D02*
D03*
Y79400D02*
D03*
X143100Y73600D02*
D03*
Y79400D02*
D03*
X142100Y73600D02*
D03*
X142100Y79400D02*
D03*
X141100Y73600D02*
D03*
Y79400D02*
D03*
X140100Y73600D02*
D03*
Y79400D02*
D03*
X139100Y73600D02*
D03*
Y79400D02*
D03*
X138100Y73600D02*
D03*
X138100Y79400D02*
D03*
X137100Y73600D02*
D03*
Y79400D02*
D03*
X136100Y73600D02*
D03*
Y79400D02*
D03*
X135100Y73600D02*
D03*
Y79400D02*
D03*
X134100Y73600D02*
D03*
Y79400D02*
D03*
X133100Y73600D02*
D03*
X133100Y79400D02*
D03*
X132100Y73600D02*
D03*
Y79400D02*
D03*
X131100Y73600D02*
D03*
Y79400D02*
D03*
X130100Y73600D02*
D03*
Y79400D02*
D03*
X129100Y73600D02*
D03*
Y79400D02*
D03*
X128100Y73600D02*
D03*
Y79400D02*
D03*
X127100Y73600D02*
D03*
Y79400D02*
D03*
X126100Y73600D02*
D03*
Y79400D02*
D03*
X125100Y73600D02*
D03*
Y79400D02*
D03*
X124100Y73600D02*
D03*
Y79400D02*
D03*
X123100Y73600D02*
D03*
Y79400D02*
D03*
X122100Y73600D02*
D03*
Y79400D02*
D03*
X121100Y73600D02*
D03*
Y79400D02*
D03*
X120100Y73600D02*
D03*
Y79400D02*
D03*
X119100Y73600D02*
D03*
Y79400D02*
D03*
X118100Y73600D02*
D03*
Y79400D02*
D03*
X117100Y73600D02*
D03*
Y79400D02*
D03*
X116100Y73600D02*
D03*
Y79400D02*
D03*
X115100Y73600D02*
D03*
Y79400D02*
D03*
X114100Y73600D02*
D03*
Y79400D02*
D03*
X113100Y73600D02*
D03*
Y79400D02*
D03*
X112100Y73600D02*
D03*
Y79400D02*
D03*
X111100Y73600D02*
D03*
Y79400D02*
D03*
X110100Y73600D02*
D03*
Y79400D02*
D03*
X109100Y73600D02*
D03*
Y79400D02*
D03*
X108100Y73600D02*
D03*
Y79400D02*
D03*
X107100Y73600D02*
D03*
Y79400D02*
D03*
X106100Y73600D02*
D03*
Y79400D02*
D03*
X105100Y73600D02*
D03*
Y79400D02*
D03*
X104100Y73600D02*
D03*
Y79400D02*
D03*
X103100Y73600D02*
D03*
Y79400D02*
D03*
X102100Y73600D02*
D03*
Y79400D02*
D03*
X101100Y73600D02*
D03*
Y79400D02*
D03*
X100100Y73600D02*
D03*
Y79400D02*
D03*
X99100Y73600D02*
D03*
Y79400D02*
D03*
X98100Y73600D02*
D03*
Y79400D02*
D03*
X97100Y73600D02*
D03*
Y79400D02*
D03*
X96100Y73600D02*
D03*
Y79400D02*
D03*
X95100Y73600D02*
D03*
Y79400D02*
D03*
X94100Y73600D02*
D03*
Y79400D02*
D03*
X93100Y73600D02*
D03*
Y79400D02*
D03*
X92100Y73600D02*
D03*
Y79400D02*
D03*
X91100Y73600D02*
D03*
Y79400D02*
D03*
X90100Y73600D02*
D03*
Y79400D02*
D03*
X88100Y73600D02*
D03*
X89100D02*
D03*
Y79400D02*
D03*
X88100D02*
D03*
X87100Y73600D02*
D03*
Y79400D02*
D03*
X86100Y73600D02*
D03*
Y79400D02*
D03*
X85100Y73600D02*
D03*
Y79400D02*
D03*
X84100Y73600D02*
D03*
Y79400D02*
D03*
X83100Y73600D02*
D03*
Y79400D02*
D03*
X82100Y73600D02*
D03*
Y79400D02*
D03*
X81100Y73600D02*
D03*
Y79400D02*
D03*
X80100Y73600D02*
D03*
Y79400D02*
D03*
X79100Y73600D02*
D03*
Y79400D02*
D03*
X78100Y73600D02*
D03*
Y79400D02*
D03*
X77100Y73600D02*
D03*
Y79400D02*
D03*
X76100Y73600D02*
D03*
Y79400D02*
D03*
X75100Y73600D02*
D03*
Y79400D02*
D03*
X74100Y73600D02*
D03*
Y79400D02*
D03*
X73100Y73600D02*
D03*
Y79400D02*
D03*
X72100Y73600D02*
D03*
Y79400D02*
D03*
X71100Y73600D02*
D03*
Y79400D02*
D03*
X70100Y73600D02*
D03*
Y79400D02*
D03*
X69100Y73600D02*
D03*
Y79400D02*
D03*
X68100Y73600D02*
D03*
Y79400D02*
D03*
X67100Y73600D02*
D03*
Y79400D02*
D03*
X66100Y73600D02*
D03*
Y79400D02*
D03*
X65100Y73600D02*
D03*
Y79400D02*
D03*
X64100Y73600D02*
D03*
Y79400D02*
D03*
X63100Y73600D02*
D03*
Y79400D02*
D03*
X62100Y73600D02*
D03*
Y79400D02*
D03*
X61100Y73600D02*
D03*
Y79400D02*
D03*
X60100Y73600D02*
D03*
X60100Y79400D02*
D03*
X59100Y73600D02*
D03*
Y79400D02*
D03*
X58100Y73600D02*
D03*
Y79400D02*
D03*
X56200Y77800D02*
D03*
Y72300D02*
D03*
Y68400D02*
D03*
X57000Y62500D02*
D03*
X51500Y77700D02*
D03*
X51600Y73100D02*
D03*
X51450Y68300D02*
D03*
X51400Y62700D02*
D03*
X51450Y57550D02*
D03*
X57700Y54400D02*
D03*
X57675Y57600D02*
D03*
X62100Y54400D02*
D03*
X62050Y57575D02*
D03*
X66300Y57600D02*
D03*
Y54400D02*
D03*
X62200Y51000D02*
D03*
X57700D02*
D03*
X51400D02*
D03*
X66375Y51125D02*
D03*
X70950Y50650D02*
D03*
X78650Y51925D02*
D03*
X75850Y51825D02*
D03*
X69700Y58650D02*
D03*
X75125Y58600D02*
D03*
X78600Y58450D02*
D03*
X69650Y56350D02*
D03*
X71775Y54000D02*
D03*
X76025Y54600D02*
D03*
X79175Y54150D02*
D03*
X130975Y56125D02*
D03*
X123300Y59150D02*
D03*
X127200Y59200D02*
D03*
X130475Y59100D02*
D03*
X111975Y58925D02*
D03*
X108550Y58900D02*
D03*
X110600Y57875D02*
D03*
X97900Y55775D02*
D03*
X88975Y54425D02*
D03*
X80925Y54000D02*
D03*
X81425Y51850D02*
D03*
X82575Y54075D02*
D03*
X84775Y54125D02*
D03*
X84550Y59275D02*
D03*
X86700Y60075D02*
D03*
X89675Y59425D02*
D03*
X93725Y57550D02*
D03*
X97975Y53800D02*
D03*
X99900Y54000D02*
D03*
X101525Y55725D02*
D03*
X102425Y53575D02*
D03*
X105625Y55450D02*
D03*
X107975Y55325D02*
D03*
X110550Y55275D02*
D03*
X113150Y55300D02*
D03*
X115700Y55425D02*
D03*
X118200Y55325D02*
D03*
X120675Y55375D02*
D03*
X123275Y55300D02*
D03*
X125975Y55325D02*
D03*
X128050Y55275D02*
D03*
X128950Y57125D02*
D03*
X131025Y54175D02*
D03*
X141575Y59175D02*
D03*
X134325Y54200D02*
D03*
X136325Y54125D02*
D03*
X132900Y57050D02*
D03*
X136425Y59075D02*
D03*
X140600Y55150D02*
D03*
X159700Y81400D02*
D03*
X157200Y72900D02*
D03*
X159525Y72975D02*
D03*
X159500Y69100D02*
D03*
X157200Y69000D02*
D03*
Y64800D02*
D03*
X159525Y65000D02*
D03*
X159550Y60600D02*
D03*
X156275Y60675D02*
D03*
X156325Y56675D02*
D03*
X159825Y56650D02*
D03*
X160000Y51275D02*
D03*
X154800Y51475D02*
D03*
X152725Y57325D02*
D03*
X149300Y56750D02*
D03*
X145850Y57950D02*
D03*
X148925Y52900D02*
D03*
X150175Y54800D02*
D03*
X150275Y51900D02*
D03*
X152950Y54550D02*
D03*
X150200Y59975D02*
D03*
Y61725D02*
D03*
X152975Y59900D02*
D03*
X153800Y68600D02*
D03*
X154000Y72300D02*
D03*
X153025Y64550D02*
D03*
X150250Y63325D02*
D03*
X144375Y62500D02*
D03*
X145600Y65375D02*
D03*
Y67725D02*
D03*
X147275Y70150D02*
D03*
X145575Y72550D02*
D03*
X144950Y69725D02*
D03*
X143250Y70675D02*
D03*
X129650Y72625D02*
D03*
X131350Y70200D02*
D03*
X128325Y62475D02*
D03*
X121550Y72400D02*
D03*
X121600Y69600D02*
D03*
X121625Y66575D02*
D03*
X122250Y64475D02*
D03*
X119575Y63925D02*
D03*
X67350Y70175D02*
D03*
X83300Y70125D02*
D03*
X99200Y70075D02*
D03*
X115350Y70175D02*
D03*
X113625Y72575D02*
D03*
X111350Y70750D02*
D03*
X112775Y69725D02*
D03*
X113675Y67675D02*
D03*
Y65075D02*
D03*
X112400Y62475D02*
D03*
X105625Y72275D02*
D03*
X105575Y69400D02*
D03*
X105600Y66300D02*
D03*
X105200Y63900D02*
D03*
X102375Y63450D02*
D03*
X97750Y65150D02*
D03*
X97725Y67550D02*
D03*
X97625Y72575D02*
D03*
X96675Y69750D02*
D03*
X95275Y70625D02*
D03*
X96450Y62425D02*
D03*
X89475Y64275D02*
D03*
X89550Y66525D02*
D03*
X89500Y69600D02*
D03*
X86400Y63475D02*
D03*
X80375Y62475D02*
D03*
X81650Y64700D02*
D03*
X81625Y67600D02*
D03*
X80875Y69850D02*
D03*
X79250Y70550D02*
D03*
X81625Y72550D02*
D03*
X73600Y71900D02*
D03*
Y67525D02*
D03*
Y64175D02*
D03*
X70425Y63400D02*
D03*
X64525Y62400D02*
D03*
X65625Y65325D02*
D03*
X65600Y67525D02*
D03*
X65625Y72600D02*
D03*
X64750Y69850D02*
D03*
X63275Y70575D02*
D03*
X146257Y64150D02*
D03*
X144850Y64125D02*
D03*
X130375Y63800D02*
D03*
X128900Y63775D02*
D03*
X114225Y63975D02*
D03*
X112875Y64025D02*
D03*
X98450Y64100D02*
D03*
X96950Y64025D02*
D03*
X66350Y63900D02*
D03*
X64825Y63775D02*
D03*
X80850D02*
D03*
X91600Y63500D02*
D03*
X76600Y62900D02*
D03*
X75600Y63500D02*
D03*
X76500Y61100D02*
D03*
X75275D02*
D03*
X92600Y62900D02*
D03*
X92455Y61078D02*
D03*
X91079Y61003D02*
D03*
X83854Y60603D02*
D03*
X66903Y60528D02*
D03*
X139775Y63500D02*
D03*
X123750Y63525D02*
D03*
X124800Y62975D02*
D03*
X140875Y62875D02*
D03*
X140675Y61000D02*
D03*
X124609Y61153D02*
D03*
X123525Y60950D02*
D03*
X139475Y61100D02*
D03*
X100255Y60503D02*
D03*
X116456Y60528D02*
D03*
X131781Y60553D02*
D03*
X146232Y60578D02*
D03*
X65300Y60500D02*
D03*
X81400Y59300D02*
D03*
X97400Y59200D02*
D03*
X106300Y63500D02*
D03*
X105200Y62000D02*
D03*
X107325Y63900D02*
D03*
X106080Y61128D02*
D03*
X145200Y60200D02*
D03*
X80000Y51500D02*
D03*
X133000Y51600D02*
D03*
X89800Y53800D02*
D03*
X89800Y52700D02*
D03*
X88700Y51500D02*
D03*
X88700Y52700D02*
D03*
X141800Y51600D02*
D03*
X141720Y52800D02*
D03*
X140700Y52800D02*
D03*
X140700Y54000D02*
D03*
X82900Y56600D02*
D03*
X85000D02*
D03*
X82000Y55300D02*
D03*
Y58000D02*
D03*
X98800Y58600D02*
D03*
X101000Y58500D02*
D03*
X148500Y59100D02*
D03*
X143000Y60200D02*
D03*
X133100Y59000D02*
D03*
X113300Y59300D02*
D03*
X118900Y61500D02*
D03*
X118900Y59900D02*
D03*
X120000D02*
D03*
X120000Y62000D02*
D03*
X121000Y59900D02*
D03*
Y62400D02*
D03*
X122100Y59900D02*
D03*
Y62800D02*
D03*
X82400Y63800D02*
D03*
X134275Y63475D02*
D03*
X138350Y63625D02*
D03*
X137600Y66200D02*
D03*
Y69700D02*
D03*
X137575Y72200D02*
D03*
X127250Y70425D02*
D03*
X128725Y69925D02*
D03*
X129675Y67925D02*
D03*
Y66275D02*
D03*
X51500Y81900D02*
D03*
X56100D02*
D03*
X159700Y77000D02*
D03*
M02*
