%FSLAX43Y43*%
%MOMM*%
G71*
G01*
G75*
G04 Layer_Color=8388736*
%ADD10R,0.800X0.800*%
%ADD11R,0.800X0.800*%
%ADD12R,1.500X1.400*%
%ADD13R,2.500X0.700*%
%ADD14R,1.100X1.100*%
%ADD15R,1.400X1.500*%
%ADD16R,2.000X0.350*%
%ADD17C,0.400*%
%ADD18C,0.200*%
%ADD19C,1.500*%
%ADD20R,1.500X1.500*%
%ADD21C,1.600*%
%ADD22R,1.600X1.600*%
%ADD23C,3.200*%
%ADD24C,0.800*%
%ADD25C,0.250*%
%ADD26C,0.600*%
%ADD27C,0.100*%
%ADD28R,0.900X0.900*%
%ADD29R,0.900X0.900*%
%ADD30R,1.600X1.500*%
%ADD31R,2.600X0.800*%
%ADD32R,1.200X1.200*%
%ADD33R,1.500X1.600*%
%ADD34R,2.100X0.450*%
%ADD35C,1.700*%
%ADD36R,1.700X1.700*%
%ADD37C,3.300*%
%ADD38C,0.900*%
D21*
X69295Y54025D02*
D03*
X71835Y56565D02*
D03*
D22*
X74375Y54025D02*
D03*
D28*
X126100Y76200D02*
D03*
Y74600D02*
D03*
X137100Y76200D02*
D03*
Y74600D02*
D03*
X138100Y76200D02*
D03*
Y74600D02*
D03*
X150100Y76200D02*
D03*
Y74600D02*
D03*
X139100Y76200D02*
D03*
Y74600D02*
D03*
X151100Y76200D02*
D03*
Y74600D02*
D03*
X140100Y76200D02*
D03*
Y74600D02*
D03*
X152100Y76200D02*
D03*
Y74600D02*
D03*
X141100Y76200D02*
D03*
Y74600D02*
D03*
X149100Y76200D02*
D03*
Y74600D02*
D03*
X153100Y76200D02*
D03*
Y74600D02*
D03*
X142100Y76200D02*
D03*
Y74600D02*
D03*
X143100Y76200D02*
D03*
Y74600D02*
D03*
X67100Y74600D02*
D03*
Y76200D02*
D03*
X59100Y74600D02*
D03*
Y76200D02*
D03*
X70100Y74600D02*
D03*
Y76200D02*
D03*
X66100Y74600D02*
D03*
Y76200D02*
D03*
X58100D02*
D03*
Y74600D02*
D03*
X63100D02*
D03*
Y76200D02*
D03*
X71100D02*
D03*
Y74600D02*
D03*
X60100Y76200D02*
D03*
Y74600D02*
D03*
X68100Y76200D02*
D03*
Y74600D02*
D03*
X72100Y76200D02*
D03*
Y74600D02*
D03*
X61100Y76200D02*
D03*
Y74600D02*
D03*
X69100Y76200D02*
D03*
Y74600D02*
D03*
X73100Y76200D02*
D03*
Y74600D02*
D03*
X62100Y76200D02*
D03*
Y74600D02*
D03*
X64100Y76200D02*
D03*
Y74600D02*
D03*
X65100Y76200D02*
D03*
Y74600D02*
D03*
X74100Y76200D02*
D03*
Y74600D02*
D03*
X82100Y76200D02*
D03*
Y74600D02*
D03*
X86100Y76200D02*
D03*
Y74600D02*
D03*
X75100Y76200D02*
D03*
Y74600D02*
D03*
X83100Y76200D02*
D03*
Y74600D02*
D03*
X87100Y76200D02*
D03*
Y74600D02*
D03*
X76100Y76200D02*
D03*
Y74600D02*
D03*
X84100Y76200D02*
D03*
Y74600D02*
D03*
X88100Y76200D02*
D03*
Y74600D02*
D03*
X77100Y76200D02*
D03*
Y74600D02*
D03*
X85100Y76200D02*
D03*
Y74600D02*
D03*
X89100Y76200D02*
D03*
Y74600D02*
D03*
X78100Y76200D02*
D03*
Y74600D02*
D03*
X79100Y76200D02*
D03*
Y74600D02*
D03*
X80100Y76200D02*
D03*
Y74600D02*
D03*
X90100Y76200D02*
D03*
Y74600D02*
D03*
X98100Y76200D02*
D03*
Y74600D02*
D03*
X102100Y76200D02*
D03*
Y74600D02*
D03*
X91100Y76200D02*
D03*
Y74600D02*
D03*
X99100Y76200D02*
D03*
Y74600D02*
D03*
X103100Y76200D02*
D03*
Y74600D02*
D03*
X92100Y76200D02*
D03*
Y74600D02*
D03*
X100100Y76200D02*
D03*
Y74600D02*
D03*
X104100Y76200D02*
D03*
Y74600D02*
D03*
X93100Y76200D02*
D03*
Y74600D02*
D03*
X101100Y76200D02*
D03*
Y74600D02*
D03*
X105100Y76200D02*
D03*
Y74600D02*
D03*
X94100Y76200D02*
D03*
Y74600D02*
D03*
X95100Y76200D02*
D03*
Y74600D02*
D03*
X96100Y76200D02*
D03*
Y74600D02*
D03*
X97100Y76200D02*
D03*
Y74600D02*
D03*
X106100Y76200D02*
D03*
Y74600D02*
D03*
X114100Y76200D02*
D03*
Y74600D02*
D03*
X118100Y76200D02*
D03*
Y74600D02*
D03*
X107100Y76200D02*
D03*
Y74600D02*
D03*
X115100Y76200D02*
D03*
Y74600D02*
D03*
X119100Y76200D02*
D03*
Y74600D02*
D03*
X108100Y76200D02*
D03*
Y74600D02*
D03*
X116100Y76200D02*
D03*
Y74600D02*
D03*
X120100Y76200D02*
D03*
Y74600D02*
D03*
X109100Y76200D02*
D03*
Y74600D02*
D03*
X117100Y76200D02*
D03*
Y74600D02*
D03*
X121100Y76200D02*
D03*
Y74600D02*
D03*
X110100Y76200D02*
D03*
Y74600D02*
D03*
X111100Y76200D02*
D03*
Y74600D02*
D03*
X112100Y76200D02*
D03*
Y74600D02*
D03*
X113100Y76200D02*
D03*
Y74600D02*
D03*
X122100Y76200D02*
D03*
Y74600D02*
D03*
X130100Y76200D02*
D03*
Y74600D02*
D03*
X134100Y76200D02*
D03*
Y74600D02*
D03*
X123100Y76200D02*
D03*
Y74600D02*
D03*
X131100Y76200D02*
D03*
Y74600D02*
D03*
X135100Y76200D02*
D03*
Y74600D02*
D03*
X124100Y76200D02*
D03*
Y74600D02*
D03*
X132100Y76200D02*
D03*
Y74600D02*
D03*
X136100Y76200D02*
D03*
Y74600D02*
D03*
X133100Y76200D02*
D03*
Y74600D02*
D03*
X153100Y80350D02*
D03*
Y81850D02*
D03*
X152100Y80350D02*
D03*
Y81850D02*
D03*
X151100Y80350D02*
D03*
Y81850D02*
D03*
X150100Y80350D02*
D03*
Y81850D02*
D03*
X149100Y80350D02*
D03*
Y81850D02*
D03*
X148100Y80350D02*
D03*
Y81850D02*
D03*
X147100Y80350D02*
D03*
Y81850D02*
D03*
X146100Y80350D02*
D03*
Y81850D02*
D03*
X145100Y80350D02*
D03*
Y81850D02*
D03*
X144100Y80350D02*
D03*
Y81850D02*
D03*
X143100Y80350D02*
D03*
Y81850D02*
D03*
X142100Y80350D02*
D03*
Y81850D02*
D03*
X141100Y80350D02*
D03*
Y81850D02*
D03*
X140100Y80350D02*
D03*
Y81850D02*
D03*
X139100Y80350D02*
D03*
Y81850D02*
D03*
X138100Y80350D02*
D03*
Y81850D02*
D03*
X137100Y80350D02*
D03*
Y81850D02*
D03*
X136100Y80350D02*
D03*
Y81850D02*
D03*
X135100Y80350D02*
D03*
Y81850D02*
D03*
X134100Y80350D02*
D03*
Y81850D02*
D03*
X133100Y80350D02*
D03*
Y81850D02*
D03*
X132100Y80350D02*
D03*
Y81850D02*
D03*
X131100Y80350D02*
D03*
Y81850D02*
D03*
X130100Y80350D02*
D03*
Y81850D02*
D03*
X129100Y80350D02*
D03*
Y81850D02*
D03*
X128100Y80350D02*
D03*
Y81850D02*
D03*
X127100Y80350D02*
D03*
Y81850D02*
D03*
X126100Y80350D02*
D03*
Y81850D02*
D03*
X125100Y80350D02*
D03*
Y81850D02*
D03*
X124100Y80350D02*
D03*
Y81850D02*
D03*
X123100Y80350D02*
D03*
Y81850D02*
D03*
X122100Y80350D02*
D03*
Y81850D02*
D03*
X121100Y80350D02*
D03*
Y81850D02*
D03*
X120100Y80350D02*
D03*
Y81850D02*
D03*
X119100Y80350D02*
D03*
Y81850D02*
D03*
X118100Y80350D02*
D03*
Y81850D02*
D03*
X117100Y80350D02*
D03*
Y81850D02*
D03*
X116100Y80350D02*
D03*
Y81850D02*
D03*
X115100Y80350D02*
D03*
Y81850D02*
D03*
X114100Y80350D02*
D03*
Y81850D02*
D03*
X113100Y80350D02*
D03*
Y81850D02*
D03*
X112100Y80350D02*
D03*
Y81850D02*
D03*
X111100Y80350D02*
D03*
Y81850D02*
D03*
X110100Y80350D02*
D03*
Y81850D02*
D03*
X109100Y80350D02*
D03*
Y81850D02*
D03*
X108100Y80350D02*
D03*
Y81850D02*
D03*
X107100Y80350D02*
D03*
Y81850D02*
D03*
X106100Y80350D02*
D03*
Y81850D02*
D03*
X105100Y80350D02*
D03*
Y81850D02*
D03*
X104100Y80350D02*
D03*
Y81850D02*
D03*
X103100Y80350D02*
D03*
Y81850D02*
D03*
X102100Y80350D02*
D03*
Y81850D02*
D03*
X101100Y80350D02*
D03*
Y81850D02*
D03*
X100100Y80350D02*
D03*
Y81850D02*
D03*
X99100Y80350D02*
D03*
Y81850D02*
D03*
X98100Y80350D02*
D03*
Y81850D02*
D03*
X97100Y80350D02*
D03*
Y81850D02*
D03*
X96100Y80350D02*
D03*
Y81850D02*
D03*
X95100Y80350D02*
D03*
Y81850D02*
D03*
X94100Y80350D02*
D03*
Y81850D02*
D03*
X93100Y80350D02*
D03*
Y81850D02*
D03*
X92100Y80350D02*
D03*
Y81850D02*
D03*
X91100Y80350D02*
D03*
Y81850D02*
D03*
X90100Y80350D02*
D03*
Y81850D02*
D03*
X89100Y80350D02*
D03*
Y81850D02*
D03*
X88100Y80350D02*
D03*
Y81850D02*
D03*
X87100Y80350D02*
D03*
Y81850D02*
D03*
X86100Y80350D02*
D03*
Y81850D02*
D03*
X85100Y80350D02*
D03*
Y81850D02*
D03*
X84100Y80350D02*
D03*
Y81850D02*
D03*
X83100Y80350D02*
D03*
Y81850D02*
D03*
X82100Y80350D02*
D03*
Y81850D02*
D03*
X81100Y80350D02*
D03*
Y81850D02*
D03*
X80100Y80350D02*
D03*
Y81850D02*
D03*
X79100Y80350D02*
D03*
Y81850D02*
D03*
X78100Y80350D02*
D03*
Y81850D02*
D03*
X77100Y80350D02*
D03*
Y81850D02*
D03*
X76100Y80350D02*
D03*
Y81850D02*
D03*
X75100Y80350D02*
D03*
Y81850D02*
D03*
X74100Y80350D02*
D03*
Y81850D02*
D03*
X73100Y80350D02*
D03*
Y81850D02*
D03*
X72100Y80350D02*
D03*
Y81850D02*
D03*
X71100Y80350D02*
D03*
Y81850D02*
D03*
X70100Y80350D02*
D03*
Y81850D02*
D03*
X69100Y80350D02*
D03*
Y81850D02*
D03*
X68100Y80350D02*
D03*
Y81850D02*
D03*
X67100Y80350D02*
D03*
Y81850D02*
D03*
X66100Y80350D02*
D03*
Y81850D02*
D03*
X65100Y80350D02*
D03*
Y81850D02*
D03*
X64100Y80350D02*
D03*
Y81850D02*
D03*
X63100Y80350D02*
D03*
Y81850D02*
D03*
X62100Y80350D02*
D03*
Y81850D02*
D03*
X61100Y80350D02*
D03*
Y81850D02*
D03*
X60100Y80350D02*
D03*
Y81850D02*
D03*
X59100Y80350D02*
D03*
Y81850D02*
D03*
X58100Y80350D02*
D03*
Y81850D02*
D03*
X80000Y55300D02*
D03*
Y56900D02*
D03*
X148100Y76200D02*
D03*
Y74600D02*
D03*
X147100Y76200D02*
D03*
Y74600D02*
D03*
X146100Y76200D02*
D03*
Y74600D02*
D03*
X145100Y76200D02*
D03*
Y74600D02*
D03*
X144100Y76200D02*
D03*
Y74600D02*
D03*
X129100Y76200D02*
D03*
Y74600D02*
D03*
X128100Y76200D02*
D03*
Y74600D02*
D03*
X127100Y76200D02*
D03*
Y74600D02*
D03*
X125100Y76200D02*
D03*
Y74600D02*
D03*
X81100Y76200D02*
D03*
Y74600D02*
D03*
D29*
X69300Y51800D02*
D03*
X70900D02*
D03*
X72800D02*
D03*
X74400D02*
D03*
X84500Y58000D02*
D03*
X82900D02*
D03*
X84500Y55300D02*
D03*
X82900D02*
D03*
Y52900D02*
D03*
X84500D02*
D03*
X82900Y51475D02*
D03*
X84500D02*
D03*
X94400Y58500D02*
D03*
X96000D02*
D03*
X94400Y56600D02*
D03*
X96000D02*
D03*
Y52900D02*
D03*
X94400D02*
D03*
X96000Y51475D02*
D03*
X94400D02*
D03*
X136100Y53000D02*
D03*
X134500D02*
D03*
Y51600D02*
D03*
X136100D02*
D03*
Y57900D02*
D03*
X134500D02*
D03*
X136100Y55300D02*
D03*
X134500D02*
D03*
X146000Y59100D02*
D03*
X147600D02*
D03*
X146000Y56700D02*
D03*
X147600D02*
D03*
Y51600D02*
D03*
X146000D02*
D03*
X147600Y53100D02*
D03*
X146000D02*
D03*
X79100Y86500D02*
D03*
X80700D02*
D03*
X94800D02*
D03*
X96400D02*
D03*
X110900D02*
D03*
X112500D02*
D03*
X142500D02*
D03*
X144100D02*
D03*
X126800D02*
D03*
X128400D02*
D03*
X62900Y86600D02*
D03*
X64500D02*
D03*
D30*
X77600Y56700D02*
D03*
Y54700D02*
D03*
D31*
X91875Y51465D02*
D03*
Y52735D02*
D03*
Y54005D02*
D03*
Y55275D02*
D03*
Y56545D02*
D03*
Y57815D02*
D03*
Y59085D02*
D03*
X86975Y51465D02*
D03*
Y52735D02*
D03*
Y54005D02*
D03*
Y55275D02*
D03*
Y56545D02*
D03*
Y57815D02*
D03*
Y59085D02*
D03*
X143500Y51540D02*
D03*
Y52810D02*
D03*
Y54080D02*
D03*
Y55350D02*
D03*
Y56620D02*
D03*
Y57890D02*
D03*
Y59160D02*
D03*
X138600Y51540D02*
D03*
Y52810D02*
D03*
Y54080D02*
D03*
Y55350D02*
D03*
Y56620D02*
D03*
Y57890D02*
D03*
Y59160D02*
D03*
D32*
X94650Y54700D02*
D03*
X96550D02*
D03*
X146400Y54850D02*
D03*
X148300D02*
D03*
X146550Y71300D02*
D03*
X144650D02*
D03*
X130550D02*
D03*
X128650D02*
D03*
X114550D02*
D03*
X112650D02*
D03*
X64650D02*
D03*
X66550D02*
D03*
X82550D02*
D03*
X80650D02*
D03*
X98550D02*
D03*
X96650D02*
D03*
D33*
X151700Y62400D02*
D03*
X153700D02*
D03*
X67000Y86500D02*
D03*
X69000D02*
D03*
X83200D02*
D03*
X85200D02*
D03*
X99200D02*
D03*
X101200D02*
D03*
X115200D02*
D03*
X117200D02*
D03*
X131200D02*
D03*
X133200D02*
D03*
X147000D02*
D03*
X149000D02*
D03*
D34*
X142700Y69375D02*
D03*
Y68725D02*
D03*
Y68075D02*
D03*
Y67425D02*
D03*
Y66775D02*
D03*
Y66125D02*
D03*
Y65475D02*
D03*
Y64825D02*
D03*
Y64175D02*
D03*
Y63525D02*
D03*
Y62875D02*
D03*
Y62225D02*
D03*
X148500Y69375D02*
D03*
Y68725D02*
D03*
Y68075D02*
D03*
Y67425D02*
D03*
Y66775D02*
D03*
Y66125D02*
D03*
Y65475D02*
D03*
Y64825D02*
D03*
Y64175D02*
D03*
Y63525D02*
D03*
Y62875D02*
D03*
Y62225D02*
D03*
X126700Y69375D02*
D03*
Y68725D02*
D03*
Y68075D02*
D03*
Y67425D02*
D03*
Y66775D02*
D03*
Y66125D02*
D03*
Y65475D02*
D03*
Y64825D02*
D03*
Y64175D02*
D03*
Y63525D02*
D03*
Y62875D02*
D03*
Y62225D02*
D03*
X132500Y69375D02*
D03*
Y68725D02*
D03*
Y68075D02*
D03*
Y67425D02*
D03*
Y66775D02*
D03*
Y66125D02*
D03*
Y65475D02*
D03*
Y64825D02*
D03*
Y64175D02*
D03*
Y63525D02*
D03*
Y62875D02*
D03*
Y62225D02*
D03*
X110700Y69375D02*
D03*
Y68725D02*
D03*
Y68075D02*
D03*
Y67425D02*
D03*
Y66775D02*
D03*
Y66125D02*
D03*
Y65475D02*
D03*
Y64825D02*
D03*
Y64175D02*
D03*
Y63525D02*
D03*
Y62875D02*
D03*
Y62225D02*
D03*
X116500Y69375D02*
D03*
Y68725D02*
D03*
Y68075D02*
D03*
Y67425D02*
D03*
Y66775D02*
D03*
Y66125D02*
D03*
Y65475D02*
D03*
Y64825D02*
D03*
Y64175D02*
D03*
Y63525D02*
D03*
Y62875D02*
D03*
Y62225D02*
D03*
X62700Y69375D02*
D03*
Y68725D02*
D03*
Y68075D02*
D03*
Y67425D02*
D03*
Y66775D02*
D03*
Y66125D02*
D03*
Y65475D02*
D03*
Y64825D02*
D03*
Y64175D02*
D03*
Y63525D02*
D03*
Y62875D02*
D03*
Y62225D02*
D03*
X68500Y69375D02*
D03*
Y68725D02*
D03*
Y68075D02*
D03*
Y67425D02*
D03*
Y66775D02*
D03*
Y66125D02*
D03*
Y65475D02*
D03*
Y64825D02*
D03*
Y64175D02*
D03*
Y63525D02*
D03*
Y62875D02*
D03*
Y62225D02*
D03*
X78700Y69375D02*
D03*
Y68725D02*
D03*
Y68075D02*
D03*
Y67425D02*
D03*
Y66775D02*
D03*
Y66125D02*
D03*
Y65475D02*
D03*
Y64825D02*
D03*
Y64175D02*
D03*
Y63525D02*
D03*
Y62875D02*
D03*
Y62225D02*
D03*
X84500Y69375D02*
D03*
Y68725D02*
D03*
Y68075D02*
D03*
Y67425D02*
D03*
Y66775D02*
D03*
Y66125D02*
D03*
Y65475D02*
D03*
Y64825D02*
D03*
Y64175D02*
D03*
Y63525D02*
D03*
Y62875D02*
D03*
Y62225D02*
D03*
X94700Y69375D02*
D03*
Y68725D02*
D03*
Y68075D02*
D03*
Y67425D02*
D03*
Y66775D02*
D03*
Y66125D02*
D03*
Y65475D02*
D03*
Y64825D02*
D03*
Y64175D02*
D03*
Y63525D02*
D03*
Y62875D02*
D03*
Y62225D02*
D03*
X100500Y69375D02*
D03*
Y68725D02*
D03*
Y68075D02*
D03*
Y67425D02*
D03*
Y66775D02*
D03*
Y66125D02*
D03*
Y65475D02*
D03*
Y64825D02*
D03*
Y64175D02*
D03*
Y63525D02*
D03*
Y62875D02*
D03*
Y62225D02*
D03*
D35*
X122050Y54030D02*
D03*
X119510D02*
D03*
X116970D02*
D03*
X122050Y56570D02*
D03*
X119510D02*
D03*
X116970D02*
D03*
X124590D02*
D03*
X124560Y54030D02*
D03*
X127130D02*
D03*
Y56570D02*
D03*
X114430D02*
D03*
Y54030D02*
D03*
X111860D02*
D03*
X111890Y56570D02*
D03*
X104270D02*
D03*
X106810D02*
D03*
X109350D02*
D03*
X106810Y54030D02*
D03*
X109350D02*
D03*
D36*
X104270D02*
D03*
D37*
X53500Y53500D02*
D03*
Y85000D02*
D03*
X157700Y53500D02*
D03*
Y85000D02*
D03*
D38*
X153100Y73600D02*
D03*
X152100D02*
D03*
X151100D02*
D03*
X150100D02*
D03*
X149100D02*
D03*
X148100D02*
D03*
X147100D02*
D03*
X146100D02*
D03*
X145100D02*
D03*
X144100D02*
D03*
X143100D02*
D03*
X142100D02*
D03*
X141100D02*
D03*
X140100D02*
D03*
X139100D02*
D03*
X138100D02*
D03*
X137100D02*
D03*
X136100D02*
D03*
X135100D02*
D03*
X134100D02*
D03*
X133100D02*
D03*
X132100D02*
D03*
X131100D02*
D03*
X130100D02*
D03*
X129100D02*
D03*
X128100D02*
D03*
X127100D02*
D03*
X126100D02*
D03*
X125100D02*
D03*
X124100D02*
D03*
X123100D02*
D03*
X122100D02*
D03*
X121100D02*
D03*
X120100D02*
D03*
X119100D02*
D03*
X118100D02*
D03*
X117100D02*
D03*
X116100D02*
D03*
X115100D02*
D03*
X114100D02*
D03*
X113100D02*
D03*
X112100D02*
D03*
X111100D02*
D03*
X110100D02*
D03*
X109100D02*
D03*
X108100D02*
D03*
X107100D02*
D03*
X106100D02*
D03*
X105100D02*
D03*
X104100D02*
D03*
X103100D02*
D03*
X102100D02*
D03*
X101100D02*
D03*
X100100D02*
D03*
X99100D02*
D03*
X98100D02*
D03*
X97100D02*
D03*
X96100D02*
D03*
X95100D02*
D03*
X94100D02*
D03*
X93100D02*
D03*
X92100D02*
D03*
X91100D02*
D03*
X90100D02*
D03*
X88100D02*
D03*
X89100D02*
D03*
X87100D02*
D03*
X86100D02*
D03*
X85100D02*
D03*
X84100D02*
D03*
X83100D02*
D03*
X82100D02*
D03*
X81100D02*
D03*
X80100D02*
D03*
X79100D02*
D03*
X78100D02*
D03*
X77100D02*
D03*
X76100D02*
D03*
X75100D02*
D03*
X74100D02*
D03*
X73100D02*
D03*
X72100D02*
D03*
X71100D02*
D03*
X70100D02*
D03*
X69100D02*
D03*
X68100D02*
D03*
X67100D02*
D03*
X66100D02*
D03*
X65100D02*
D03*
X64100D02*
D03*
X63100D02*
D03*
X62100D02*
D03*
X61100D02*
D03*
X60100D02*
D03*
X59100D02*
D03*
X58100D02*
D03*
M02*
