%FSLAX43Y43*%
%MOMM*%
G71*
G01*
G75*
G04 Layer_Color=16711935*
%ADD10R,0.800X0.800*%
%ADD11R,0.800X0.800*%
%ADD12R,1.500X1.400*%
%ADD13R,2.500X0.700*%
%ADD14R,1.100X1.100*%
%ADD15R,1.400X1.500*%
%ADD16R,2.000X0.350*%
%ADD17C,0.400*%
%ADD18C,0.200*%
%ADD19C,1.500*%
%ADD20R,1.500X1.500*%
%ADD21C,1.600*%
%ADD22R,1.600X1.600*%
%ADD23C,3.200*%
%ADD24C,0.800*%
%ADD25C,0.250*%
%ADD26C,0.600*%
%ADD27C,0.100*%
%ADD28R,0.900X0.900*%
%ADD29R,0.900X0.900*%
%ADD30R,1.600X1.500*%
%ADD31R,2.600X0.800*%
%ADD32R,1.200X1.200*%
%ADD33R,1.500X1.600*%
%ADD34R,2.100X0.450*%
%ADD35C,1.700*%
%ADD36R,1.700X1.700*%
%ADD37C,3.300*%
%ADD38C,0.900*%
D21*
X69295Y54025D02*
D03*
X71835Y56565D02*
D03*
D22*
X74375Y54025D02*
D03*
D35*
X122050Y54030D02*
D03*
X119510D02*
D03*
X116970D02*
D03*
X122050Y56570D02*
D03*
X119510D02*
D03*
X116970D02*
D03*
X124590D02*
D03*
X124560Y54030D02*
D03*
X127130D02*
D03*
Y56570D02*
D03*
X114430D02*
D03*
Y54030D02*
D03*
X111860D02*
D03*
X111890Y56570D02*
D03*
X104270D02*
D03*
X106810D02*
D03*
X109350D02*
D03*
X106810Y54030D02*
D03*
X109350D02*
D03*
D36*
X104270D02*
D03*
D37*
X53500Y53500D02*
D03*
Y85000D02*
D03*
X157700Y53500D02*
D03*
Y85000D02*
D03*
D38*
X153100Y73600D02*
D03*
X152100D02*
D03*
X151100D02*
D03*
X150100D02*
D03*
X149100D02*
D03*
X148100D02*
D03*
X147100D02*
D03*
X146100D02*
D03*
X145100D02*
D03*
X144100D02*
D03*
X143100D02*
D03*
X142100D02*
D03*
X141100D02*
D03*
X140100D02*
D03*
X139100D02*
D03*
X138100D02*
D03*
X137100D02*
D03*
X136100D02*
D03*
X135100D02*
D03*
X134100D02*
D03*
X133100D02*
D03*
X132100D02*
D03*
X131100D02*
D03*
X130100D02*
D03*
X129100D02*
D03*
X128100D02*
D03*
X127100D02*
D03*
X126100D02*
D03*
X125100D02*
D03*
X124100D02*
D03*
X123100D02*
D03*
X122100D02*
D03*
X121100D02*
D03*
X120100D02*
D03*
X119100D02*
D03*
X118100D02*
D03*
X117100D02*
D03*
X116100D02*
D03*
X115100D02*
D03*
X114100D02*
D03*
X113100D02*
D03*
X112100D02*
D03*
X111100D02*
D03*
X110100D02*
D03*
X109100D02*
D03*
X108100D02*
D03*
X107100D02*
D03*
X106100D02*
D03*
X105100D02*
D03*
X104100D02*
D03*
X103100D02*
D03*
X102100D02*
D03*
X101100D02*
D03*
X100100D02*
D03*
X99100D02*
D03*
X98100D02*
D03*
X97100D02*
D03*
X96100D02*
D03*
X95100D02*
D03*
X94100D02*
D03*
X93100D02*
D03*
X92100D02*
D03*
X91100D02*
D03*
X90100D02*
D03*
X88100D02*
D03*
X89100D02*
D03*
X87100D02*
D03*
X86100D02*
D03*
X85100D02*
D03*
X84100D02*
D03*
X83100D02*
D03*
X82100D02*
D03*
X81100D02*
D03*
X80100D02*
D03*
X79100D02*
D03*
X78100D02*
D03*
X77100D02*
D03*
X76100D02*
D03*
X75100D02*
D03*
X74100D02*
D03*
X73100D02*
D03*
X72100D02*
D03*
X71100D02*
D03*
X70100D02*
D03*
X69100D02*
D03*
X68100D02*
D03*
X67100D02*
D03*
X66100D02*
D03*
X65100D02*
D03*
X64100D02*
D03*
X63100D02*
D03*
X62100D02*
D03*
X61100D02*
D03*
X60100D02*
D03*
X59100D02*
D03*
X58100D02*
D03*
M02*
